M48
;Layer_Color=9474304
;FILE_FORMAT=4:4
METRIC
;TYPE=PLATED
T1F00S00C0.7000
T2F00S00C0.7500
T3F00S00C0.8000
T4F00S00C0.8300
T5F00S00C0.9000
T6F00S00C1.0000
T7F00S00C1.0200
T8F00S00C1.1000
T9F00S00C3.2000
%
T01
X00698230Y00792480
X00747030
T02
X00691680Y00852170
X00791680
T03
X00843840Y00699770
X00878840
X00951510Y00698500
X00986510
X00330200Y00662940
X00295200
X00379730Y00792760
Y00827760
X00496570Y00829030
Y00794030
X00847370Y00798830
X00882370
X00952500Y00796290
X00987500
T04
X00459740Y00670560
X00485140
X00510540
X00535940
X00561340
X00586740
X00612140
X00637540
X00662940
X00688340
X00713740
X00739140
X00764540
X00789940
Y00749300
X00764540
X00739140
X00713740
X00688340
X00662940
X00637540
X00612140
X00586740
X00561340
X00535940
X00510540
X00485140
X00459740
T05
X00620160Y00601980
X00645160
X00670160
X00719220Y00600710
X00744220
X00769220
T06
X00821690Y00608330
X00847090
X00872490
X00897890
X00316230Y00754380
X00290830
X00566940Y00803000
Y00848000
X00631940
Y00803000
T07
X00429260Y00610870
X00454660
X00480060
X00505460
X00530860
X00556260
T08
X00398780Y00675640
Y00701040
Y00726440
T09
X00993140Y00590550
X00298450Y00594360
X00289560Y00867410
X00988060
M30
