G04*
G04 #@! TF.GenerationSoftware,Altium Limited,Altium Designer,23.4.1 (23)*
G04*
G04 Layer_Color=16711935*
%FSLAX44Y44*%
%MOMM*%
G71*
G04*
G04 #@! TF.SameCoordinates,25470DFE-9127-4010-A817-713BFABC8644*
G04*
G04*
G04 #@! TF.FilePolarity,Negative*
G04*
G01*
G75*
%ADD15R,1.7000X1.7000*%
%ADD16C,1.7000*%
%ADD17C,3.7060*%
%ADD18C,1.6500*%
%ADD19R,1.6500X1.6500*%
%ADD20R,1.4000X1.4000*%
%ADD21C,1.4000*%
%ADD22C,1.3000*%
%ADD23R,1.3000X1.3000*%
%ADD24C,1.8500*%
%ADD25R,1.8500X1.8500*%
%ADD26R,1.3000X1.3000*%
%ADD27C,1.2500*%
%ADD28R,1.2500X1.2500*%
%ADD29C,1.5500*%
%ADD30R,1.5500X1.5500*%
%ADD31R,1.3500X1.3500*%
%ADD32C,1.3500*%
%ADD33C,1.5500*%
%ADD34R,1.5500X1.5500*%
D15*
X556260Y610870D02*
D03*
D16*
X530860D02*
D03*
X429260D02*
D03*
X454660D02*
D03*
X480060D02*
D03*
X505460D02*
D03*
D17*
X298450Y594360D02*
D03*
X289560Y867410D02*
D03*
X993140Y590550D02*
D03*
X988060Y867410D02*
D03*
D18*
X821690Y608330D02*
D03*
X847090D02*
D03*
X872490D02*
D03*
X566940Y848000D02*
D03*
Y803000D02*
D03*
X631940Y848000D02*
D03*
Y803000D02*
D03*
D19*
X897890Y608330D02*
D03*
D20*
X789940Y749300D02*
D03*
D21*
X764540D02*
D03*
X739140D02*
D03*
X713740D02*
D03*
X688340D02*
D03*
X662940D02*
D03*
X637540D02*
D03*
X612140D02*
D03*
X586740D02*
D03*
X561340D02*
D03*
X535940D02*
D03*
X510540D02*
D03*
X485140D02*
D03*
X459740D02*
D03*
Y670560D02*
D03*
X485140D02*
D03*
X510540D02*
D03*
X535940D02*
D03*
X561340D02*
D03*
X586740D02*
D03*
X612140D02*
D03*
X637540D02*
D03*
X662940D02*
D03*
X688340D02*
D03*
X713740D02*
D03*
X739140D02*
D03*
X764540D02*
D03*
X789940D02*
D03*
D22*
X987500Y796290D02*
D03*
X496570Y829030D02*
D03*
X379730Y827760D02*
D03*
X295200Y662940D02*
D03*
X951510Y698500D02*
D03*
X843840Y699770D02*
D03*
X847370Y798830D02*
D03*
D23*
X952500Y796290D02*
D03*
X330200Y662940D02*
D03*
X986510Y698500D02*
D03*
X878840Y699770D02*
D03*
X882370Y798830D02*
D03*
D24*
X398780Y726440D02*
D03*
Y701040D02*
D03*
D25*
Y675640D02*
D03*
D26*
X496570Y794030D02*
D03*
X379730Y792760D02*
D03*
D27*
X691680Y852170D02*
D03*
D28*
X791680D02*
D03*
D29*
X769220Y600710D02*
D03*
X744220D02*
D03*
X670160Y601980D02*
D03*
X645160D02*
D03*
D30*
X719220Y600710D02*
D03*
X620160Y601980D02*
D03*
D31*
X698230Y792480D02*
D03*
D32*
X747030D02*
D03*
D33*
X316230Y754380D02*
D03*
D34*
X290830D02*
D03*
M02*
