G04*
G04 #@! TF.GenerationSoftware,Altium Limited,Altium Designer,23.4.1 (23)*
G04*
G04 Layer_Physical_Order=2*
G04 Layer_Color=16711680*
%FSLAX44Y44*%
%MOMM*%
G71*
G04*
G04 #@! TF.SameCoordinates,25470DFE-9127-4010-A817-713BFABC8644*
G04*
G04*
G04 #@! TF.FilePolarity,Positive*
G04*
G01*
G75*
%ADD22C,1.3000*%
%ADD23R,1.3000X1.3000*%
%ADD26R,1.3000X1.3000*%
%ADD27C,1.2500*%
%ADD28R,1.2500X1.2500*%
%ADD33C,1.5500*%
%ADD34R,1.5500X1.5500*%
%ADD36C,0.3810*%
%ADD37C,3.5560*%
%ADD38C,1.5000*%
%ADD39R,1.5000X1.5000*%
%ADD40R,1.2500X1.2500*%
%ADD41C,1.7000*%
%ADD42R,1.7000X1.7000*%
%ADD43C,1.4000*%
%ADD44R,1.4000X1.4000*%
%ADD45R,1.2000X1.2000*%
%ADD46C,1.2000*%
G36*
X1025391Y865295D02*
Y586315D01*
X997375Y558299D01*
X294971D01*
X291931Y559312D01*
X258579Y592665D01*
Y870375D01*
X287865Y899661D01*
X991025D01*
X1025391Y865295D01*
D02*
G37*
%LPC*%
G36*
X989936Y886460D02*
X988695D01*
Y868045D01*
X1007110D01*
Y869286D01*
X1006378Y872967D01*
X1004942Y876434D01*
X1002857Y879554D01*
X1000204Y882207D01*
X997084Y884292D01*
X993617Y885728D01*
X989936Y886460D01*
D02*
G37*
G36*
X987425D02*
X986184D01*
X982503Y885728D01*
X979036Y884292D01*
X975916Y882207D01*
X973263Y879554D01*
X971178Y876434D01*
X969742Y872967D01*
X969010Y869286D01*
Y868045D01*
X987425D01*
Y886460D01*
D02*
G37*
G36*
X291436D02*
X290195D01*
Y868045D01*
X308610D01*
Y869286D01*
X307878Y872967D01*
X306442Y876434D01*
X304357Y879554D01*
X301704Y882207D01*
X298584Y884292D01*
X295117Y885728D01*
X291436Y886460D01*
D02*
G37*
G36*
X288925D02*
X287684D01*
X284003Y885728D01*
X280536Y884292D01*
X277416Y882207D01*
X274763Y879554D01*
X272678Y876434D01*
X271242Y872967D01*
X270510Y869286D01*
Y868045D01*
X288925D01*
Y886460D01*
D02*
G37*
G36*
X1007110Y866775D02*
X988695D01*
Y848360D01*
X989936D01*
X993617Y849092D01*
X997084Y850528D01*
X1000204Y852613D01*
X1002857Y855266D01*
X1004942Y858386D01*
X1006378Y861853D01*
X1007110Y865534D01*
Y866775D01*
D02*
G37*
G36*
X987425D02*
X969010D01*
Y865534D01*
X969742Y861853D01*
X971178Y858386D01*
X973263Y855266D01*
X975916Y852613D01*
X979036Y850528D01*
X982503Y849092D01*
X986184Y848360D01*
X987425D01*
Y866775D01*
D02*
G37*
G36*
X308610D02*
X290195D01*
Y848360D01*
X291436D01*
X295117Y849092D01*
X298584Y850528D01*
X301704Y852613D01*
X304357Y855266D01*
X306442Y858386D01*
X307878Y861853D01*
X308610Y865534D01*
Y866775D01*
D02*
G37*
G36*
X288925D02*
X270510D01*
Y865534D01*
X271242Y861853D01*
X272678Y858386D01*
X274763Y855266D01*
X277416Y852613D01*
X280536Y850528D01*
X284003Y849092D01*
X287684Y848360D01*
X288925D01*
Y866775D01*
D02*
G37*
G36*
X799200Y859690D02*
X784160D01*
Y844650D01*
X799200D01*
Y859690D01*
D02*
G37*
G36*
X692670D02*
X690690D01*
X688777Y859177D01*
X687063Y858187D01*
X685663Y856787D01*
X684672Y855073D01*
X684160Y853160D01*
Y851180D01*
X684672Y849267D01*
X685663Y847553D01*
X687063Y846152D01*
X688777Y845163D01*
X690690Y844650D01*
X692670D01*
X694583Y845163D01*
X696297Y846152D01*
X697698Y847553D01*
X698688Y849267D01*
X699200Y851180D01*
Y853160D01*
X698688Y855073D01*
X697698Y856787D01*
X696297Y858187D01*
X694583Y859177D01*
X692670Y859690D01*
D02*
G37*
G36*
X633095Y856770D02*
X630785D01*
X628555Y856172D01*
X626555Y855018D01*
X624922Y853385D01*
X623768Y851385D01*
X623170Y849155D01*
Y846845D01*
X623768Y844615D01*
X624922Y842615D01*
X626555Y840982D01*
X628555Y839828D01*
X630785Y839230D01*
X633095D01*
X635325Y839828D01*
X637325Y840982D01*
X638958Y842615D01*
X640112Y844615D01*
X640710Y846845D01*
Y849155D01*
X640112Y851385D01*
X638958Y853385D01*
X637325Y855018D01*
X635325Y856172D01*
X633095Y856770D01*
D02*
G37*
G36*
X568095D02*
X565785D01*
X563555Y856172D01*
X561555Y855018D01*
X559922Y853385D01*
X558768Y851385D01*
X558170Y849155D01*
Y846845D01*
X558768Y844615D01*
X559922Y842615D01*
X561555Y840982D01*
X563555Y839828D01*
X565785Y839230D01*
X568095D01*
X570325Y839828D01*
X572325Y840982D01*
X573958Y842615D01*
X575112Y844615D01*
X575710Y846845D01*
Y849155D01*
X575112Y851385D01*
X573958Y853385D01*
X572325Y855018D01*
X570325Y856172D01*
X568095Y856770D01*
D02*
G37*
G36*
X497593Y836800D02*
X495547D01*
X493571Y836271D01*
X491799Y835247D01*
X490353Y833801D01*
X489329Y832029D01*
X488800Y830053D01*
Y828007D01*
X489329Y826031D01*
X490353Y824259D01*
X491799Y822812D01*
X493571Y821789D01*
X495547Y821260D01*
X497593D01*
X499569Y821789D01*
X501341Y822812D01*
X502788Y824259D01*
X503811Y826031D01*
X504340Y828007D01*
Y830053D01*
X503811Y832029D01*
X502788Y833801D01*
X501341Y835247D01*
X499569Y836271D01*
X497593Y836800D01*
D02*
G37*
G36*
X380753Y835530D02*
X378707D01*
X376731Y835001D01*
X374959Y833978D01*
X373512Y832531D01*
X372490Y830759D01*
X371960Y828783D01*
Y826737D01*
X372490Y824761D01*
X373512Y822989D01*
X374959Y821543D01*
X376731Y820519D01*
X378707Y819990D01*
X380753D01*
X382729Y820519D01*
X384501Y821543D01*
X385947Y822989D01*
X386970Y824761D01*
X387500Y826737D01*
Y828783D01*
X386970Y830759D01*
X385947Y832531D01*
X384501Y833978D01*
X382729Y835001D01*
X380753Y835530D01*
D02*
G37*
G36*
X633095Y811770D02*
X632575D01*
Y803635D01*
X640710D01*
Y804155D01*
X640112Y806385D01*
X638958Y808385D01*
X637325Y810018D01*
X635325Y811172D01*
X633095Y811770D01*
D02*
G37*
G36*
X631305D02*
X630785D01*
X628555Y811172D01*
X626555Y810018D01*
X624922Y808385D01*
X623768Y806385D01*
X623170Y804155D01*
Y803635D01*
X631305D01*
Y811770D01*
D02*
G37*
G36*
X890140Y806600D02*
X883005D01*
Y799465D01*
X890140D01*
Y806600D01*
D02*
G37*
G36*
X881735D02*
X874600D01*
Y799465D01*
X881735D01*
Y806600D01*
D02*
G37*
G36*
X504340Y801800D02*
X497205D01*
Y794665D01*
X504340D01*
Y801800D01*
D02*
G37*
G36*
X495935D02*
X488800D01*
Y794665D01*
X495935D01*
Y801800D01*
D02*
G37*
G36*
X640710Y802365D02*
X632575D01*
Y794230D01*
X633095D01*
X635325Y794828D01*
X637325Y795982D01*
X638958Y797615D01*
X640112Y799615D01*
X640710Y801845D01*
Y802365D01*
D02*
G37*
G36*
X631305D02*
X623170D01*
Y801845D01*
X623768Y799615D01*
X624922Y797615D01*
X626555Y795982D01*
X628555Y794828D01*
X630785Y794230D01*
X631305D01*
Y802365D01*
D02*
G37*
G36*
X568095Y811770D02*
X565785D01*
X563555Y811172D01*
X561555Y810018D01*
X559922Y808385D01*
X558768Y806385D01*
X558170Y804155D01*
Y801845D01*
X558768Y799615D01*
X559922Y797615D01*
X561555Y795982D01*
X563555Y794828D01*
X565785Y794230D01*
X568095D01*
X570325Y794828D01*
X572325Y795982D01*
X573958Y797615D01*
X575112Y799615D01*
X575710Y801845D01*
Y804155D01*
X575112Y806385D01*
X573958Y808385D01*
X572325Y810018D01*
X570325Y811172D01*
X568095Y811770D01*
D02*
G37*
G36*
X387500Y800530D02*
X380365D01*
Y793395D01*
X387500D01*
Y800530D01*
D02*
G37*
G36*
X379095D02*
X371960D01*
Y793395D01*
X379095D01*
Y800530D01*
D02*
G37*
G36*
X890140Y798195D02*
X883005D01*
Y791060D01*
X890140D01*
Y798195D01*
D02*
G37*
G36*
X881735D02*
X874600D01*
Y791060D01*
X881735D01*
Y798195D01*
D02*
G37*
G36*
X833400Y816037D02*
X718550D01*
X717311Y815791D01*
X716261Y815089D01*
X700922Y799750D01*
X690960D01*
Y789788D01*
X685459Y784287D01*
X590550D01*
X589311Y784041D01*
X588261Y783339D01*
X561742Y756820D01*
X560350D01*
X558437Y756308D01*
X556723Y755318D01*
X555322Y753917D01*
X554333Y752203D01*
X553820Y750290D01*
Y748310D01*
X554333Y746397D01*
X555322Y744683D01*
X556723Y743282D01*
X558437Y742292D01*
X560350Y741780D01*
X562330D01*
X564243Y742292D01*
X565957Y743282D01*
X567357Y744683D01*
X568348Y746397D01*
X568860Y748310D01*
Y750290D01*
X568348Y752203D01*
X567591Y753513D01*
X591891Y777813D01*
X686800D01*
X688039Y778059D01*
X689089Y778761D01*
X695538Y785210D01*
X705500D01*
Y795172D01*
X719891Y809563D01*
X832059D01*
X840058Y801563D01*
X839600Y799853D01*
Y797807D01*
X840129Y795831D01*
X841152Y794059D01*
X842599Y792613D01*
X844371Y791590D01*
X846347Y791060D01*
X848393D01*
X850369Y791590D01*
X852141Y792613D01*
X853587Y794059D01*
X854611Y795831D01*
X855140Y797807D01*
Y799853D01*
X854611Y801829D01*
X853587Y803601D01*
X852141Y805048D01*
X850369Y806070D01*
X848393Y806600D01*
X846347D01*
X844637Y806142D01*
X835689Y815089D01*
X834639Y815791D01*
X833400Y816037D01*
D02*
G37*
G36*
X988523Y804060D02*
X986477D01*
X984501Y803531D01*
X982729Y802507D01*
X981282Y801061D01*
X980259Y799289D01*
X979730Y797313D01*
Y795267D01*
X980259Y793291D01*
X981282Y791519D01*
X982729Y790072D01*
X984501Y789050D01*
X986477Y788520D01*
X988523D01*
X990499Y789050D01*
X992271Y790072D01*
X993717Y791519D01*
X994741Y793291D01*
X995270Y795267D01*
Y797313D01*
X994741Y799289D01*
X993717Y801061D01*
X992271Y802507D01*
X990499Y803531D01*
X988523Y804060D01*
D02*
G37*
G36*
X960270D02*
X944730D01*
Y788520D01*
X960270D01*
Y804060D01*
D02*
G37*
G36*
X504340Y793395D02*
X497205D01*
Y786260D01*
X504340D01*
Y793395D01*
D02*
G37*
G36*
X495935D02*
X488800D01*
Y786260D01*
X495935D01*
Y793395D01*
D02*
G37*
G36*
X387500Y792125D02*
X380365D01*
Y784990D01*
X387500D01*
Y792125D01*
D02*
G37*
G36*
X379095D02*
X371960D01*
Y784990D01*
X379095D01*
Y792125D01*
D02*
G37*
G36*
X317418Y763400D02*
X316865D01*
Y755015D01*
X325250D01*
Y755567D01*
X324635Y757862D01*
X323448Y759918D01*
X321768Y761598D01*
X319712Y762785D01*
X317418Y763400D01*
D02*
G37*
G36*
X315595D02*
X315042D01*
X312748Y762785D01*
X310692Y761598D01*
X309012Y759918D01*
X307825Y757862D01*
X307210Y755567D01*
Y755015D01*
X315595D01*
Y763400D01*
D02*
G37*
G36*
X613130Y756820D02*
X612775D01*
Y749935D01*
X619660D01*
Y750290D01*
X619147Y752203D01*
X618158Y753917D01*
X616757Y755318D01*
X615043Y756308D01*
X613130Y756820D01*
D02*
G37*
G36*
X611505D02*
X611150D01*
X609237Y756308D01*
X607523Y755318D01*
X606123Y753917D01*
X605132Y752203D01*
X604620Y750290D01*
Y749935D01*
X611505D01*
Y756820D01*
D02*
G37*
G36*
X325250Y753745D02*
X316865D01*
Y745360D01*
X317418D01*
X319712Y745975D01*
X321768Y747162D01*
X323448Y748842D01*
X324635Y750898D01*
X325250Y753193D01*
Y753745D01*
D02*
G37*
G36*
X315595D02*
X307210D01*
Y753193D01*
X307825Y750898D01*
X309012Y748842D01*
X310692Y747162D01*
X312748Y745975D01*
X315042Y745360D01*
X315595D01*
Y753745D01*
D02*
G37*
G36*
X299850Y763400D02*
X281810D01*
Y745360D01*
X299850D01*
Y763400D01*
D02*
G37*
G36*
X797460Y756820D02*
X782420D01*
Y741780D01*
X797460D01*
Y756820D01*
D02*
G37*
G36*
X765530D02*
X763550D01*
X761637Y756308D01*
X759923Y755318D01*
X758522Y753917D01*
X757533Y752203D01*
X757020Y750290D01*
Y748310D01*
X757533Y746397D01*
X758522Y744683D01*
X759923Y743282D01*
X761637Y742292D01*
X763550Y741780D01*
X765530D01*
X767443Y742292D01*
X769157Y743282D01*
X770557Y744683D01*
X771547Y746397D01*
X772060Y748310D01*
Y750290D01*
X771547Y752203D01*
X770557Y753917D01*
X769157Y755318D01*
X767443Y756308D01*
X765530Y756820D01*
D02*
G37*
G36*
X740130D02*
X738150D01*
X736237Y756308D01*
X734523Y755318D01*
X733122Y753917D01*
X732132Y752203D01*
X731620Y750290D01*
Y748310D01*
X732132Y746397D01*
X733122Y744683D01*
X734523Y743282D01*
X736237Y742292D01*
X738150Y741780D01*
X740130D01*
X742043Y742292D01*
X743757Y743282D01*
X745157Y744683D01*
X746148Y746397D01*
X746660Y748310D01*
Y750290D01*
X746148Y752203D01*
X745157Y753917D01*
X743757Y755318D01*
X742043Y756308D01*
X740130Y756820D01*
D02*
G37*
G36*
X714730D02*
X712750D01*
X710837Y756308D01*
X709123Y755318D01*
X707722Y753917D01*
X706732Y752203D01*
X706220Y750290D01*
Y748310D01*
X706732Y746397D01*
X707722Y744683D01*
X709123Y743282D01*
X710837Y742292D01*
X712750Y741780D01*
X714730D01*
X716643Y742292D01*
X718357Y743282D01*
X719758Y744683D01*
X720748Y746397D01*
X721260Y748310D01*
Y750290D01*
X720748Y752203D01*
X719758Y753917D01*
X718357Y755318D01*
X716643Y756308D01*
X714730Y756820D01*
D02*
G37*
G36*
X689330D02*
X687350D01*
X685437Y756308D01*
X683723Y755318D01*
X682322Y753917D01*
X681332Y752203D01*
X680820Y750290D01*
Y748310D01*
X681332Y746397D01*
X682322Y744683D01*
X683723Y743282D01*
X685437Y742292D01*
X687350Y741780D01*
X689330D01*
X691243Y742292D01*
X692957Y743282D01*
X694358Y744683D01*
X695348Y746397D01*
X695860Y748310D01*
Y750290D01*
X695348Y752203D01*
X694358Y753917D01*
X692957Y755318D01*
X691243Y756308D01*
X689330Y756820D01*
D02*
G37*
G36*
X663930D02*
X661950D01*
X660037Y756308D01*
X658323Y755318D01*
X656923Y753917D01*
X655932Y752203D01*
X655420Y750290D01*
Y748310D01*
X655932Y746397D01*
X656923Y744683D01*
X658323Y743282D01*
X660037Y742292D01*
X661950Y741780D01*
X663930D01*
X665843Y742292D01*
X667557Y743282D01*
X668958Y744683D01*
X669948Y746397D01*
X670460Y748310D01*
Y750290D01*
X669948Y752203D01*
X668958Y753917D01*
X667557Y755318D01*
X665843Y756308D01*
X663930Y756820D01*
D02*
G37*
G36*
X638530D02*
X636550D01*
X634637Y756308D01*
X632923Y755318D01*
X631522Y753917D01*
X630532Y752203D01*
X630020Y750290D01*
Y748310D01*
X630532Y746397D01*
X631522Y744683D01*
X632923Y743282D01*
X634637Y742292D01*
X636550Y741780D01*
X638530D01*
X640443Y742292D01*
X642157Y743282D01*
X643558Y744683D01*
X644548Y746397D01*
X645060Y748310D01*
Y750290D01*
X644548Y752203D01*
X643558Y753917D01*
X642157Y755318D01*
X640443Y756308D01*
X638530Y756820D01*
D02*
G37*
G36*
X619660Y748665D02*
X612775D01*
Y741780D01*
X613130D01*
X615043Y742292D01*
X616757Y743282D01*
X618158Y744683D01*
X619147Y746397D01*
X619660Y748310D01*
Y748665D01*
D02*
G37*
G36*
X611505D02*
X604620D01*
Y748310D01*
X605132Y746397D01*
X606123Y744683D01*
X607523Y743282D01*
X609237Y742292D01*
X611150Y741780D01*
X611505D01*
Y748665D01*
D02*
G37*
G36*
X536930Y756820D02*
X534950D01*
X533037Y756308D01*
X531323Y755318D01*
X529922Y753917D01*
X528932Y752203D01*
X528420Y750290D01*
Y748310D01*
X528932Y746397D01*
X529922Y744683D01*
X531323Y743282D01*
X533037Y742292D01*
X534950Y741780D01*
X536930D01*
X538843Y742292D01*
X540557Y743282D01*
X541958Y744683D01*
X542948Y746397D01*
X543460Y748310D01*
Y750290D01*
X542948Y752203D01*
X541958Y753917D01*
X540557Y755318D01*
X538843Y756308D01*
X536930Y756820D01*
D02*
G37*
G36*
X490220Y783017D02*
X445770D01*
X444531Y782771D01*
X443481Y782069D01*
X421891Y760479D01*
X421189Y759429D01*
X420943Y758190D01*
Y642620D01*
X421189Y641381D01*
X421891Y640331D01*
X446846Y615376D01*
X446255Y614352D01*
X445640Y612057D01*
Y609683D01*
X446255Y607388D01*
X447442Y605332D01*
X449122Y603652D01*
X451178Y602465D01*
X453473Y601850D01*
X455848D01*
X458142Y602465D01*
X460198Y603652D01*
X461878Y605332D01*
X463065Y607388D01*
X463680Y609683D01*
Y612057D01*
X463065Y614352D01*
X461878Y616408D01*
X460198Y618088D01*
X458142Y619275D01*
X455848Y619890D01*
X453473D01*
X451908Y619471D01*
X427417Y643961D01*
Y756849D01*
X447111Y776543D01*
X488879D01*
X507303Y758119D01*
Y756114D01*
X505923Y755318D01*
X504523Y753917D01*
X503532Y752203D01*
X503020Y750290D01*
Y748310D01*
X503532Y746397D01*
X504523Y744683D01*
X505923Y743282D01*
X507637Y742292D01*
X509550Y741780D01*
X511530D01*
X513443Y742292D01*
X515157Y743282D01*
X516558Y744683D01*
X517547Y746397D01*
X518060Y748310D01*
Y750290D01*
X517547Y752203D01*
X516558Y753917D01*
X515157Y755318D01*
X513777Y756114D01*
Y759460D01*
X513531Y760699D01*
X512829Y761749D01*
X492509Y782069D01*
X491459Y782771D01*
X490220Y783017D01*
D02*
G37*
G36*
X476250Y772857D02*
X453390D01*
X452151Y772611D01*
X451101Y771909D01*
X433321Y754129D01*
X432619Y753079D01*
X432373Y751840D01*
Y655320D01*
X432619Y654081D01*
X433321Y653031D01*
X471781Y614571D01*
X471655Y614352D01*
X471040Y612057D01*
Y609683D01*
X471655Y607388D01*
X472842Y605332D01*
X474522Y603652D01*
X476578Y602465D01*
X478872Y601850D01*
X481247D01*
X483542Y602465D01*
X485598Y603652D01*
X487278Y605332D01*
X488465Y607388D01*
X489080Y609683D01*
Y612057D01*
X488465Y614352D01*
X487278Y616408D01*
X485598Y618088D01*
X483542Y619275D01*
X481247Y619890D01*
X478872D01*
X476578Y619275D01*
X476359Y619149D01*
X438847Y656661D01*
Y750499D01*
X454731Y766383D01*
X474909D01*
X481903Y759389D01*
Y756114D01*
X480523Y755318D01*
X479123Y753917D01*
X478133Y752203D01*
X477620Y750290D01*
Y748310D01*
X478133Y746397D01*
X479123Y744683D01*
X480523Y743282D01*
X482237Y742292D01*
X484150Y741780D01*
X486130D01*
X488043Y742292D01*
X489757Y743282D01*
X491157Y744683D01*
X492147Y746397D01*
X492660Y748310D01*
Y750290D01*
X492147Y752203D01*
X491157Y753917D01*
X489757Y755318D01*
X488377Y756114D01*
Y760730D01*
X488131Y761969D01*
X487429Y763019D01*
X478539Y771909D01*
X477489Y772611D01*
X476250Y772857D01*
D02*
G37*
G36*
X460730Y756820D02*
X458750D01*
X456837Y756308D01*
X455123Y755318D01*
X453722Y753917D01*
X452733Y752203D01*
X452220Y750290D01*
Y748310D01*
X452733Y746397D01*
X453722Y744683D01*
X455123Y743282D01*
X456837Y742292D01*
X458750Y741780D01*
X460730D01*
X462643Y742292D01*
X464357Y743282D01*
X465757Y744683D01*
X466748Y746397D01*
X467260Y748310D01*
Y750290D01*
X466748Y752203D01*
X465757Y753917D01*
X464357Y755318D01*
X462643Y756308D01*
X460730Y756820D01*
D02*
G37*
G36*
X400066Y736210D02*
X397494D01*
X395009Y735544D01*
X392781Y734258D01*
X390962Y732439D01*
X389676Y730211D01*
X389010Y727726D01*
Y725154D01*
X389676Y722669D01*
X390962Y720441D01*
X392781Y718622D01*
X395009Y717336D01*
X397494Y716670D01*
X400066D01*
X402551Y717336D01*
X404779Y718622D01*
X406598Y720441D01*
X407884Y722669D01*
X408550Y725154D01*
Y727726D01*
X407884Y730211D01*
X406598Y732439D01*
X404779Y734258D01*
X402551Y735544D01*
X400066Y736210D01*
D02*
G37*
G36*
Y710810D02*
X399415D01*
Y701675D01*
X408550D01*
Y702326D01*
X407884Y704811D01*
X406598Y707039D01*
X404779Y708858D01*
X402551Y710144D01*
X400066Y710810D01*
D02*
G37*
G36*
X398145D02*
X397494D01*
X395009Y710144D01*
X392781Y708858D01*
X390962Y707039D01*
X389676Y704811D01*
X389010Y702326D01*
Y701675D01*
X398145D01*
Y710810D01*
D02*
G37*
G36*
X886610Y707540D02*
X879475D01*
Y700405D01*
X886610D01*
Y707540D01*
D02*
G37*
G36*
X878205D02*
X871070D01*
Y700405D01*
X878205D01*
Y707540D01*
D02*
G37*
G36*
X994280Y706270D02*
X987145D01*
Y699135D01*
X994280D01*
Y706270D01*
D02*
G37*
G36*
X985875D02*
X978740D01*
Y699135D01*
X985875D01*
Y706270D01*
D02*
G37*
G36*
X886610Y699135D02*
X879475D01*
Y692000D01*
X886610D01*
Y699135D01*
D02*
G37*
G36*
X878205D02*
X871070D01*
Y692000D01*
X878205D01*
Y699135D01*
D02*
G37*
G36*
X747987Y799750D02*
X746073D01*
X744224Y799255D01*
X742566Y798297D01*
X741213Y796944D01*
X740255Y795286D01*
X739760Y793437D01*
Y791523D01*
X740127Y790155D01*
X722829Y772857D01*
X607060D01*
X605821Y772611D01*
X604771Y771909D01*
X589269Y756407D01*
X587730Y756820D01*
X585750D01*
X583837Y756308D01*
X582123Y755318D01*
X580723Y753917D01*
X579733Y752203D01*
X579220Y750290D01*
Y748310D01*
X579733Y746397D01*
X580723Y744683D01*
X582123Y743282D01*
X583837Y742292D01*
X585750Y741780D01*
X587730D01*
X589643Y742292D01*
X591357Y743282D01*
X592757Y744683D01*
X593747Y746397D01*
X594260Y748310D01*
Y750290D01*
X593848Y751829D01*
X608401Y766383D01*
X724170D01*
X725409Y766629D01*
X726459Y767331D01*
X744705Y785577D01*
X746073Y785210D01*
X747987D01*
X749836Y785705D01*
X751494Y786663D01*
X752847Y788016D01*
X753556Y789243D01*
X798759D01*
X842583Y745419D01*
Y707477D01*
X840841Y707010D01*
X839069Y705987D01*
X837623Y704541D01*
X836600Y702769D01*
X836070Y700793D01*
Y698747D01*
X836600Y696771D01*
X837623Y694999D01*
X839069Y693552D01*
X840841Y692530D01*
X842817Y692000D01*
X844863D01*
X846839Y692530D01*
X848611Y693552D01*
X850058Y694999D01*
X851080Y696771D01*
X851610Y698747D01*
Y700793D01*
X851080Y702769D01*
X850058Y704541D01*
X849008Y705591D01*
X849057Y705840D01*
Y746760D01*
X848811Y747999D01*
X848109Y749049D01*
X802389Y794769D01*
X801339Y795471D01*
X800100Y795717D01*
X753556D01*
X752847Y796944D01*
X751494Y798297D01*
X749836Y799255D01*
X747987Y799750D01*
D02*
G37*
G36*
X408550Y700405D02*
X399415D01*
Y691270D01*
X400066D01*
X402551Y691936D01*
X404779Y693222D01*
X406598Y695041D01*
X407884Y697269D01*
X408550Y699754D01*
Y700405D01*
D02*
G37*
G36*
X398145D02*
X389010D01*
Y699754D01*
X389676Y697269D01*
X390962Y695041D01*
X392781Y693222D01*
X395009Y691936D01*
X397494Y691270D01*
X398145D01*
Y700405D01*
D02*
G37*
G36*
X994280Y697865D02*
X987145D01*
Y690730D01*
X994280D01*
Y697865D01*
D02*
G37*
G36*
X985875D02*
X978740D01*
Y690730D01*
X985875D01*
Y697865D01*
D02*
G37*
G36*
X952533Y706270D02*
X950487D01*
X948511Y705741D01*
X946739Y704717D01*
X945293Y703271D01*
X944269Y701499D01*
X943740Y699523D01*
Y697477D01*
X944269Y695501D01*
X945293Y693729D01*
X946739Y692282D01*
X948511Y691260D01*
X950487Y690730D01*
X952533D01*
X954509Y691260D01*
X956281Y692282D01*
X957728Y693729D01*
X958751Y695501D01*
X959280Y697477D01*
Y699523D01*
X958751Y701499D01*
X957728Y703271D01*
X956281Y704717D01*
X954509Y705741D01*
X952533Y706270D01*
D02*
G37*
G36*
X638530Y678080D02*
X638175D01*
Y671195D01*
X645060D01*
Y671550D01*
X644548Y673463D01*
X643558Y675177D01*
X642157Y676578D01*
X640443Y677568D01*
X638530Y678080D01*
D02*
G37*
G36*
X636905D02*
X636550D01*
X634637Y677568D01*
X632923Y676578D01*
X631522Y675177D01*
X630532Y673463D01*
X630020Y671550D01*
Y671195D01*
X636905D01*
Y678080D01*
D02*
G37*
G36*
X408550Y685410D02*
X389010D01*
Y665870D01*
X408550D01*
Y685410D01*
D02*
G37*
G36*
X337970Y670710D02*
X330835D01*
Y663575D01*
X337970D01*
Y670710D01*
D02*
G37*
G36*
X329565D02*
X322430D01*
Y663575D01*
X329565D01*
Y670710D01*
D02*
G37*
G36*
X790930Y678080D02*
X788950D01*
X787037Y677568D01*
X785323Y676578D01*
X783923Y675177D01*
X782933Y673463D01*
X782420Y671550D01*
Y669570D01*
X782933Y667657D01*
X783923Y665943D01*
X785323Y664542D01*
X787037Y663552D01*
X788950Y663040D01*
X790930D01*
X792843Y663552D01*
X794557Y664542D01*
X795957Y665943D01*
X796947Y667657D01*
X797460Y669570D01*
Y671550D01*
X796947Y673463D01*
X795957Y675177D01*
X794557Y676578D01*
X792843Y677568D01*
X790930Y678080D01*
D02*
G37*
G36*
X765530D02*
X763550D01*
X761637Y677568D01*
X759923Y676578D01*
X758522Y675177D01*
X757533Y673463D01*
X757020Y671550D01*
Y669570D01*
X757533Y667657D01*
X758522Y665943D01*
X759923Y664542D01*
X761637Y663552D01*
X763550Y663040D01*
X765530D01*
X767443Y663552D01*
X769157Y664542D01*
X770557Y665943D01*
X771547Y667657D01*
X772060Y669570D01*
Y671550D01*
X771547Y673463D01*
X770557Y675177D01*
X769157Y676578D01*
X767443Y677568D01*
X765530Y678080D01*
D02*
G37*
G36*
X740130D02*
X738150D01*
X736237Y677568D01*
X734523Y676578D01*
X733122Y675177D01*
X732132Y673463D01*
X731620Y671550D01*
Y669570D01*
X732132Y667657D01*
X733122Y665943D01*
X734523Y664542D01*
X736237Y663552D01*
X738150Y663040D01*
X740130D01*
X742043Y663552D01*
X743757Y664542D01*
X745157Y665943D01*
X746148Y667657D01*
X746660Y669570D01*
Y671550D01*
X746148Y673463D01*
X745157Y675177D01*
X743757Y676578D01*
X742043Y677568D01*
X740130Y678080D01*
D02*
G37*
G36*
X714730D02*
X712750D01*
X710837Y677568D01*
X709123Y676578D01*
X707722Y675177D01*
X706732Y673463D01*
X706220Y671550D01*
Y669570D01*
X706732Y667657D01*
X707722Y665943D01*
X709123Y664542D01*
X710837Y663552D01*
X712750Y663040D01*
X714730D01*
X716643Y663552D01*
X718357Y664542D01*
X719758Y665943D01*
X720748Y667657D01*
X721260Y669570D01*
Y671550D01*
X720748Y673463D01*
X719758Y675177D01*
X718357Y676578D01*
X716643Y677568D01*
X714730Y678080D01*
D02*
G37*
G36*
X689330D02*
X687350D01*
X685437Y677568D01*
X683723Y676578D01*
X682322Y675177D01*
X681332Y673463D01*
X680820Y671550D01*
Y669570D01*
X681332Y667657D01*
X682322Y665943D01*
X683723Y664542D01*
X685437Y663552D01*
X687350Y663040D01*
X689330D01*
X691243Y663552D01*
X692957Y664542D01*
X694358Y665943D01*
X695348Y667657D01*
X695860Y669570D01*
Y671550D01*
X695348Y673463D01*
X694358Y675177D01*
X692957Y676578D01*
X691243Y677568D01*
X689330Y678080D01*
D02*
G37*
G36*
X663930D02*
X661950D01*
X660037Y677568D01*
X658323Y676578D01*
X656923Y675177D01*
X655932Y673463D01*
X655420Y671550D01*
Y669570D01*
X655932Y667657D01*
X656923Y665943D01*
X658323Y664542D01*
X660037Y663552D01*
X661950Y663040D01*
X663930D01*
X665843Y663552D01*
X667557Y664542D01*
X668958Y665943D01*
X669948Y667657D01*
X670460Y669570D01*
Y671550D01*
X669948Y673463D01*
X668958Y675177D01*
X667557Y676578D01*
X665843Y677568D01*
X663930Y678080D01*
D02*
G37*
G36*
X645060Y669925D02*
X638175D01*
Y663040D01*
X638530D01*
X640443Y663552D01*
X642157Y664542D01*
X643558Y665943D01*
X644548Y667657D01*
X645060Y669570D01*
Y669925D01*
D02*
G37*
G36*
X636905D02*
X630020D01*
Y669570D01*
X630532Y667657D01*
X631522Y665943D01*
X632923Y664542D01*
X634637Y663552D01*
X636550Y663040D01*
X636905D01*
Y669925D01*
D02*
G37*
G36*
X613130Y678080D02*
X611150D01*
X609237Y677568D01*
X607523Y676578D01*
X606123Y675177D01*
X605132Y673463D01*
X604620Y671550D01*
Y669570D01*
X605132Y667657D01*
X606123Y665943D01*
X607523Y664542D01*
X609237Y663552D01*
X611150Y663040D01*
X613130D01*
X615043Y663552D01*
X616757Y664542D01*
X618158Y665943D01*
X619147Y667657D01*
X619660Y669570D01*
Y671550D01*
X619147Y673463D01*
X618158Y675177D01*
X616757Y676578D01*
X615043Y677568D01*
X613130Y678080D01*
D02*
G37*
G36*
X587730D02*
X585750D01*
X583837Y677568D01*
X582123Y676578D01*
X580723Y675177D01*
X579733Y673463D01*
X579220Y671550D01*
Y669570D01*
X579733Y667657D01*
X580723Y665943D01*
X582123Y664542D01*
X583837Y663552D01*
X585750Y663040D01*
X587730D01*
X589643Y663552D01*
X591357Y664542D01*
X592757Y665943D01*
X593747Y667657D01*
X594260Y669570D01*
Y671550D01*
X593747Y673463D01*
X592757Y675177D01*
X591357Y676578D01*
X589643Y677568D01*
X587730Y678080D01*
D02*
G37*
G36*
X562330D02*
X560350D01*
X558437Y677568D01*
X556723Y676578D01*
X555322Y675177D01*
X554333Y673463D01*
X553820Y671550D01*
Y669570D01*
X554333Y667657D01*
X555322Y665943D01*
X556723Y664542D01*
X558437Y663552D01*
X560350Y663040D01*
X562330D01*
X564243Y663552D01*
X565957Y664542D01*
X567357Y665943D01*
X568348Y667657D01*
X568860Y669570D01*
Y671550D01*
X568348Y673463D01*
X567357Y675177D01*
X565957Y676578D01*
X564243Y677568D01*
X562330Y678080D01*
D02*
G37*
G36*
X536930D02*
X534950D01*
X533037Y677568D01*
X531323Y676578D01*
X529922Y675177D01*
X528932Y673463D01*
X528420Y671550D01*
Y669570D01*
X528932Y667657D01*
X529922Y665943D01*
X531323Y664542D01*
X533037Y663552D01*
X534950Y663040D01*
X536930D01*
X538843Y663552D01*
X540557Y664542D01*
X541958Y665943D01*
X542948Y667657D01*
X543460Y669570D01*
Y671550D01*
X542948Y673463D01*
X541958Y675177D01*
X540557Y676578D01*
X538843Y677568D01*
X536930Y678080D01*
D02*
G37*
G36*
X511530D02*
X509550D01*
X507637Y677568D01*
X505923Y676578D01*
X504523Y675177D01*
X503532Y673463D01*
X503020Y671550D01*
Y669570D01*
X503532Y667657D01*
X504523Y665943D01*
X505923Y664542D01*
X507637Y663552D01*
X509550Y663040D01*
X511530D01*
X513443Y663552D01*
X515157Y664542D01*
X516558Y665943D01*
X517547Y667657D01*
X518060Y669570D01*
Y671550D01*
X517547Y673463D01*
X516558Y675177D01*
X515157Y676578D01*
X513443Y677568D01*
X511530Y678080D01*
D02*
G37*
G36*
X486130D02*
X484150D01*
X482237Y677568D01*
X480523Y676578D01*
X479123Y675177D01*
X478133Y673463D01*
X477620Y671550D01*
Y669570D01*
X478133Y667657D01*
X479123Y665943D01*
X480523Y664542D01*
X482237Y663552D01*
X484150Y663040D01*
X486130D01*
X488043Y663552D01*
X489757Y664542D01*
X491157Y665943D01*
X492147Y667657D01*
X492660Y669570D01*
Y671550D01*
X492147Y673463D01*
X491157Y675177D01*
X489757Y676578D01*
X488043Y677568D01*
X486130Y678080D01*
D02*
G37*
G36*
X460730D02*
X458750D01*
X456837Y677568D01*
X455123Y676578D01*
X453722Y675177D01*
X452733Y673463D01*
X452220Y671550D01*
Y669570D01*
X452733Y667657D01*
X453722Y665943D01*
X455123Y664542D01*
X456837Y663552D01*
X458750Y663040D01*
X460730D01*
X462643Y663552D01*
X464357Y664542D01*
X465757Y665943D01*
X466748Y667657D01*
X467260Y669570D01*
Y671550D01*
X466748Y673463D01*
X465757Y675177D01*
X464357Y676578D01*
X462643Y677568D01*
X460730Y678080D01*
D02*
G37*
G36*
X337970Y662305D02*
X330835D01*
Y655170D01*
X337970D01*
Y662305D01*
D02*
G37*
G36*
X329565D02*
X322430D01*
Y655170D01*
X329565D01*
Y662305D01*
D02*
G37*
G36*
X296223Y670710D02*
X294177D01*
X292201Y670181D01*
X290429Y669157D01*
X288983Y667711D01*
X287959Y665939D01*
X287430Y663963D01*
Y661917D01*
X287959Y659941D01*
X288983Y658169D01*
X290429Y656722D01*
X292201Y655699D01*
X294177Y655170D01*
X296223D01*
X298199Y655699D01*
X299971Y656722D01*
X301418Y658169D01*
X302440Y659941D01*
X302970Y661917D01*
Y663963D01*
X302440Y665939D01*
X301418Y667711D01*
X299971Y669157D01*
X298199Y670181D01*
X296223Y670710D01*
D02*
G37*
G36*
X506647Y619890D02*
X506095D01*
Y611505D01*
X514480D01*
Y612057D01*
X513865Y614352D01*
X512678Y616408D01*
X510998Y618088D01*
X508942Y619275D01*
X506647Y619890D01*
D02*
G37*
G36*
X504825D02*
X504272D01*
X501978Y619275D01*
X499922Y618088D01*
X498242Y616408D01*
X497055Y614352D01*
X496440Y612057D01*
Y611505D01*
X504825D01*
Y619890D01*
D02*
G37*
G36*
X822845Y617100D02*
X822325D01*
Y608965D01*
X830460D01*
Y609485D01*
X829862Y611715D01*
X828708Y613715D01*
X827075Y615348D01*
X825075Y616502D01*
X822845Y617100D01*
D02*
G37*
G36*
X821055D02*
X820535D01*
X818305Y616502D01*
X816305Y615348D01*
X814672Y613715D01*
X813518Y611715D01*
X812920Y609485D01*
Y608965D01*
X821055D01*
Y617100D01*
D02*
G37*
G36*
X646249Y610250D02*
X645795D01*
Y602615D01*
X653430D01*
Y603069D01*
X652866Y605172D01*
X651778Y607058D01*
X650238Y608598D01*
X648352Y609686D01*
X646249Y610250D01*
D02*
G37*
G36*
X644525D02*
X644071D01*
X641968Y609686D01*
X640082Y608598D01*
X638542Y607058D01*
X637454Y605172D01*
X636890Y603069D01*
Y602615D01*
X644525D01*
Y610250D01*
D02*
G37*
G36*
X565280Y619890D02*
X547240D01*
Y601850D01*
X565280D01*
Y619890D01*
D02*
G37*
G36*
X532048D02*
X529673D01*
X527378Y619275D01*
X525322Y618088D01*
X523642Y616408D01*
X522455Y614352D01*
X521840Y612057D01*
Y609683D01*
X522455Y607388D01*
X523642Y605332D01*
X525322Y603652D01*
X527378Y602465D01*
X529673Y601850D01*
X532048D01*
X534342Y602465D01*
X536398Y603652D01*
X538078Y605332D01*
X539265Y607388D01*
X539880Y609683D01*
Y612057D01*
X539265Y614352D01*
X538078Y616408D01*
X536398Y618088D01*
X534342Y619275D01*
X532048Y619890D01*
D02*
G37*
G36*
X514480Y610235D02*
X506095D01*
Y601850D01*
X506647D01*
X508942Y602465D01*
X510998Y603652D01*
X512678Y605332D01*
X513865Y607388D01*
X514480Y609683D01*
Y610235D01*
D02*
G37*
G36*
X504825D02*
X496440D01*
Y609683D01*
X497055Y607388D01*
X498242Y605332D01*
X499922Y603652D01*
X501978Y602465D01*
X504272Y601850D01*
X504825D01*
Y610235D01*
D02*
G37*
G36*
X430448Y619890D02*
X428073D01*
X425778Y619275D01*
X423722Y618088D01*
X422042Y616408D01*
X420855Y614352D01*
X420240Y612057D01*
Y609683D01*
X420855Y607388D01*
X422042Y605332D01*
X423722Y603652D01*
X425778Y602465D01*
X428073Y601850D01*
X430448D01*
X432742Y602465D01*
X434798Y603652D01*
X436478Y605332D01*
X437665Y607388D01*
X438280Y609683D01*
Y612057D01*
X437665Y614352D01*
X436478Y616408D01*
X434798Y618088D01*
X432742Y619275D01*
X430448Y619890D01*
D02*
G37*
G36*
X745309Y608980D02*
X744855D01*
Y601345D01*
X752490D01*
Y601799D01*
X751926Y603902D01*
X750838Y605788D01*
X749298Y607328D01*
X747412Y608416D01*
X745309Y608980D01*
D02*
G37*
G36*
X743585D02*
X743131D01*
X741028Y608416D01*
X739142Y607328D01*
X737602Y605788D01*
X736514Y603902D01*
X735950Y601799D01*
Y601345D01*
X743585D01*
Y608980D01*
D02*
G37*
G36*
X906660Y617100D02*
X889120D01*
Y599560D01*
X906660D01*
Y617100D01*
D02*
G37*
G36*
X873645D02*
X871335D01*
X869105Y616502D01*
X867105Y615348D01*
X865472Y613715D01*
X864318Y611715D01*
X863720Y609485D01*
Y607175D01*
X864318Y604945D01*
X865472Y602945D01*
X867105Y601312D01*
X869105Y600158D01*
X871335Y599560D01*
X873645D01*
X875875Y600158D01*
X877875Y601312D01*
X879508Y602945D01*
X880662Y604945D01*
X881260Y607175D01*
Y609485D01*
X880662Y611715D01*
X879508Y613715D01*
X877875Y615348D01*
X875875Y616502D01*
X873645Y617100D01*
D02*
G37*
G36*
X848245D02*
X845935D01*
X843705Y616502D01*
X841705Y615348D01*
X840072Y613715D01*
X838918Y611715D01*
X838320Y609485D01*
Y607175D01*
X838918Y604945D01*
X840072Y602945D01*
X841705Y601312D01*
X843705Y600158D01*
X845935Y599560D01*
X848245D01*
X850475Y600158D01*
X852475Y601312D01*
X854108Y602945D01*
X855262Y604945D01*
X855860Y607175D01*
Y609485D01*
X855262Y611715D01*
X854108Y613715D01*
X852475Y615348D01*
X850475Y616502D01*
X848245Y617100D01*
D02*
G37*
G36*
X830460Y607695D02*
X822325D01*
Y599560D01*
X822845D01*
X825075Y600158D01*
X827075Y601312D01*
X828708Y602945D01*
X829862Y604945D01*
X830460Y607175D01*
Y607695D01*
D02*
G37*
G36*
X821055D02*
X812920D01*
Y607175D01*
X813518Y604945D01*
X814672Y602945D01*
X816305Y601312D01*
X818305Y600158D01*
X820535Y599560D01*
X821055D01*
Y607695D01*
D02*
G37*
G36*
X300326Y613410D02*
X299085D01*
Y594995D01*
X317500D01*
Y596236D01*
X316768Y599917D01*
X315332Y603384D01*
X313247Y606504D01*
X310594Y609157D01*
X307474Y611242D01*
X304007Y612678D01*
X300326Y613410D01*
D02*
G37*
G36*
X297815D02*
X296574D01*
X292893Y612678D01*
X289426Y611242D01*
X286306Y609157D01*
X283653Y606504D01*
X281568Y603384D01*
X280132Y599917D01*
X279400Y596236D01*
Y594995D01*
X297815D01*
Y613410D01*
D02*
G37*
G36*
X671249Y610250D02*
X669071D01*
X666968Y609686D01*
X665082Y608598D01*
X663542Y607058D01*
X662454Y605172D01*
X661890Y603069D01*
Y600891D01*
X662454Y598788D01*
X663542Y596902D01*
X665082Y595362D01*
X666968Y594274D01*
X669071Y593710D01*
X671249D01*
X673352Y594274D01*
X675238Y595362D01*
X676778Y596902D01*
X677866Y598788D01*
X678430Y600891D01*
Y603069D01*
X677866Y605172D01*
X676778Y607058D01*
X675238Y608598D01*
X673352Y609686D01*
X671249Y610250D01*
D02*
G37*
G36*
X653430Y601345D02*
X645795D01*
Y593710D01*
X646249D01*
X648352Y594274D01*
X650238Y595362D01*
X651778Y596902D01*
X652866Y598788D01*
X653430Y600891D01*
Y601345D01*
D02*
G37*
G36*
X644525D02*
X636890D01*
Y600891D01*
X637454Y598788D01*
X638542Y596902D01*
X640082Y595362D01*
X641968Y594274D01*
X644071Y593710D01*
X644525D01*
Y601345D01*
D02*
G37*
G36*
X628430Y610250D02*
X611890D01*
Y593710D01*
X628430D01*
Y610250D01*
D02*
G37*
G36*
X770309Y608980D02*
X768131D01*
X766028Y608416D01*
X764142Y607328D01*
X762602Y605788D01*
X761514Y603902D01*
X760950Y601799D01*
Y599621D01*
X761514Y597518D01*
X762602Y595632D01*
X764142Y594092D01*
X766028Y593004D01*
X768131Y592440D01*
X770309D01*
X772412Y593004D01*
X774298Y594092D01*
X775838Y595632D01*
X776926Y597518D01*
X777490Y599621D01*
Y601799D01*
X776926Y603902D01*
X775838Y605788D01*
X774298Y607328D01*
X772412Y608416D01*
X770309Y608980D01*
D02*
G37*
G36*
X752490Y600075D02*
X744855D01*
Y592440D01*
X745309D01*
X747412Y593004D01*
X749298Y594092D01*
X750838Y595632D01*
X751926Y597518D01*
X752490Y599621D01*
Y600075D01*
D02*
G37*
G36*
X743585D02*
X735950D01*
Y599621D01*
X736514Y597518D01*
X737602Y595632D01*
X739142Y594092D01*
X741028Y593004D01*
X743131Y592440D01*
X743585D01*
Y600075D01*
D02*
G37*
G36*
X727490Y608980D02*
X710950D01*
Y592440D01*
X727490D01*
Y608980D01*
D02*
G37*
G36*
X995016Y609600D02*
X993775D01*
Y591185D01*
X1012190D01*
Y592426D01*
X1011458Y596107D01*
X1010022Y599574D01*
X1007937Y602694D01*
X1005284Y605347D01*
X1002164Y607432D01*
X998697Y608868D01*
X995016Y609600D01*
D02*
G37*
G36*
X992505D02*
X991264D01*
X987583Y608868D01*
X984116Y607432D01*
X980996Y605347D01*
X978343Y602694D01*
X976258Y599574D01*
X974822Y596107D01*
X974090Y592426D01*
Y591185D01*
X992505D01*
Y609600D01*
D02*
G37*
G36*
X317500Y593725D02*
X299085D01*
Y575310D01*
X300326D01*
X304007Y576042D01*
X307474Y577478D01*
X310594Y579563D01*
X313247Y582216D01*
X315332Y585336D01*
X316768Y588803D01*
X317500Y592484D01*
Y593725D01*
D02*
G37*
G36*
X297815D02*
X279400D01*
Y592484D01*
X280132Y588803D01*
X281568Y585336D01*
X283653Y582216D01*
X286306Y579563D01*
X289426Y577478D01*
X292893Y576042D01*
X296574Y575310D01*
X297815D01*
Y593725D01*
D02*
G37*
G36*
X1012190Y589915D02*
X993775D01*
Y571500D01*
X995016D01*
X998697Y572232D01*
X1002164Y573668D01*
X1005284Y575753D01*
X1007937Y578406D01*
X1010022Y581526D01*
X1011458Y584993D01*
X1012190Y588674D01*
Y589915D01*
D02*
G37*
G36*
X992505D02*
X974090D01*
Y588674D01*
X974822Y584993D01*
X976258Y581526D01*
X978343Y578406D01*
X980996Y575753D01*
X984116Y573668D01*
X987583Y572232D01*
X991264Y571500D01*
X992505D01*
Y589915D01*
D02*
G37*
%LPD*%
D22*
X987500Y796290D02*
D03*
X496570Y829030D02*
D03*
X379730Y827760D02*
D03*
X295200Y662940D02*
D03*
X951510Y698500D02*
D03*
X843840Y699770D02*
D03*
X847370Y798830D02*
D03*
D23*
X952500Y796290D02*
D03*
X330200Y662940D02*
D03*
X986510Y698500D02*
D03*
X878840Y699770D02*
D03*
X882370Y798830D02*
D03*
D26*
X496570Y794030D02*
D03*
X379730Y792760D02*
D03*
D27*
X764540Y749300D02*
D03*
X739140D02*
D03*
X713740D02*
D03*
X688340D02*
D03*
X662940D02*
D03*
X637540D02*
D03*
X612140D02*
D03*
X586740D02*
D03*
X561340D02*
D03*
X535940D02*
D03*
X510540D02*
D03*
X485140D02*
D03*
X459740D02*
D03*
Y670560D02*
D03*
X485140D02*
D03*
X510540D02*
D03*
X535940D02*
D03*
X561340D02*
D03*
X586740D02*
D03*
X612140D02*
D03*
X637540D02*
D03*
X662940D02*
D03*
X688340D02*
D03*
X713740D02*
D03*
X739140D02*
D03*
X764540D02*
D03*
X789940D02*
D03*
X691680Y852170D02*
D03*
D28*
X791680D02*
D03*
D33*
X530860Y610870D02*
D03*
X429260D02*
D03*
X454660D02*
D03*
X480060D02*
D03*
X505460D02*
D03*
X316230Y754380D02*
D03*
D34*
X556260Y610870D02*
D03*
X290830Y754380D02*
D03*
D36*
X698230Y792480D02*
X718550Y812800D01*
X833400D02*
X847370Y798830D01*
X718550Y812800D02*
X833400D01*
X424180Y642620D02*
X455930Y610870D01*
X458470D01*
X435610Y655320D02*
Y751840D01*
Y655320D02*
X480060Y610870D01*
X424180Y642620D02*
Y758190D01*
X445770Y779780D01*
X490220D02*
X510540Y759460D01*
X445770Y779780D02*
X490220D01*
X435610Y751840D02*
X453390Y769620D01*
X476250D02*
X485140Y760730D01*
X453390Y769620D02*
X476250D01*
X485140Y749300D02*
Y760730D01*
X586740Y749300D02*
X607060Y769620D01*
X724170D02*
X747030Y792480D01*
X607060Y769620D02*
X724170D01*
X561340Y751840D02*
X590550Y781050D01*
X686800D02*
X698230Y792480D01*
X590550Y781050D02*
X686800D01*
X510540Y749300D02*
Y759460D01*
X844830Y704850D02*
X845820Y705840D01*
Y746760D01*
X747030Y792480D02*
X800100D01*
X845820Y746760D01*
X561340Y749300D02*
Y751840D01*
D37*
X298450Y594360D02*
D03*
X289560Y867410D02*
D03*
X993140Y590550D02*
D03*
X988060Y867410D02*
D03*
D38*
X821690Y608330D02*
D03*
X847090D02*
D03*
X872490D02*
D03*
X566940Y848000D02*
D03*
Y803000D02*
D03*
X631940Y848000D02*
D03*
Y803000D02*
D03*
D39*
X897890Y608330D02*
D03*
D40*
X789940Y749300D02*
D03*
D41*
X398780Y726440D02*
D03*
Y701040D02*
D03*
D42*
Y675640D02*
D03*
D43*
X769220Y600710D02*
D03*
X744220D02*
D03*
X670160Y601980D02*
D03*
X645160D02*
D03*
D44*
X719220Y600710D02*
D03*
X620160Y601980D02*
D03*
D45*
X698230Y792480D02*
D03*
D46*
X747030D02*
D03*
M02*
