G04*
G04 #@! TF.GenerationSoftware,Altium Limited,Altium Designer,23.4.1 (23)*
G04*
G04 Layer_Color=16711935*
%FSLAX44Y44*%
%MOMM*%
G71*
G04*
G04 #@! TF.SameCoordinates,25470DFE-9127-4010-A817-713BFABC8644*
G04*
G04*
G04 #@! TF.FilePolarity,Positive*
G04*
G01*
G75*
%ADD12C,0.2000*%
G36*
X973171Y802900D02*
X973254Y802891D01*
X973356Y802882D01*
X973458Y802873D01*
X973578Y802845D01*
X973828Y802790D01*
X974105Y802706D01*
X974244Y802651D01*
X974373Y802586D01*
X974502Y802503D01*
X974632Y802420D01*
X974641Y802411D01*
X974660Y802401D01*
X974697Y802374D01*
X974743Y802327D01*
X974789Y802281D01*
X974854Y802216D01*
X974919Y802142D01*
X974993Y802068D01*
X975067Y801976D01*
X975140Y801865D01*
X975224Y801754D01*
X975298Y801634D01*
X975362Y801495D01*
X975436Y801357D01*
X975492Y801208D01*
X975547Y801042D01*
X974715Y800848D01*
Y800857D01*
X974706Y800876D01*
X974687Y800913D01*
X974669Y800959D01*
X974650Y801014D01*
X974623Y801088D01*
X974549Y801236D01*
X974456Y801403D01*
X974345Y801569D01*
X974207Y801726D01*
X974059Y801865D01*
X974040Y801883D01*
X973985Y801920D01*
X973892Y801967D01*
X973772Y802031D01*
X973615Y802087D01*
X973439Y802142D01*
X973227Y802179D01*
X972995Y802189D01*
X972922D01*
X972875Y802179D01*
X972811D01*
X972737Y802170D01*
X972561Y802142D01*
X972367Y802105D01*
X972163Y802041D01*
X971951Y801948D01*
X971757Y801828D01*
X971747D01*
X971738Y801809D01*
X971673Y801763D01*
X971590Y801689D01*
X971488Y801578D01*
X971368Y801440D01*
X971257Y801283D01*
X971156Y801088D01*
X971063Y800876D01*
Y800866D01*
X971054Y800848D01*
X971045Y800820D01*
X971035Y800774D01*
X971017Y800719D01*
X970998Y800654D01*
X970971Y800497D01*
X970934Y800312D01*
X970897Y800108D01*
X970878Y799886D01*
X970869Y799646D01*
Y799637D01*
Y799609D01*
Y799563D01*
Y799507D01*
X970878Y799443D01*
Y799359D01*
X970887Y799267D01*
X970897Y799165D01*
X970924Y798943D01*
X970971Y798703D01*
X971026Y798463D01*
X971100Y798222D01*
Y798213D01*
X971109Y798195D01*
X971128Y798167D01*
X971146Y798120D01*
X971202Y798010D01*
X971285Y797880D01*
X971387Y797732D01*
X971516Y797575D01*
X971664Y797436D01*
X971840Y797307D01*
X971849D01*
X971868Y797298D01*
X971895Y797279D01*
X971932Y797261D01*
X971978Y797242D01*
X972034Y797214D01*
X972163Y797159D01*
X972330Y797104D01*
X972515Y797057D01*
X972718Y797020D01*
X972931Y797011D01*
X972995D01*
X973051Y797020D01*
X973116D01*
X973180Y797029D01*
X973347Y797066D01*
X973541Y797113D01*
X973735Y797187D01*
X973939Y797288D01*
X974040Y797344D01*
X974133Y797418D01*
X974142Y797427D01*
X974151Y797436D01*
X974179Y797464D01*
X974216Y797492D01*
X974253Y797538D01*
X974299Y797594D01*
X974354Y797649D01*
X974401Y797723D01*
X974456Y797806D01*
X974521Y797899D01*
X974576Y797991D01*
X974632Y798102D01*
X974678Y798222D01*
X974724Y798352D01*
X974771Y798490D01*
X974808Y798638D01*
X975658Y798426D01*
Y798416D01*
X975649Y798379D01*
X975630Y798324D01*
X975603Y798250D01*
X975575Y798167D01*
X975538Y798065D01*
X975492Y797954D01*
X975436Y797834D01*
X975307Y797575D01*
X975140Y797316D01*
X975039Y797187D01*
X974937Y797057D01*
X974826Y796946D01*
X974697Y796835D01*
X974687Y796826D01*
X974669Y796808D01*
X974623Y796789D01*
X974576Y796752D01*
X974502Y796706D01*
X974428Y796660D01*
X974327Y796613D01*
X974225Y796567D01*
X974105Y796512D01*
X973976Y796466D01*
X973837Y796419D01*
X973689Y796373D01*
X973532Y796336D01*
X973365Y796318D01*
X973190Y796299D01*
X973005Y796290D01*
X972903D01*
X972829Y796299D01*
X972746D01*
X972644Y796308D01*
X972533Y796327D01*
X972404Y796345D01*
X972136Y796392D01*
X971858Y796466D01*
X971581Y796567D01*
X971451Y796632D01*
X971322Y796706D01*
X971313Y796715D01*
X971294Y796724D01*
X971257Y796752D01*
X971220Y796789D01*
X971165Y796826D01*
X971100Y796882D01*
X971026Y796946D01*
X970952Y797020D01*
X970878Y797104D01*
X970795Y797187D01*
X970629Y797399D01*
X970471Y797649D01*
X970333Y797926D01*
Y797936D01*
X970314Y797963D01*
X970305Y798010D01*
X970277Y798065D01*
X970259Y798139D01*
X970231Y798231D01*
X970194Y798333D01*
X970166Y798444D01*
X970138Y798564D01*
X970102Y798703D01*
X970055Y798990D01*
X970018Y799313D01*
X970000Y799646D01*
Y799655D01*
Y799692D01*
Y799748D01*
X970009Y799812D01*
Y799905D01*
X970018Y799997D01*
X970028Y800118D01*
X970046Y800238D01*
X970092Y800506D01*
X970157Y800802D01*
X970249Y801098D01*
X970379Y801384D01*
X970388Y801393D01*
X970397Y801421D01*
X970416Y801458D01*
X970453Y801504D01*
X970490Y801569D01*
X970536Y801643D01*
X970656Y801809D01*
X970814Y801994D01*
X970998Y802179D01*
X971211Y802364D01*
X971461Y802521D01*
X971470Y802531D01*
X971498Y802540D01*
X971535Y802558D01*
X971581Y802586D01*
X971655Y802614D01*
X971729Y802642D01*
X971821Y802679D01*
X971923Y802716D01*
X972034Y802753D01*
X972154Y802790D01*
X972413Y802845D01*
X972709Y802891D01*
X973014Y802910D01*
X973106D01*
X973171Y802900D01*
D02*
G37*
G36*
X979680Y798657D02*
X980549D01*
Y797936D01*
X979680D01*
Y796401D01*
X978894D01*
Y797936D01*
X976111D01*
Y798657D01*
X979042Y802799D01*
X979680D01*
Y798657D01*
D02*
G37*
G36*
X490773Y822098D02*
X490792Y822079D01*
X490829Y822042D01*
X490884Y822005D01*
X490949Y821950D01*
X491023Y821876D01*
X491115Y821802D01*
X491226Y821719D01*
X491337Y821635D01*
X491466Y821534D01*
X491614Y821432D01*
X491762Y821330D01*
X491929Y821219D01*
X492104Y821108D01*
X492299Y820997D01*
X492493Y820886D01*
X492502Y820877D01*
X492539Y820859D01*
X492594Y820831D01*
X492678Y820785D01*
X492779Y820739D01*
X492890Y820683D01*
X493020Y820618D01*
X493168Y820554D01*
X493334Y820480D01*
X493501Y820396D01*
X493685Y820322D01*
X493880Y820248D01*
X494277Y820100D01*
X494702Y819962D01*
X494712D01*
X494739Y819953D01*
X494786Y819943D01*
X494841Y819925D01*
X494915Y819906D01*
X495008Y819888D01*
X495109Y819860D01*
X495220Y819842D01*
X495350Y819814D01*
X495488Y819786D01*
X495784Y819740D01*
X496108Y819694D01*
X496459Y819666D01*
Y818862D01*
X496450D01*
X496422D01*
X496385D01*
X496330Y818871D01*
X496256D01*
X496163Y818880D01*
X496062Y818889D01*
X495951Y818899D01*
X495821Y818917D01*
X495692Y818936D01*
X495535Y818963D01*
X495377Y818991D01*
X495211Y819019D01*
X495026Y819056D01*
X494647Y819148D01*
X494638D01*
X494601Y819157D01*
X494545Y819176D01*
X494462Y819204D01*
X494370Y819231D01*
X494259Y819268D01*
X494129Y819305D01*
X493991Y819361D01*
X493833Y819416D01*
X493676Y819472D01*
X493325Y819611D01*
X492955Y819777D01*
X492585Y819962D01*
X492576Y819971D01*
X492539Y819990D01*
X492493Y820017D01*
X492419Y820054D01*
X492336Y820100D01*
X492234Y820165D01*
X492123Y820230D01*
X492003Y820304D01*
X491735Y820480D01*
X491457Y820665D01*
X491171Y820877D01*
X490902Y821099D01*
Y817965D01*
X490144D01*
Y822107D01*
X490764D01*
X490773Y822098D01*
D02*
G37*
G36*
X494481Y817179D02*
X494536Y817160D01*
X494610Y817133D01*
X494693Y817105D01*
X494795Y817068D01*
X494906Y817022D01*
X495026Y816966D01*
X495285Y816837D01*
X495544Y816670D01*
X495673Y816569D01*
X495803Y816467D01*
X495914Y816356D01*
X496025Y816227D01*
X496034Y816217D01*
X496052Y816199D01*
X496071Y816153D01*
X496108Y816106D01*
X496154Y816032D01*
X496200Y815958D01*
X496246Y815857D01*
X496293Y815755D01*
X496348Y815635D01*
X496394Y815506D01*
X496441Y815367D01*
X496487Y815219D01*
X496524Y815062D01*
X496542Y814895D01*
X496561Y814720D01*
X496570Y814535D01*
Y814433D01*
X496561Y814359D01*
Y814276D01*
X496552Y814174D01*
X496533Y814063D01*
X496515Y813934D01*
X496468Y813666D01*
X496394Y813388D01*
X496293Y813111D01*
X496228Y812981D01*
X496154Y812852D01*
X496145Y812843D01*
X496135Y812824D01*
X496108Y812787D01*
X496071Y812750D01*
X496034Y812695D01*
X495978Y812630D01*
X495914Y812556D01*
X495840Y812482D01*
X495756Y812408D01*
X495673Y812325D01*
X495461Y812159D01*
X495211Y812001D01*
X494934Y811863D01*
X494924D01*
X494897Y811844D01*
X494850Y811835D01*
X494795Y811807D01*
X494721Y811789D01*
X494628Y811761D01*
X494527Y811724D01*
X494416Y811696D01*
X494296Y811669D01*
X494157Y811632D01*
X493870Y811585D01*
X493547Y811548D01*
X493214Y811530D01*
X493205D01*
X493168D01*
X493112D01*
X493047Y811539D01*
X492955D01*
X492863Y811548D01*
X492742Y811558D01*
X492622Y811576D01*
X492354Y811622D01*
X492058Y811687D01*
X491762Y811779D01*
X491476Y811909D01*
X491466Y811918D01*
X491439Y811927D01*
X491402Y811946D01*
X491356Y811983D01*
X491291Y812020D01*
X491217Y812066D01*
X491050Y812186D01*
X490866Y812344D01*
X490681Y812528D01*
X490496Y812741D01*
X490339Y812991D01*
X490329Y813000D01*
X490320Y813028D01*
X490302Y813065D01*
X490274Y813111D01*
X490246Y813185D01*
X490218Y813259D01*
X490181Y813351D01*
X490144Y813453D01*
X490107Y813564D01*
X490070Y813684D01*
X490015Y813943D01*
X489969Y814239D01*
X489950Y814544D01*
Y814636D01*
X489959Y814701D01*
X489969Y814784D01*
X489978Y814886D01*
X489987Y814988D01*
X490015Y815108D01*
X490070Y815358D01*
X490154Y815635D01*
X490209Y815774D01*
X490274Y815903D01*
X490357Y816032D01*
X490440Y816162D01*
X490449Y816171D01*
X490459Y816190D01*
X490486Y816227D01*
X490533Y816273D01*
X490579Y816319D01*
X490644Y816384D01*
X490718Y816449D01*
X490792Y816523D01*
X490884Y816597D01*
X490995Y816670D01*
X491106Y816754D01*
X491226Y816828D01*
X491365Y816892D01*
X491503Y816966D01*
X491651Y817022D01*
X491818Y817077D01*
X492012Y816245D01*
X492003D01*
X491984Y816236D01*
X491947Y816217D01*
X491901Y816199D01*
X491846Y816180D01*
X491772Y816153D01*
X491624Y816079D01*
X491457Y815986D01*
X491291Y815875D01*
X491134Y815737D01*
X490995Y815589D01*
X490976Y815570D01*
X490939Y815515D01*
X490893Y815422D01*
X490829Y815302D01*
X490773Y815145D01*
X490718Y814969D01*
X490681Y814757D01*
X490671Y814525D01*
Y814452D01*
X490681Y814405D01*
Y814341D01*
X490690Y814267D01*
X490718Y814091D01*
X490755Y813897D01*
X490819Y813693D01*
X490912Y813481D01*
X491032Y813287D01*
Y813277D01*
X491050Y813268D01*
X491097Y813203D01*
X491171Y813120D01*
X491282Y813018D01*
X491420Y812898D01*
X491577Y812787D01*
X491772Y812686D01*
X491984Y812593D01*
X491993D01*
X492012Y812584D01*
X492040Y812575D01*
X492086Y812565D01*
X492141Y812547D01*
X492206Y812528D01*
X492363Y812501D01*
X492548Y812464D01*
X492752Y812427D01*
X492974Y812408D01*
X493214Y812399D01*
X493223D01*
X493251D01*
X493297D01*
X493353D01*
X493417Y812408D01*
X493501D01*
X493593Y812418D01*
X493695Y812427D01*
X493917Y812454D01*
X494157Y812501D01*
X494397Y812556D01*
X494638Y812630D01*
X494647D01*
X494665Y812639D01*
X494693Y812658D01*
X494739Y812676D01*
X494850Y812732D01*
X494980Y812815D01*
X495128Y812917D01*
X495285Y813046D01*
X495424Y813194D01*
X495553Y813370D01*
Y813379D01*
X495562Y813398D01*
X495581Y813425D01*
X495599Y813462D01*
X495618Y813508D01*
X495645Y813564D01*
X495701Y813693D01*
X495756Y813860D01*
X495803Y814045D01*
X495840Y814248D01*
X495849Y814461D01*
Y814525D01*
X495840Y814581D01*
Y814646D01*
X495830Y814710D01*
X495793Y814877D01*
X495747Y815071D01*
X495673Y815265D01*
X495572Y815469D01*
X495516Y815570D01*
X495442Y815663D01*
X495433Y815672D01*
X495424Y815681D01*
X495396Y815709D01*
X495368Y815746D01*
X495322Y815783D01*
X495266Y815829D01*
X495211Y815885D01*
X495137Y815931D01*
X495054Y815986D01*
X494961Y816051D01*
X494869Y816106D01*
X494758Y816162D01*
X494638Y816208D01*
X494508Y816254D01*
X494370Y816301D01*
X494222Y816338D01*
X494434Y817188D01*
X494444D01*
X494481Y817179D01*
D02*
G37*
G36*
X377705Y820828D02*
X377761D01*
X377909Y820800D01*
X378084Y820772D01*
X378269Y820726D01*
X378473Y820661D01*
X378667Y820569D01*
X378676D01*
X378685Y820559D01*
X378713Y820541D01*
X378750Y820523D01*
X378843Y820467D01*
X378963Y820384D01*
X379092Y820282D01*
X379222Y820162D01*
X379351Y820014D01*
X379462Y819857D01*
Y819848D01*
X379471Y819838D01*
X379490Y819811D01*
X379499Y819774D01*
X379545Y819681D01*
X379591Y819561D01*
X379647Y819404D01*
X379684Y819228D01*
X379721Y819034D01*
X379730Y818821D01*
Y818775D01*
X379721Y818729D01*
Y818655D01*
X379712Y818572D01*
X379693Y818479D01*
X379665Y818368D01*
X379638Y818257D01*
X379601Y818128D01*
X379554Y817998D01*
X379499Y817869D01*
X379425Y817730D01*
X379342Y817601D01*
X379249Y817471D01*
X379138Y817342D01*
X379009Y817222D01*
X379000Y817213D01*
X378972Y817194D01*
X378935Y817166D01*
X378870Y817129D01*
X378787Y817074D01*
X378695Y817028D01*
X378574Y816972D01*
X378445Y816917D01*
X378288Y816852D01*
X378112Y816796D01*
X377918Y816750D01*
X377705Y816704D01*
X377465Y816658D01*
X377206Y816630D01*
X376929Y816612D01*
X376633Y816602D01*
X376624D01*
X376614D01*
X376587D01*
X376550D01*
X376457Y816612D01*
X376328D01*
X376180Y816621D01*
X376004Y816639D01*
X375810Y816658D01*
X375597Y816686D01*
X375385Y816722D01*
X375154Y816769D01*
X374932Y816824D01*
X374710Y816889D01*
X374497Y816972D01*
X374294Y817065D01*
X374100Y817166D01*
X373933Y817287D01*
X373924Y817296D01*
X373905Y817314D01*
X373868Y817351D01*
X373813Y817398D01*
X373757Y817453D01*
X373702Y817527D01*
X373628Y817619D01*
X373563Y817712D01*
X373498Y817823D01*
X373425Y817943D01*
X373369Y818082D01*
X373304Y818220D01*
X373258Y818378D01*
X373221Y818544D01*
X373203Y818720D01*
X373193Y818904D01*
Y818979D01*
X373203Y819034D01*
Y819099D01*
X373212Y819173D01*
X373249Y819348D01*
X373295Y819542D01*
X373369Y819746D01*
X373480Y819949D01*
X373545Y820051D01*
X373619Y820143D01*
X373628Y820153D01*
X373637Y820162D01*
X373665Y820190D01*
X373693Y820217D01*
X373739Y820264D01*
X373794Y820301D01*
X373924Y820402D01*
X374090Y820504D01*
X374294Y820596D01*
X374525Y820680D01*
X374784Y820735D01*
X374848Y819949D01*
X374839D01*
X374830Y819940D01*
X374774Y819931D01*
X374691Y819903D01*
X374590Y819866D01*
X374479Y819829D01*
X374368Y819774D01*
X374266Y819709D01*
X374183Y819644D01*
X374164Y819626D01*
X374127Y819589D01*
X374072Y819524D01*
X374007Y819432D01*
X373952Y819311D01*
X373896Y819182D01*
X373859Y819025D01*
X373841Y818858D01*
Y818794D01*
X373850Y818720D01*
X373868Y818636D01*
X373896Y818525D01*
X373933Y818415D01*
X373979Y818304D01*
X374053Y818193D01*
X374062Y818174D01*
X374100Y818128D01*
X374164Y818063D01*
X374257Y817980D01*
X374368Y817887D01*
X374497Y817786D01*
X374664Y817693D01*
X374848Y817601D01*
X374858D01*
X374876Y817592D01*
X374904Y817582D01*
X374941Y817564D01*
X374996Y817555D01*
X375061Y817536D01*
X375135Y817518D01*
X375228Y817499D01*
X375329Y817471D01*
X375440Y817453D01*
X375560Y817434D01*
X375690Y817425D01*
X375838Y817407D01*
X375986Y817398D01*
X376152Y817388D01*
X376318D01*
X376309Y817398D01*
X376254Y817434D01*
X376180Y817499D01*
X376087Y817582D01*
X375976Y817675D01*
X375875Y817795D01*
X375773Y817924D01*
X375681Y818072D01*
Y818082D01*
X375671Y818091D01*
X375644Y818146D01*
X375616Y818230D01*
X375570Y818341D01*
X375533Y818470D01*
X375505Y818618D01*
X375477Y818775D01*
X375468Y818941D01*
Y819016D01*
X375477Y819071D01*
X375486Y819145D01*
X375496Y819219D01*
X375514Y819311D01*
X375542Y819404D01*
X375606Y819616D01*
X375653Y819727D01*
X375718Y819838D01*
X375782Y819949D01*
X375856Y820070D01*
X375949Y820180D01*
X376050Y820282D01*
X376060Y820291D01*
X376078Y820310D01*
X376106Y820338D01*
X376152Y820365D01*
X376217Y820412D01*
X376282Y820458D01*
X376365Y820504D01*
X376457Y820559D01*
X376559Y820615D01*
X376670Y820661D01*
X376799Y820707D01*
X376929Y820754D01*
X377067Y820781D01*
X377225Y820809D01*
X377382Y820828D01*
X377548Y820837D01*
X377557D01*
X377576D01*
X377604D01*
X377650D01*
X377705Y820828D01*
D02*
G37*
G36*
X377641Y815909D02*
X377696Y815890D01*
X377770Y815863D01*
X377853Y815835D01*
X377955Y815798D01*
X378066Y815752D01*
X378186Y815696D01*
X378445Y815567D01*
X378704Y815400D01*
X378833Y815299D01*
X378963Y815197D01*
X379074Y815086D01*
X379185Y814957D01*
X379194Y814947D01*
X379212Y814929D01*
X379231Y814883D01*
X379268Y814836D01*
X379314Y814762D01*
X379360Y814688D01*
X379407Y814587D01*
X379453Y814485D01*
X379508Y814365D01*
X379554Y814236D01*
X379601Y814097D01*
X379647Y813949D01*
X379684Y813792D01*
X379702Y813625D01*
X379721Y813450D01*
X379730Y813265D01*
Y813163D01*
X379721Y813089D01*
Y813006D01*
X379712Y812904D01*
X379693Y812793D01*
X379675Y812664D01*
X379628Y812396D01*
X379554Y812118D01*
X379453Y811841D01*
X379388Y811711D01*
X379314Y811582D01*
X379305Y811573D01*
X379296Y811554D01*
X379268Y811517D01*
X379231Y811480D01*
X379194Y811425D01*
X379138Y811360D01*
X379074Y811286D01*
X379000Y811212D01*
X378917Y811138D01*
X378833Y811055D01*
X378621Y810889D01*
X378371Y810731D01*
X378094Y810593D01*
X378084D01*
X378057Y810574D01*
X378010Y810565D01*
X377955Y810537D01*
X377881Y810519D01*
X377789Y810491D01*
X377687Y810454D01*
X377576Y810426D01*
X377456Y810399D01*
X377317Y810362D01*
X377030Y810315D01*
X376707Y810278D01*
X376374Y810260D01*
X376365D01*
X376328D01*
X376272D01*
X376208Y810269D01*
X376115D01*
X376023Y810278D01*
X375902Y810288D01*
X375782Y810306D01*
X375514Y810352D01*
X375218Y810417D01*
X374922Y810509D01*
X374636Y810639D01*
X374627Y810648D01*
X374599Y810657D01*
X374562Y810676D01*
X374516Y810713D01*
X374451Y810750D01*
X374377Y810796D01*
X374211Y810916D01*
X374025Y811074D01*
X373841Y811258D01*
X373656Y811471D01*
X373498Y811721D01*
X373489Y811730D01*
X373480Y811758D01*
X373462Y811795D01*
X373434Y811841D01*
X373406Y811915D01*
X373378Y811989D01*
X373341Y812081D01*
X373304Y812183D01*
X373267Y812294D01*
X373230Y812414D01*
X373175Y812673D01*
X373129Y812969D01*
X373110Y813274D01*
Y813366D01*
X373120Y813431D01*
X373129Y813514D01*
X373138Y813616D01*
X373147Y813718D01*
X373175Y813838D01*
X373230Y814088D01*
X373314Y814365D01*
X373369Y814504D01*
X373434Y814633D01*
X373517Y814762D01*
X373600Y814892D01*
X373610Y814901D01*
X373619Y814920D01*
X373647Y814957D01*
X373693Y815003D01*
X373739Y815049D01*
X373804Y815114D01*
X373878Y815179D01*
X373952Y815253D01*
X374044Y815327D01*
X374155Y815400D01*
X374266Y815484D01*
X374386Y815558D01*
X374525Y815622D01*
X374664Y815696D01*
X374811Y815752D01*
X374978Y815807D01*
X375172Y814975D01*
X375163D01*
X375144Y814966D01*
X375107Y814947D01*
X375061Y814929D01*
X375006Y814910D01*
X374932Y814883D01*
X374784Y814809D01*
X374617Y814716D01*
X374451Y814605D01*
X374294Y814467D01*
X374155Y814319D01*
X374137Y814300D01*
X374100Y814245D01*
X374053Y814152D01*
X373989Y814032D01*
X373933Y813875D01*
X373878Y813699D01*
X373841Y813487D01*
X373831Y813255D01*
Y813182D01*
X373841Y813135D01*
Y813071D01*
X373850Y812997D01*
X373878Y812821D01*
X373915Y812627D01*
X373979Y812423D01*
X374072Y812211D01*
X374192Y812017D01*
Y812007D01*
X374211Y811998D01*
X374257Y811933D01*
X374331Y811850D01*
X374442Y811748D01*
X374580Y811628D01*
X374738Y811517D01*
X374932Y811416D01*
X375144Y811323D01*
X375154D01*
X375172Y811314D01*
X375200Y811305D01*
X375246Y811295D01*
X375301Y811277D01*
X375366Y811258D01*
X375523Y811231D01*
X375708Y811194D01*
X375912Y811157D01*
X376133Y811138D01*
X376374Y811129D01*
X376383D01*
X376411D01*
X376457D01*
X376513D01*
X376577Y811138D01*
X376660D01*
X376753Y811148D01*
X376855Y811157D01*
X377077Y811184D01*
X377317Y811231D01*
X377557Y811286D01*
X377798Y811360D01*
X377807D01*
X377826Y811369D01*
X377853Y811388D01*
X377899Y811406D01*
X378010Y811462D01*
X378140Y811545D01*
X378288Y811647D01*
X378445Y811776D01*
X378584Y811924D01*
X378713Y812100D01*
Y812109D01*
X378722Y812128D01*
X378741Y812155D01*
X378759Y812192D01*
X378778Y812238D01*
X378806Y812294D01*
X378861Y812423D01*
X378917Y812590D01*
X378963Y812775D01*
X379000Y812978D01*
X379009Y813191D01*
Y813255D01*
X379000Y813311D01*
Y813376D01*
X378990Y813440D01*
X378953Y813607D01*
X378907Y813801D01*
X378833Y813995D01*
X378732Y814199D01*
X378676Y814300D01*
X378602Y814393D01*
X378593Y814402D01*
X378584Y814411D01*
X378556Y814439D01*
X378528Y814476D01*
X378482Y814513D01*
X378426Y814559D01*
X378371Y814615D01*
X378297Y814661D01*
X378214Y814716D01*
X378121Y814781D01*
X378029Y814836D01*
X377918Y814892D01*
X377798Y814938D01*
X377668Y814984D01*
X377530Y815031D01*
X377382Y815068D01*
X377594Y815918D01*
X377604D01*
X377641Y815909D01*
D02*
G37*
G36*
X960735Y698491D02*
X960809Y698482D01*
X960892Y698472D01*
X960985Y698454D01*
X961087Y698435D01*
X961309Y698380D01*
X961540Y698287D01*
X961660Y698232D01*
X961771Y698167D01*
X961882Y698084D01*
X961993Y698001D01*
X962002Y697992D01*
X962020Y697973D01*
X962048Y697945D01*
X962076Y697908D01*
X962122Y697862D01*
X962168Y697797D01*
X962224Y697733D01*
X962279Y697650D01*
X962335Y697557D01*
X962390Y697465D01*
X962492Y697243D01*
X962575Y696984D01*
X962603Y696845D01*
X962621Y696697D01*
X961835Y696596D01*
Y696605D01*
X961826Y696623D01*
X961817Y696660D01*
X961808Y696706D01*
X961798Y696762D01*
X961780Y696827D01*
X961734Y696965D01*
X961669Y697132D01*
X961586Y697289D01*
X961493Y697437D01*
X961383Y697566D01*
X961364Y697576D01*
X961327Y697613D01*
X961253Y697659D01*
X961161Y697705D01*
X961050Y697760D01*
X960911Y697807D01*
X960754Y697844D01*
X960587Y697853D01*
X960532D01*
X960495Y697844D01*
X960393Y697834D01*
X960264Y697807D01*
X960116Y697760D01*
X959959Y697696D01*
X959801Y697603D01*
X959653Y697474D01*
X959635Y697455D01*
X959589Y697400D01*
X959533Y697317D01*
X959459Y697206D01*
X959385Y697067D01*
X959330Y696910D01*
X959284Y696725D01*
X959265Y696522D01*
Y696512D01*
Y696494D01*
Y696466D01*
X959275Y696429D01*
X959284Y696327D01*
X959311Y696207D01*
X959348Y696059D01*
X959413Y695911D01*
X959506Y695763D01*
X959626Y695625D01*
X959644Y695606D01*
X959690Y695569D01*
X959764Y695514D01*
X959866Y695449D01*
X959996Y695384D01*
X960153Y695329D01*
X960329Y695292D01*
X960523Y695273D01*
X960606D01*
X960670Y695283D01*
X960754Y695292D01*
X960846Y695310D01*
X960957Y695329D01*
X961077Y695357D01*
X960985Y694663D01*
X960939D01*
X960902Y694672D01*
X960781D01*
X960680Y694654D01*
X960560Y694635D01*
X960421Y694608D01*
X960264Y694561D01*
X960116Y694497D01*
X959959Y694414D01*
X959949D01*
X959940Y694404D01*
X959894Y694367D01*
X959829Y694303D01*
X959755Y694219D01*
X959681Y694099D01*
X959616Y693960D01*
X959570Y693803D01*
X959552Y693711D01*
Y693609D01*
Y693600D01*
Y693591D01*
Y693535D01*
X959570Y693461D01*
X959589Y693360D01*
X959626Y693249D01*
X959672Y693128D01*
X959746Y693008D01*
X959848Y692897D01*
X959857Y692888D01*
X959903Y692851D01*
X959968Y692805D01*
X960051Y692749D01*
X960162Y692703D01*
X960292Y692657D01*
X960439Y692620D01*
X960606Y692611D01*
X960680D01*
X960763Y692629D01*
X960874Y692648D01*
X960994Y692685D01*
X961114Y692731D01*
X961244Y692805D01*
X961364Y692897D01*
X961373Y692906D01*
X961410Y692953D01*
X961466Y693017D01*
X961530Y693110D01*
X961595Y693230D01*
X961660Y693378D01*
X961715Y693554D01*
X961752Y693757D01*
X962538Y693618D01*
Y693609D01*
X962529Y693581D01*
X962520Y693544D01*
X962510Y693489D01*
X962492Y693424D01*
X962464Y693350D01*
X962409Y693175D01*
X962316Y692971D01*
X962205Y692768D01*
X962067Y692574D01*
X961891Y692398D01*
X961882Y692389D01*
X961863Y692380D01*
X961835Y692361D01*
X961798Y692333D01*
X961752Y692296D01*
X961688Y692259D01*
X961623Y692222D01*
X961540Y692176D01*
X961355Y692102D01*
X961142Y692028D01*
X960892Y691982D01*
X960763Y691963D01*
X960532D01*
X960430Y691973D01*
X960310Y691991D01*
X960162Y692019D01*
X959996Y692065D01*
X959829Y692121D01*
X959663Y692195D01*
X959653D01*
X959644Y692204D01*
X959589Y692232D01*
X959506Y692287D01*
X959413Y692352D01*
X959302Y692444D01*
X959191Y692546D01*
X959080Y692666D01*
X958988Y692805D01*
X958979Y692823D01*
X958951Y692869D01*
X958914Y692953D01*
X958868Y693054D01*
X958821Y693175D01*
X958784Y693313D01*
X958757Y693471D01*
X958747Y693628D01*
Y693646D01*
Y693702D01*
X958757Y693776D01*
X958775Y693877D01*
X958803Y693997D01*
X958849Y694127D01*
X958905Y694256D01*
X958979Y694386D01*
X958988Y694404D01*
X959016Y694441D01*
X959071Y694506D01*
X959145Y694580D01*
X959238Y694663D01*
X959348Y694756D01*
X959478Y694839D01*
X959635Y694922D01*
X959626D01*
X959607Y694931D01*
X959580Y694940D01*
X959543Y694950D01*
X959441Y694987D01*
X959311Y695042D01*
X959164Y695116D01*
X959016Y695209D01*
X958877Y695329D01*
X958747Y695468D01*
X958738Y695486D01*
X958701Y695542D01*
X958646Y695634D01*
X958590Y695754D01*
X958535Y695902D01*
X958479Y696078D01*
X958442Y696281D01*
X958433Y696503D01*
Y696512D01*
Y696540D01*
Y696586D01*
X958442Y696642D01*
X958452Y696716D01*
X958470Y696799D01*
X958489Y696891D01*
X958507Y696993D01*
X958581Y697215D01*
X958636Y697335D01*
X958692Y697446D01*
X958766Y697566D01*
X958849Y697686D01*
X958942Y697807D01*
X959053Y697918D01*
X959062Y697927D01*
X959080Y697945D01*
X959117Y697973D01*
X959164Y698010D01*
X959219Y698056D01*
X959293Y698102D01*
X959376Y698158D01*
X959478Y698204D01*
X959580Y698260D01*
X959700Y698315D01*
X959820Y698361D01*
X959959Y698408D01*
X960107Y698445D01*
X960264Y698472D01*
X960421Y698491D01*
X960597Y698500D01*
X960680D01*
X960735Y698491D01*
D02*
G37*
G36*
X966181D02*
X966264D01*
X966366Y698482D01*
X966477Y698463D01*
X966606Y698445D01*
X966874Y698398D01*
X967152Y698324D01*
X967429Y698223D01*
X967559Y698158D01*
X967688Y698084D01*
X967697Y698075D01*
X967716Y698065D01*
X967753Y698038D01*
X967790Y698001D01*
X967845Y697964D01*
X967910Y697908D01*
X967984Y697844D01*
X968058Y697770D01*
X968132Y697686D01*
X968215Y697603D01*
X968381Y697391D01*
X968539Y697141D01*
X968677Y696864D01*
Y696854D01*
X968696Y696827D01*
X968705Y696780D01*
X968733Y696725D01*
X968751Y696651D01*
X968779Y696559D01*
X968816Y696457D01*
X968844Y696346D01*
X968871Y696226D01*
X968908Y696087D01*
X968955Y695800D01*
X968992Y695477D01*
X969010Y695144D01*
Y695135D01*
Y695098D01*
Y695042D01*
X969001Y694977D01*
Y694885D01*
X968992Y694793D01*
X968982Y694672D01*
X968964Y694552D01*
X968918Y694284D01*
X968853Y693988D01*
X968760Y693692D01*
X968631Y693406D01*
X968622Y693397D01*
X968613Y693369D01*
X968594Y693332D01*
X968557Y693286D01*
X968520Y693221D01*
X968474Y693147D01*
X968354Y692980D01*
X968196Y692795D01*
X968012Y692611D01*
X967799Y692426D01*
X967549Y692269D01*
X967540Y692259D01*
X967512Y692250D01*
X967475Y692232D01*
X967429Y692204D01*
X967355Y692176D01*
X967281Y692148D01*
X967189Y692111D01*
X967087Y692074D01*
X966976Y692037D01*
X966856Y692000D01*
X966597Y691945D01*
X966301Y691899D01*
X965996Y691880D01*
X965904D01*
X965839Y691889D01*
X965756Y691899D01*
X965654Y691908D01*
X965552Y691917D01*
X965432Y691945D01*
X965182Y692000D01*
X964905Y692084D01*
X964766Y692139D01*
X964637Y692204D01*
X964508Y692287D01*
X964378Y692370D01*
X964369Y692380D01*
X964350Y692389D01*
X964313Y692417D01*
X964267Y692463D01*
X964221Y692509D01*
X964156Y692574D01*
X964091Y692648D01*
X964017Y692722D01*
X963943Y692814D01*
X963869Y692925D01*
X963786Y693036D01*
X963712Y693156D01*
X963648Y693295D01*
X963574Y693434D01*
X963518Y693581D01*
X963463Y693748D01*
X964295Y693942D01*
Y693933D01*
X964304Y693914D01*
X964323Y693877D01*
X964341Y693831D01*
X964360Y693776D01*
X964387Y693702D01*
X964461Y693554D01*
X964554Y693387D01*
X964665Y693221D01*
X964803Y693064D01*
X964951Y692925D01*
X964970Y692906D01*
X965025Y692869D01*
X965118Y692823D01*
X965238Y692759D01*
X965395Y692703D01*
X965571Y692648D01*
X965783Y692611D01*
X966014Y692601D01*
X966088D01*
X966135Y692611D01*
X966199D01*
X966273Y692620D01*
X966449Y692648D01*
X966643Y692685D01*
X966847Y692749D01*
X967059Y692842D01*
X967253Y692962D01*
X967263D01*
X967272Y692980D01*
X967337Y693027D01*
X967420Y693101D01*
X967522Y693212D01*
X967642Y693350D01*
X967753Y693508D01*
X967854Y693702D01*
X967947Y693914D01*
Y693923D01*
X967956Y693942D01*
X967965Y693970D01*
X967975Y694016D01*
X967993Y694071D01*
X968012Y694136D01*
X968039Y694293D01*
X968076Y694478D01*
X968113Y694682D01*
X968132Y694903D01*
X968141Y695144D01*
Y695153D01*
Y695181D01*
Y695227D01*
Y695283D01*
X968132Y695347D01*
Y695431D01*
X968122Y695523D01*
X968113Y695625D01*
X968085Y695847D01*
X968039Y696087D01*
X967984Y696327D01*
X967910Y696568D01*
Y696577D01*
X967901Y696596D01*
X967882Y696623D01*
X967864Y696669D01*
X967808Y696780D01*
X967725Y696910D01*
X967623Y697058D01*
X967494Y697215D01*
X967346Y697354D01*
X967170Y697483D01*
X967161D01*
X967142Y697492D01*
X967115Y697511D01*
X967078Y697529D01*
X967031Y697548D01*
X966976Y697576D01*
X966847Y697631D01*
X966680Y697686D01*
X966495Y697733D01*
X966292Y697770D01*
X966079Y697779D01*
X966014D01*
X965959Y697770D01*
X965894D01*
X965830Y697760D01*
X965663Y697723D01*
X965469Y697677D01*
X965275Y697603D01*
X965071Y697502D01*
X964970Y697446D01*
X964877Y697372D01*
X964868Y697363D01*
X964859Y697354D01*
X964831Y697326D01*
X964794Y697298D01*
X964757Y697252D01*
X964711Y697196D01*
X964655Y697141D01*
X964609Y697067D01*
X964554Y696984D01*
X964489Y696891D01*
X964434Y696799D01*
X964378Y696688D01*
X964332Y696568D01*
X964286Y696438D01*
X964239Y696300D01*
X964202Y696152D01*
X963352Y696364D01*
Y696374D01*
X963361Y696411D01*
X963380Y696466D01*
X963407Y696540D01*
X963435Y696623D01*
X963472Y696725D01*
X963518Y696836D01*
X963574Y696956D01*
X963703Y697215D01*
X963869Y697474D01*
X963971Y697603D01*
X964073Y697733D01*
X964184Y697844D01*
X964313Y697955D01*
X964323Y697964D01*
X964341Y697982D01*
X964387Y698001D01*
X964434Y698038D01*
X964508Y698084D01*
X964581Y698130D01*
X964683Y698176D01*
X964785Y698223D01*
X964905Y698278D01*
X965034Y698324D01*
X965173Y698371D01*
X965321Y698417D01*
X965478Y698454D01*
X965645Y698472D01*
X965820Y698491D01*
X966005Y698500D01*
X966107D01*
X966181Y698491D01*
D02*
G37*
G36*
X741680Y847654D02*
X738712D01*
X738638Y847664D01*
X738555D01*
X738361Y847673D01*
X738157Y847701D01*
X737935Y847729D01*
X737732Y847775D01*
X737630Y847802D01*
X737547Y847830D01*
X737538D01*
X737529Y847839D01*
X737473Y847867D01*
X737390Y847904D01*
X737288Y847969D01*
X737177Y848052D01*
X737057Y848163D01*
X736946Y848292D01*
X736835Y848440D01*
Y848450D01*
X736826Y848459D01*
X736789Y848514D01*
X736752Y848607D01*
X736697Y848727D01*
X736650Y848866D01*
X736604Y849032D01*
X736576Y849208D01*
X736567Y849402D01*
Y849411D01*
Y849430D01*
Y849467D01*
X736576Y849513D01*
Y849578D01*
X736586Y849642D01*
X736623Y849799D01*
X736678Y849984D01*
X736752Y850179D01*
X736863Y850373D01*
X736937Y850465D01*
X737011Y850558D01*
X737020Y850567D01*
X737029Y850576D01*
X737057Y850604D01*
X737094Y850632D01*
X737140Y850669D01*
X737196Y850705D01*
X737270Y850752D01*
X737344Y850807D01*
X737436Y850854D01*
X737538Y850900D01*
X737649Y850955D01*
X737769Y851001D01*
X737908Y851038D01*
X738046Y851085D01*
X738204Y851112D01*
X738370Y851140D01*
X738352Y851149D01*
X738315Y851168D01*
X738259Y851205D01*
X738185Y851242D01*
X738019Y851344D01*
X737935Y851408D01*
X737862Y851464D01*
X737843Y851482D01*
X737797Y851528D01*
X737723Y851602D01*
X737630Y851695D01*
X737529Y851824D01*
X737409Y851963D01*
X737288Y852129D01*
X737159Y852314D01*
X736059Y854052D01*
X737113D01*
X737954Y852721D01*
Y852712D01*
X737972Y852693D01*
X737991Y852666D01*
X738019Y852629D01*
X738083Y852527D01*
X738167Y852398D01*
X738268Y852259D01*
X738370Y852111D01*
X738472Y851972D01*
X738564Y851843D01*
X738574Y851833D01*
X738601Y851796D01*
X738647Y851741D01*
X738712Y851676D01*
X738851Y851538D01*
X738925Y851473D01*
X738999Y851417D01*
X739008Y851408D01*
X739026Y851399D01*
X739063Y851380D01*
X739119Y851353D01*
X739174Y851325D01*
X739239Y851297D01*
X739387Y851251D01*
X739396D01*
X739415Y851242D01*
X739452D01*
X739498Y851233D01*
X739563Y851223D01*
X739637D01*
X739738Y851214D01*
X740829D01*
Y854052D01*
X741680D01*
Y847654D01*
D02*
G37*
G36*
X733387Y849051D02*
X733396Y849060D01*
X733442Y849097D01*
X733498Y849152D01*
X733590Y849217D01*
X733692Y849300D01*
X733821Y849393D01*
X733969Y849494D01*
X734136Y849596D01*
X734145D01*
X734154Y849605D01*
X734210Y849642D01*
X734302Y849688D01*
X734413Y849744D01*
X734542Y849809D01*
X734681Y849873D01*
X734820Y849938D01*
X734958Y849994D01*
Y849236D01*
X734949D01*
X734931Y849217D01*
X734894Y849208D01*
X734847Y849180D01*
X734792Y849152D01*
X734727Y849115D01*
X734570Y849023D01*
X734385Y848921D01*
X734200Y848792D01*
X734006Y848644D01*
X733812Y848487D01*
X733803Y848477D01*
X733793Y848468D01*
X733766Y848440D01*
X733729Y848413D01*
X733646Y848320D01*
X733535Y848209D01*
X733424Y848080D01*
X733304Y847932D01*
X733202Y847784D01*
X733109Y847627D01*
X732601D01*
Y854052D01*
X733387D01*
Y849051D01*
D02*
G37*
G36*
X858511Y699761D02*
X858594D01*
X858696Y699752D01*
X858807Y699733D01*
X858936Y699715D01*
X859204Y699668D01*
X859482Y699594D01*
X859759Y699493D01*
X859889Y699428D01*
X860018Y699354D01*
X860027Y699345D01*
X860046Y699335D01*
X860083Y699308D01*
X860120Y699271D01*
X860175Y699234D01*
X860240Y699178D01*
X860314Y699114D01*
X860388Y699040D01*
X860462Y698957D01*
X860545Y698873D01*
X860711Y698661D01*
X860869Y698411D01*
X861007Y698134D01*
Y698124D01*
X861026Y698097D01*
X861035Y698050D01*
X861063Y697995D01*
X861081Y697921D01*
X861109Y697829D01*
X861146Y697727D01*
X861174Y697616D01*
X861201Y697496D01*
X861238Y697357D01*
X861285Y697070D01*
X861322Y696747D01*
X861340Y696414D01*
Y696405D01*
Y696368D01*
Y696312D01*
X861331Y696247D01*
Y696155D01*
X861322Y696063D01*
X861312Y695942D01*
X861294Y695822D01*
X861248Y695554D01*
X861183Y695258D01*
X861090Y694962D01*
X860961Y694676D01*
X860952Y694667D01*
X860943Y694639D01*
X860924Y694602D01*
X860887Y694556D01*
X860850Y694491D01*
X860804Y694417D01*
X860684Y694250D01*
X860527Y694065D01*
X860342Y693881D01*
X860129Y693696D01*
X859879Y693539D01*
X859870Y693529D01*
X859842Y693520D01*
X859805Y693502D01*
X859759Y693474D01*
X859685Y693446D01*
X859611Y693418D01*
X859519Y693381D01*
X859417Y693344D01*
X859306Y693307D01*
X859186Y693270D01*
X858927Y693215D01*
X858631Y693169D01*
X858326Y693150D01*
X858234D01*
X858169Y693159D01*
X858086Y693169D01*
X857984Y693178D01*
X857882Y693187D01*
X857762Y693215D01*
X857512Y693270D01*
X857235Y693354D01*
X857096Y693409D01*
X856967Y693474D01*
X856837Y693557D01*
X856708Y693640D01*
X856699Y693650D01*
X856680Y693659D01*
X856643Y693687D01*
X856597Y693733D01*
X856551Y693779D01*
X856486Y693844D01*
X856421Y693918D01*
X856348Y693992D01*
X856273Y694084D01*
X856199Y694195D01*
X856116Y694306D01*
X856042Y694426D01*
X855978Y694565D01*
X855904Y694704D01*
X855848Y694851D01*
X855793Y695018D01*
X856625Y695212D01*
Y695203D01*
X856634Y695184D01*
X856653Y695147D01*
X856671Y695101D01*
X856690Y695046D01*
X856717Y694972D01*
X856791Y694824D01*
X856884Y694657D01*
X856995Y694491D01*
X857133Y694334D01*
X857281Y694195D01*
X857300Y694176D01*
X857355Y694139D01*
X857448Y694093D01*
X857568Y694029D01*
X857725Y693973D01*
X857901Y693918D01*
X858113Y693881D01*
X858344Y693871D01*
X858419D01*
X858465Y693881D01*
X858529D01*
X858603Y693890D01*
X858779Y693918D01*
X858973Y693955D01*
X859177Y694019D01*
X859389Y694112D01*
X859583Y694232D01*
X859593D01*
X859602Y694250D01*
X859667Y694297D01*
X859750Y694371D01*
X859852Y694482D01*
X859972Y694620D01*
X860083Y694778D01*
X860184Y694972D01*
X860277Y695184D01*
Y695193D01*
X860286Y695212D01*
X860295Y695240D01*
X860305Y695286D01*
X860323Y695341D01*
X860342Y695406D01*
X860369Y695563D01*
X860406Y695748D01*
X860443Y695952D01*
X860462Y696173D01*
X860471Y696414D01*
Y696423D01*
Y696451D01*
Y696497D01*
Y696553D01*
X860462Y696617D01*
Y696701D01*
X860452Y696793D01*
X860443Y696895D01*
X860415Y697117D01*
X860369Y697357D01*
X860314Y697597D01*
X860240Y697838D01*
Y697847D01*
X860231Y697866D01*
X860212Y697893D01*
X860194Y697939D01*
X860138Y698050D01*
X860055Y698180D01*
X859953Y698328D01*
X859824Y698485D01*
X859676Y698624D01*
X859500Y698753D01*
X859491D01*
X859473Y698762D01*
X859445Y698781D01*
X859408Y698799D01*
X859361Y698818D01*
X859306Y698846D01*
X859177Y698901D01*
X859010Y698957D01*
X858825Y699003D01*
X858622Y699040D01*
X858409Y699049D01*
X858344D01*
X858289Y699040D01*
X858224D01*
X858160Y699030D01*
X857993Y698993D01*
X857799Y698947D01*
X857605Y698873D01*
X857402Y698772D01*
X857300Y698716D01*
X857207Y698642D01*
X857198Y698633D01*
X857189Y698624D01*
X857161Y698596D01*
X857124Y698568D01*
X857087Y698522D01*
X857041Y698466D01*
X856985Y698411D01*
X856939Y698337D01*
X856884Y698254D01*
X856819Y698161D01*
X856764Y698069D01*
X856708Y697958D01*
X856662Y697838D01*
X856616Y697708D01*
X856569Y697570D01*
X856532Y697422D01*
X855682Y697634D01*
Y697644D01*
X855691Y697681D01*
X855710Y697736D01*
X855737Y697810D01*
X855765Y697893D01*
X855802Y697995D01*
X855848Y698106D01*
X855904Y698226D01*
X856033Y698485D01*
X856199Y698744D01*
X856301Y698873D01*
X856403Y699003D01*
X856514Y699114D01*
X856643Y699225D01*
X856653Y699234D01*
X856671Y699252D01*
X856717Y699271D01*
X856764Y699308D01*
X856837Y699354D01*
X856911Y699400D01*
X857013Y699446D01*
X857115Y699493D01*
X857235Y699548D01*
X857365Y699594D01*
X857503Y699641D01*
X857651Y699687D01*
X857808Y699724D01*
X857975Y699742D01*
X858150Y699761D01*
X858335Y699770D01*
X858437D01*
X858511Y699761D01*
D02*
G37*
G36*
X852788Y694657D02*
X852797Y694667D01*
X852843Y694704D01*
X852899Y694759D01*
X852991Y694824D01*
X853093Y694907D01*
X853222Y694999D01*
X853370Y695101D01*
X853537Y695203D01*
X853546D01*
X853555Y695212D01*
X853611Y695249D01*
X853703Y695295D01*
X853814Y695351D01*
X853944Y695415D01*
X854082Y695480D01*
X854221Y695545D01*
X854360Y695600D01*
Y694842D01*
X854350D01*
X854332Y694824D01*
X854295Y694814D01*
X854249Y694787D01*
X854193Y694759D01*
X854128Y694722D01*
X853971Y694630D01*
X853786Y694528D01*
X853602Y694398D01*
X853407Y694250D01*
X853213Y694093D01*
X853204Y694084D01*
X853195Y694075D01*
X853167Y694047D01*
X853130Y694019D01*
X853047Y693927D01*
X852936Y693816D01*
X852825Y693687D01*
X852705Y693539D01*
X852603Y693391D01*
X852511Y693233D01*
X852002D01*
Y699659D01*
X852788D01*
Y694657D01*
D02*
G37*
G36*
X862041Y798821D02*
X862124D01*
X862226Y798812D01*
X862337Y798793D01*
X862466Y798775D01*
X862734Y798728D01*
X863012Y798654D01*
X863289Y798553D01*
X863419Y798488D01*
X863548Y798414D01*
X863557Y798405D01*
X863576Y798395D01*
X863613Y798368D01*
X863650Y798331D01*
X863705Y798294D01*
X863770Y798238D01*
X863844Y798174D01*
X863918Y798100D01*
X863992Y798017D01*
X864075Y797933D01*
X864241Y797721D01*
X864399Y797471D01*
X864537Y797194D01*
Y797184D01*
X864556Y797157D01*
X864565Y797110D01*
X864593Y797055D01*
X864611Y796981D01*
X864639Y796889D01*
X864676Y796787D01*
X864704Y796676D01*
X864731Y796556D01*
X864768Y796417D01*
X864815Y796130D01*
X864852Y795807D01*
X864870Y795474D01*
Y795465D01*
Y795428D01*
Y795372D01*
X864861Y795307D01*
Y795215D01*
X864852Y795123D01*
X864842Y795002D01*
X864824Y794882D01*
X864778Y794614D01*
X864713Y794318D01*
X864620Y794022D01*
X864491Y793736D01*
X864482Y793727D01*
X864473Y793699D01*
X864454Y793662D01*
X864417Y793616D01*
X864380Y793551D01*
X864334Y793477D01*
X864214Y793310D01*
X864056Y793126D01*
X863872Y792941D01*
X863659Y792756D01*
X863409Y792598D01*
X863400Y792589D01*
X863372Y792580D01*
X863335Y792562D01*
X863289Y792534D01*
X863215Y792506D01*
X863141Y792478D01*
X863049Y792441D01*
X862947Y792404D01*
X862836Y792367D01*
X862716Y792330D01*
X862457Y792275D01*
X862161Y792229D01*
X861856Y792210D01*
X861764D01*
X861699Y792219D01*
X861616Y792229D01*
X861514Y792238D01*
X861412Y792247D01*
X861292Y792275D01*
X861042Y792330D01*
X860765Y792414D01*
X860626Y792469D01*
X860497Y792534D01*
X860368Y792617D01*
X860238Y792700D01*
X860229Y792710D01*
X860210Y792719D01*
X860173Y792747D01*
X860127Y792793D01*
X860081Y792839D01*
X860016Y792904D01*
X859951Y792978D01*
X859877Y793052D01*
X859803Y793144D01*
X859730Y793255D01*
X859646Y793366D01*
X859572Y793486D01*
X859508Y793625D01*
X859434Y793764D01*
X859378Y793911D01*
X859323Y794078D01*
X860155Y794272D01*
Y794263D01*
X860164Y794244D01*
X860183Y794207D01*
X860201Y794161D01*
X860219Y794106D01*
X860247Y794032D01*
X860321Y793884D01*
X860414Y793717D01*
X860525Y793551D01*
X860663Y793394D01*
X860811Y793255D01*
X860830Y793236D01*
X860885Y793199D01*
X860978Y793153D01*
X861098Y793089D01*
X861255Y793033D01*
X861431Y792978D01*
X861643Y792941D01*
X861874Y792931D01*
X861948D01*
X861995Y792941D01*
X862059D01*
X862133Y792950D01*
X862309Y792978D01*
X862503Y793015D01*
X862707Y793079D01*
X862919Y793172D01*
X863113Y793292D01*
X863123D01*
X863132Y793310D01*
X863197Y793357D01*
X863280Y793431D01*
X863382Y793542D01*
X863502Y793680D01*
X863613Y793838D01*
X863714Y794032D01*
X863807Y794244D01*
Y794253D01*
X863816Y794272D01*
X863825Y794300D01*
X863835Y794346D01*
X863853Y794401D01*
X863872Y794466D01*
X863899Y794623D01*
X863936Y794808D01*
X863973Y795012D01*
X863992Y795234D01*
X864001Y795474D01*
Y795483D01*
Y795511D01*
Y795557D01*
Y795613D01*
X863992Y795677D01*
Y795760D01*
X863982Y795853D01*
X863973Y795955D01*
X863945Y796177D01*
X863899Y796417D01*
X863844Y796657D01*
X863770Y796898D01*
Y796907D01*
X863761Y796926D01*
X863742Y796953D01*
X863724Y796999D01*
X863668Y797110D01*
X863585Y797240D01*
X863483Y797388D01*
X863354Y797545D01*
X863206Y797684D01*
X863030Y797813D01*
X863021D01*
X863002Y797822D01*
X862975Y797841D01*
X862938Y797859D01*
X862891Y797878D01*
X862836Y797906D01*
X862707Y797961D01*
X862540Y798017D01*
X862355Y798063D01*
X862152Y798100D01*
X861939Y798109D01*
X861874D01*
X861819Y798100D01*
X861754D01*
X861690Y798090D01*
X861523Y798053D01*
X861329Y798007D01*
X861135Y797933D01*
X860931Y797832D01*
X860830Y797776D01*
X860737Y797702D01*
X860728Y797693D01*
X860719Y797684D01*
X860691Y797656D01*
X860654Y797628D01*
X860617Y797582D01*
X860571Y797526D01*
X860515Y797471D01*
X860469Y797397D01*
X860414Y797314D01*
X860349Y797221D01*
X860294Y797129D01*
X860238Y797018D01*
X860192Y796898D01*
X860146Y796768D01*
X860099Y796630D01*
X860062Y796482D01*
X859212Y796694D01*
Y796704D01*
X859221Y796741D01*
X859240Y796796D01*
X859267Y796870D01*
X859295Y796953D01*
X859332Y797055D01*
X859378Y797166D01*
X859434Y797286D01*
X859563Y797545D01*
X859730Y797804D01*
X859831Y797933D01*
X859933Y798063D01*
X860044Y798174D01*
X860173Y798285D01*
X860183Y798294D01*
X860201Y798312D01*
X860247Y798331D01*
X860294Y798368D01*
X860368Y798414D01*
X860441Y798460D01*
X860543Y798506D01*
X860645Y798553D01*
X860765Y798608D01*
X860894Y798654D01*
X861033Y798701D01*
X861181Y798747D01*
X861338Y798784D01*
X861505Y798802D01*
X861680Y798821D01*
X861865Y798830D01*
X861967D01*
X862041Y798821D01*
D02*
G37*
G36*
X858602Y798710D02*
Y798673D01*
Y798617D01*
X858592Y798543D01*
X858583Y798460D01*
X858565Y798368D01*
X858546Y798275D01*
X858509Y798174D01*
Y798164D01*
X858500Y798155D01*
X858481Y798100D01*
X858444Y798017D01*
X858389Y797906D01*
X858315Y797776D01*
X858223Y797628D01*
X858121Y797480D01*
X857991Y797323D01*
Y797314D01*
X857973Y797305D01*
X857927Y797249D01*
X857843Y797166D01*
X857723Y797046D01*
X857585Y796907D01*
X857409Y796741D01*
X857196Y796556D01*
X856965Y796361D01*
X856956Y796352D01*
X856919Y796324D01*
X856863Y796278D01*
X856799Y796223D01*
X856715Y796149D01*
X856614Y796066D01*
X856512Y795973D01*
X856392Y795872D01*
X856161Y795650D01*
X855930Y795428D01*
X855819Y795317D01*
X855717Y795206D01*
X855624Y795104D01*
X855551Y795002D01*
Y794993D01*
X855532Y794984D01*
X855514Y794956D01*
X855495Y794919D01*
X855430Y794818D01*
X855356Y794697D01*
X855292Y794549D01*
X855227Y794392D01*
X855190Y794217D01*
X855171Y794050D01*
Y794041D01*
Y794032D01*
X855181Y793976D01*
X855190Y793884D01*
X855218Y793782D01*
X855255Y793652D01*
X855319Y793523D01*
X855403Y793394D01*
X855514Y793264D01*
X855532Y793246D01*
X855578Y793209D01*
X855643Y793163D01*
X855745Y793098D01*
X855874Y793042D01*
X856022Y792987D01*
X856198Y792950D01*
X856392Y792941D01*
X856447D01*
X856484Y792950D01*
X856595Y792959D01*
X856725Y792987D01*
X856863Y793024D01*
X857021Y793089D01*
X857169Y793172D01*
X857307Y793283D01*
X857326Y793301D01*
X857363Y793347D01*
X857418Y793421D01*
X857474Y793532D01*
X857538Y793662D01*
X857594Y793828D01*
X857631Y794013D01*
X857649Y794226D01*
X858454Y794143D01*
Y794133D01*
X858444Y794106D01*
Y794059D01*
X858435Y793995D01*
X858417Y793921D01*
X858398Y793838D01*
X858370Y793736D01*
X858343Y793634D01*
X858269Y793412D01*
X858158Y793190D01*
X858093Y793079D01*
X858010Y792968D01*
X857927Y792867D01*
X857834Y792774D01*
X857825Y792765D01*
X857806Y792756D01*
X857779Y792728D01*
X857732Y792700D01*
X857677Y792663D01*
X857612Y792626D01*
X857538Y792580D01*
X857446Y792534D01*
X857344Y792488D01*
X857233Y792441D01*
X857113Y792404D01*
X856984Y792367D01*
X856845Y792340D01*
X856697Y792312D01*
X856540Y792303D01*
X856373Y792293D01*
X856281D01*
X856216Y792303D01*
X856142Y792312D01*
X856050Y792321D01*
X855948Y792340D01*
X855846Y792358D01*
X855606Y792423D01*
X855366Y792515D01*
X855245Y792571D01*
X855125Y792635D01*
X855014Y792719D01*
X854913Y792811D01*
X854903Y792820D01*
X854885Y792830D01*
X854866Y792867D01*
X854829Y792904D01*
X854783Y792950D01*
X854737Y793015D01*
X854691Y793079D01*
X854635Y793163D01*
X854543Y793338D01*
X854450Y793560D01*
X854413Y793671D01*
X854395Y793801D01*
X854376Y793930D01*
X854367Y794069D01*
Y794087D01*
Y794133D01*
X854376Y794207D01*
X854386Y794309D01*
X854404Y794420D01*
X854441Y794549D01*
X854478Y794688D01*
X854533Y794827D01*
X854543Y794845D01*
X854561Y794892D01*
X854598Y794965D01*
X854654Y795067D01*
X854728Y795178D01*
X854820Y795317D01*
X854931Y795455D01*
X855061Y795613D01*
X855079Y795631D01*
X855125Y795687D01*
X855171Y795733D01*
X855218Y795779D01*
X855273Y795835D01*
X855347Y795909D01*
X855421Y795982D01*
X855514Y796066D01*
X855606Y796158D01*
X855717Y796260D01*
X855837Y796361D01*
X855967Y796482D01*
X856115Y796602D01*
X856262Y796731D01*
X856272Y796741D01*
X856290Y796759D01*
X856327Y796787D01*
X856373Y796824D01*
X856429Y796879D01*
X856494Y796935D01*
X856641Y797055D01*
X856799Y797194D01*
X856947Y797332D01*
X857076Y797452D01*
X857132Y797499D01*
X857178Y797545D01*
X857187Y797554D01*
X857215Y797582D01*
X857252Y797619D01*
X857298Y797674D01*
X857344Y797739D01*
X857400Y797804D01*
X857511Y797961D01*
X854358D01*
Y798719D01*
X858602D01*
Y798710D01*
D02*
G37*
G36*
X327642Y756215D02*
X327744Y756197D01*
X327864Y756160D01*
X327994Y756114D01*
X328142Y756049D01*
X328299Y755966D01*
X328012Y755245D01*
X328003Y755254D01*
X327966Y755272D01*
X327910Y755300D01*
X327837Y755328D01*
X327753Y755356D01*
X327652Y755383D01*
X327550Y755402D01*
X327448Y755411D01*
X327402D01*
X327356Y755402D01*
X327291Y755393D01*
X327226Y755374D01*
X327143Y755346D01*
X327060Y755309D01*
X326986Y755254D01*
X326977Y755245D01*
X326949Y755226D01*
X326921Y755189D01*
X326875Y755143D01*
X326829Y755078D01*
X326783Y755004D01*
X326736Y754921D01*
X326699Y754819D01*
X326690Y754801D01*
X326681Y754745D01*
X326662Y754662D01*
X326635Y754551D01*
X326607Y754412D01*
X326588Y754255D01*
X326579Y754089D01*
X326570Y753904D01*
Y751482D01*
X325784D01*
Y756123D01*
X326496D01*
Y755420D01*
X326505Y755430D01*
X326542Y755494D01*
X326588Y755577D01*
X326662Y755679D01*
X326736Y755781D01*
X326819Y755892D01*
X326903Y755984D01*
X326986Y756058D01*
X326995Y756067D01*
X327023Y756086D01*
X327078Y756114D01*
X327134Y756141D01*
X327208Y756169D01*
X327300Y756197D01*
X327393Y756215D01*
X327495Y756225D01*
X327559D01*
X327642Y756215D01*
D02*
G37*
G36*
X318693Y751482D02*
X317888D01*
X317149Y754255D01*
X316964Y755050D01*
X316030Y751482D01*
X315198D01*
X313792Y756123D01*
X314615D01*
X315355Y753442D01*
X315614Y752443D01*
Y752452D01*
X315623Y752471D01*
X315632Y752517D01*
X315642Y752545D01*
X315651Y752591D01*
X315660Y752646D01*
X315679Y752711D01*
X315697Y752785D01*
X315725Y752878D01*
X315753Y752979D01*
X315780Y753100D01*
X315817Y753238D01*
X315854Y753395D01*
X316594Y756123D01*
X317398D01*
X318092Y753423D01*
X318323Y752536D01*
X318591Y753432D01*
X319386Y756123D01*
X320154D01*
X318693Y751482D01*
D02*
G37*
G36*
X306294Y757870D02*
X306451Y757861D01*
X306618Y757852D01*
X306775Y757833D01*
X306914Y757815D01*
X306932D01*
X306997Y757796D01*
X307080Y757778D01*
X307191Y757750D01*
X307311Y757704D01*
X307441Y757648D01*
X307579Y757584D01*
X307700Y757510D01*
X307718Y757501D01*
X307755Y757473D01*
X307811Y757417D01*
X307885Y757353D01*
X307968Y757269D01*
X308051Y757158D01*
X308143Y757038D01*
X308217Y756899D01*
X308227Y756881D01*
X308245Y756835D01*
X308282Y756752D01*
X308319Y756641D01*
X308347Y756511D01*
X308384Y756363D01*
X308402Y756197D01*
X308412Y756021D01*
Y756012D01*
Y755984D01*
Y755947D01*
X308402Y755882D01*
X308393Y755818D01*
X308384Y755735D01*
X308365Y755642D01*
X308347Y755540D01*
X308282Y755328D01*
X308245Y755217D01*
X308190Y755097D01*
X308125Y754976D01*
X308060Y754865D01*
X307977Y754754D01*
X307885Y754644D01*
X307875Y754634D01*
X307857Y754616D01*
X307829Y754588D01*
X307783Y754560D01*
X307727Y754514D01*
X307653Y754468D01*
X307561Y754412D01*
X307459Y754366D01*
X307339Y754311D01*
X307200Y754255D01*
X307052Y754209D01*
X306877Y754172D01*
X306692Y754135D01*
X306488Y754107D01*
X306257Y754089D01*
X306017Y754080D01*
X304380D01*
Y751482D01*
X303530D01*
Y757879D01*
X306156D01*
X306294Y757870D01*
D02*
G37*
G36*
X322872Y756215D02*
X322946Y756206D01*
X323038Y756188D01*
X323140Y756169D01*
X323260Y756141D01*
X323371Y756114D01*
X323500Y756067D01*
X323621Y756021D01*
X323750Y755956D01*
X323879Y755882D01*
X324009Y755799D01*
X324129Y755698D01*
X324240Y755587D01*
X324249Y755577D01*
X324268Y755559D01*
X324296Y755522D01*
X324333Y755466D01*
X324379Y755402D01*
X324425Y755328D01*
X324480Y755235D01*
X324536Y755124D01*
X324591Y755004D01*
X324647Y754875D01*
X324693Y754727D01*
X324739Y754570D01*
X324776Y754394D01*
X324804Y754209D01*
X324823Y754015D01*
X324832Y753802D01*
Y753793D01*
Y753756D01*
Y753691D01*
X324823Y753599D01*
X321355D01*
Y753590D01*
Y753562D01*
X321365Y753525D01*
Y753469D01*
X321374Y753405D01*
X321392Y753331D01*
X321420Y753164D01*
X321476Y752979D01*
X321549Y752776D01*
X321651Y752591D01*
X321781Y752425D01*
X321790D01*
X321799Y752406D01*
X321855Y752360D01*
X321938Y752295D01*
X322049Y752231D01*
X322197Y752157D01*
X322363Y752092D01*
X322548Y752046D01*
X322650Y752036D01*
X322761Y752027D01*
X322835D01*
X322918Y752036D01*
X323020Y752055D01*
X323130Y752083D01*
X323260Y752120D01*
X323380Y752175D01*
X323500Y752249D01*
X323510Y752258D01*
X323556Y752295D01*
X323611Y752351D01*
X323676Y752425D01*
X323750Y752526D01*
X323833Y752656D01*
X323916Y752804D01*
X323990Y752979D01*
X324804Y752878D01*
Y752868D01*
X324795Y752850D01*
X324785Y752813D01*
X324767Y752757D01*
X324739Y752702D01*
X324711Y752628D01*
X324638Y752471D01*
X324545Y752295D01*
X324416Y752110D01*
X324268Y751935D01*
X324083Y751768D01*
X324074D01*
X324055Y751750D01*
X324027Y751731D01*
X323990Y751703D01*
X323935Y751676D01*
X323879Y751648D01*
X323806Y751611D01*
X323722Y751574D01*
X323630Y751537D01*
X323537Y751500D01*
X323306Y751445D01*
X323047Y751398D01*
X322761Y751380D01*
X322659D01*
X322594Y751389D01*
X322511Y751398D01*
X322409Y751417D01*
X322298Y751435D01*
X322178Y751454D01*
X321919Y751528D01*
X321781Y751583D01*
X321651Y751639D01*
X321513Y751713D01*
X321383Y751796D01*
X321263Y751888D01*
X321143Y751999D01*
X321133Y752009D01*
X321115Y752027D01*
X321087Y752064D01*
X321050Y752120D01*
X321004Y752184D01*
X320958Y752258D01*
X320902Y752351D01*
X320847Y752452D01*
X320791Y752573D01*
X320736Y752702D01*
X320690Y752850D01*
X320644Y753007D01*
X320606Y753174D01*
X320579Y753358D01*
X320560Y753553D01*
X320551Y753756D01*
Y753765D01*
Y753811D01*
Y753867D01*
X320560Y753950D01*
X320569Y754052D01*
X320579Y754163D01*
X320597Y754292D01*
X320625Y754422D01*
X320699Y754717D01*
X320745Y754865D01*
X320801Y755023D01*
X320875Y755171D01*
X320958Y755309D01*
X321050Y755448D01*
X321152Y755577D01*
X321161Y755587D01*
X321180Y755605D01*
X321217Y755633D01*
X321263Y755679D01*
X321318Y755725D01*
X321392Y755781D01*
X321476Y755845D01*
X321577Y755901D01*
X321679Y755966D01*
X321799Y756021D01*
X321929Y756077D01*
X322067Y756123D01*
X322215Y756169D01*
X322372Y756197D01*
X322539Y756215D01*
X322715Y756225D01*
X322807D01*
X322872Y756215D01*
D02*
G37*
G36*
X311426D02*
X311509Y756206D01*
X311601Y756188D01*
X311703Y756169D01*
X311823Y756151D01*
X312073Y756067D01*
X312202Y756021D01*
X312332Y755956D01*
X312461Y755892D01*
X312591Y755799D01*
X312711Y755707D01*
X312831Y755596D01*
X312840Y755587D01*
X312859Y755568D01*
X312886Y755531D01*
X312923Y755485D01*
X312970Y755420D01*
X313025Y755337D01*
X313081Y755245D01*
X313136Y755143D01*
X313192Y755032D01*
X313247Y754893D01*
X313302Y754754D01*
X313349Y754597D01*
X313386Y754431D01*
X313413Y754255D01*
X313432Y754070D01*
X313441Y753867D01*
Y753858D01*
Y753830D01*
Y753784D01*
Y753719D01*
X313432Y753645D01*
X313423Y753553D01*
Y753460D01*
X313404Y753358D01*
X313376Y753127D01*
X313321Y752896D01*
X313256Y752665D01*
X313164Y752452D01*
Y752443D01*
X313155Y752434D01*
X313136Y752406D01*
X313118Y752369D01*
X313053Y752277D01*
X312970Y752166D01*
X312859Y752036D01*
X312720Y751907D01*
X312563Y751777D01*
X312378Y751657D01*
X312369D01*
X312359Y751648D01*
X312332Y751629D01*
X312285Y751611D01*
X312239Y751592D01*
X312184Y751574D01*
X312045Y751519D01*
X311888Y751472D01*
X311694Y751426D01*
X311490Y751389D01*
X311268Y751380D01*
X311176D01*
X311102Y751389D01*
X311019Y751398D01*
X310926Y751417D01*
X310815Y751435D01*
X310704Y751454D01*
X310455Y751528D01*
X310316Y751583D01*
X310187Y751639D01*
X310057Y751713D01*
X309928Y751796D01*
X309808Y751888D01*
X309687Y751999D01*
X309678Y752009D01*
X309660Y752027D01*
X309632Y752064D01*
X309595Y752120D01*
X309549Y752184D01*
X309503Y752258D01*
X309447Y752351D01*
X309392Y752462D01*
X309336Y752582D01*
X309281Y752720D01*
X309234Y752868D01*
X309188Y753026D01*
X309151Y753201D01*
X309123Y753386D01*
X309105Y753590D01*
X309096Y753802D01*
Y753821D01*
Y753858D01*
X309105Y753922D01*
Y754015D01*
X309114Y754117D01*
X309133Y754246D01*
X309151Y754376D01*
X309188Y754523D01*
X309225Y754671D01*
X309271Y754828D01*
X309327Y754995D01*
X309401Y755152D01*
X309475Y755300D01*
X309576Y755448D01*
X309678Y755587D01*
X309808Y755707D01*
X309817Y755716D01*
X309835Y755725D01*
X309872Y755753D01*
X309919Y755790D01*
X309974Y755827D01*
X310048Y755873D01*
X310122Y755919D01*
X310214Y755966D01*
X310316Y756012D01*
X310427Y756058D01*
X310677Y756141D01*
X310963Y756206D01*
X311111Y756215D01*
X311268Y756225D01*
X311361D01*
X311426Y756215D01*
D02*
G37*
%LPC*%
G36*
X978894Y801523D02*
X976879Y798657D01*
X978894D01*
Y801523D01*
D02*
G37*
G36*
X377594Y820033D02*
X377585D01*
X377567D01*
X377530D01*
X377483Y820023D01*
X377428D01*
X377363Y820014D01*
X377215Y819986D01*
X377049Y819949D01*
X376873Y819884D01*
X376707Y819792D01*
X376550Y819672D01*
X376531Y819653D01*
X376485Y819607D01*
X376429Y819533D01*
X376355Y819432D01*
X376282Y819302D01*
X376226Y819154D01*
X376180Y818979D01*
X376161Y818784D01*
Y818729D01*
X376171Y818692D01*
X376180Y818599D01*
X376208Y818470D01*
X376254Y818331D01*
X376328Y818174D01*
X376420Y818026D01*
X376550Y817878D01*
X376568Y817860D01*
X376614Y817823D01*
X376698Y817758D01*
X376818Y817693D01*
X376956Y817629D01*
X377132Y817564D01*
X377326Y817527D01*
X377548Y817508D01*
X377567D01*
X377613D01*
X377696Y817518D01*
X377798Y817527D01*
X377918Y817545D01*
X378047Y817582D01*
X378186Y817619D01*
X378325Y817675D01*
X378343Y817684D01*
X378390Y817712D01*
X378454Y817749D01*
X378537Y817804D01*
X378621Y817869D01*
X378722Y817952D01*
X378806Y818045D01*
X378889Y818156D01*
X378898Y818174D01*
X378917Y818211D01*
X378953Y818276D01*
X378981Y818359D01*
X379018Y818452D01*
X379055Y818562D01*
X379074Y818683D01*
X379083Y818812D01*
Y818858D01*
X379074Y818895D01*
X379064Y818988D01*
X379037Y819108D01*
X378981Y819237D01*
X378917Y819385D01*
X378815Y819533D01*
X378759Y819607D01*
X378685Y819672D01*
X378676D01*
X378667Y819690D01*
X378611Y819727D01*
X378519Y819783D01*
X378399Y819857D01*
X378242Y819921D01*
X378057Y819977D01*
X377844Y820014D01*
X377594Y820033D01*
D02*
G37*
G36*
X740829Y850484D02*
X738925D01*
X738814Y850474D01*
X738684Y850465D01*
X738537Y850456D01*
X738389Y850437D01*
X738241Y850410D01*
X738111Y850373D01*
X738093Y850363D01*
X738056Y850345D01*
X738000Y850317D01*
X737926Y850280D01*
X737843Y850225D01*
X737760Y850160D01*
X737677Y850077D01*
X737612Y849984D01*
X737603Y849975D01*
X737584Y849938D01*
X737557Y849883D01*
X737520Y849809D01*
X737492Y849725D01*
X737464Y849633D01*
X737446Y849522D01*
X737436Y849411D01*
Y849402D01*
Y849393D01*
X737446Y849337D01*
X737455Y849254D01*
X737473Y849143D01*
X737520Y849032D01*
X737575Y848903D01*
X737658Y848783D01*
X737769Y848662D01*
X737788Y848653D01*
X737834Y848616D01*
X737908Y848570D01*
X738028Y848514D01*
X738167Y848459D01*
X738352Y848413D01*
X738564Y848376D01*
X738814Y848366D01*
X740829D01*
Y850484D01*
D02*
G37*
G36*
X306211Y757121D02*
X304380D01*
Y754838D01*
X306100D01*
X306165Y754847D01*
X306230D01*
X306304Y754856D01*
X306479Y754875D01*
X306673Y754912D01*
X306868Y754967D01*
X307043Y755041D01*
X307126Y755087D01*
X307191Y755143D01*
X307210Y755161D01*
X307247Y755198D01*
X307302Y755272D01*
X307367Y755365D01*
X307432Y755485D01*
X307487Y755633D01*
X307524Y755799D01*
X307542Y755993D01*
Y756003D01*
Y756012D01*
Y756058D01*
X307533Y756141D01*
X307515Y756234D01*
X307496Y756336D01*
X307459Y756456D01*
X307404Y756567D01*
X307339Y756678D01*
X307330Y756687D01*
X307302Y756724D01*
X307256Y756770D01*
X307200Y756835D01*
X307117Y756899D01*
X307025Y756955D01*
X306923Y757010D01*
X306803Y757057D01*
X306794D01*
X306757Y757066D01*
X306701Y757075D01*
X306627Y757094D01*
X306516Y757103D01*
X306378Y757112D01*
X306211Y757121D01*
D02*
G37*
G36*
X322724Y755577D02*
X322668D01*
X322631Y755568D01*
X322530Y755559D01*
X322409Y755531D01*
X322262Y755485D01*
X322104Y755420D01*
X321956Y755328D01*
X321808Y755208D01*
X321790Y755189D01*
X321753Y755143D01*
X321688Y755060D01*
X321623Y754949D01*
X321549Y754819D01*
X321485Y754653D01*
X321429Y754459D01*
X321402Y754246D01*
X324000D01*
Y754255D01*
Y754274D01*
X323990Y754302D01*
Y754339D01*
X323972Y754449D01*
X323944Y754570D01*
X323898Y754717D01*
X323852Y754856D01*
X323778Y754995D01*
X323694Y755115D01*
Y755124D01*
X323676Y755134D01*
X323630Y755189D01*
X323547Y755263D01*
X323436Y755346D01*
X323297Y755430D01*
X323130Y755503D01*
X322936Y755559D01*
X322835Y755568D01*
X322724Y755577D01*
D02*
G37*
G36*
X311268D02*
X311213D01*
X311167Y755568D01*
X311065Y755559D01*
X310926Y755522D01*
X310769Y755466D01*
X310603Y755393D01*
X310446Y755282D01*
X310362Y755208D01*
X310288Y755134D01*
Y755124D01*
X310270Y755115D01*
X310251Y755087D01*
X310224Y755050D01*
X310196Y755004D01*
X310168Y754949D01*
X310131Y754875D01*
X310094Y754801D01*
X310057Y754708D01*
X310020Y754616D01*
X309993Y754505D01*
X309965Y754385D01*
X309937Y754255D01*
X309919Y754117D01*
X309909Y753959D01*
X309900Y753802D01*
Y753793D01*
Y753765D01*
Y753719D01*
X309909Y753654D01*
Y753580D01*
X309919Y753497D01*
X309946Y753303D01*
X309993Y753081D01*
X310067Y752859D01*
X310159Y752646D01*
X310224Y752554D01*
X310288Y752462D01*
X310298D01*
X310307Y752443D01*
X310362Y752397D01*
X310446Y752323D01*
X310557Y752249D01*
X310695Y752166D01*
X310862Y752092D01*
X311056Y752046D01*
X311157Y752036D01*
X311268Y752027D01*
X311324D01*
X311370Y752036D01*
X311472Y752055D01*
X311611Y752083D01*
X311758Y752138D01*
X311925Y752212D01*
X312082Y752323D01*
X312165Y752397D01*
X312239Y752471D01*
X312248Y752480D01*
X312258Y752489D01*
X312276Y752517D01*
X312304Y752554D01*
X312332Y752600D01*
X312369Y752656D01*
X312406Y752730D01*
X312443Y752804D01*
X312480Y752896D01*
X312507Y752998D01*
X312544Y753109D01*
X312572Y753229D01*
X312600Y753368D01*
X312618Y753506D01*
X312637Y753663D01*
Y753830D01*
Y753839D01*
Y753867D01*
Y753913D01*
X312628Y753969D01*
Y754043D01*
X312618Y754126D01*
X312591Y754320D01*
X312544Y754523D01*
X312470Y754745D01*
X312369Y754949D01*
X312313Y755050D01*
X312239Y755134D01*
Y755143D01*
X312221Y755152D01*
X312165Y755208D01*
X312082Y755272D01*
X311971Y755356D01*
X311832Y755439D01*
X311666Y755513D01*
X311481Y755559D01*
X311379Y755568D01*
X311268Y755577D01*
D02*
G37*
%LPD*%
D12*
X798930Y838670D02*
Y865670D01*
X684430D02*
X798930D01*
X684430Y838670D02*
Y865670D01*
Y838670D02*
X798930D01*
X275430Y720630D02*
Y782130D01*
Y720630D02*
X331630D01*
Y782130D01*
X275430D02*
X331630D01*
M02*
