G04*
G04 #@! TF.GenerationSoftware,Altium Limited,Altium Designer,23.4.1 (23)*
G04*
G04 Layer_Color=65535*
%FSLAX44Y44*%
%MOMM*%
G71*
G04*
G04 #@! TF.SameCoordinates,25470DFE-9127-4010-A817-713BFABC8644*
G04*
G04*
G04 #@! TF.FilePolarity,Positive*
G04*
G01*
G75*
%ADD10C,0.2500*%
%ADD11C,0.1270*%
%ADD12C,0.2000*%
%ADD13C,0.1500*%
%ADD14C,0.2540*%
G36*
X481038Y891881D02*
X482207D01*
Y891589D01*
X482791D01*
Y891297D01*
X483084D01*
Y891005D01*
X483376D01*
Y890712D01*
X483668D01*
Y890420D01*
X483960D01*
Y889836D01*
X484253D01*
Y886913D01*
X483960D01*
Y886328D01*
X483668D01*
Y886036D01*
X483376D01*
Y885743D01*
X483084D01*
Y885451D01*
X482499D01*
Y885159D01*
X481330D01*
Y884867D01*
X479576D01*
Y885159D01*
X478407D01*
Y885451D01*
X477823D01*
Y885743D01*
X477530D01*
Y886036D01*
X477238D01*
Y886328D01*
X476946D01*
Y886620D01*
X476654D01*
Y887205D01*
X476361D01*
Y889836D01*
X476654D01*
Y890420D01*
X476946D01*
Y890712D01*
X477238D01*
Y891005D01*
X477530D01*
Y891297D01*
X477823D01*
Y891589D01*
X478407D01*
Y891881D01*
X479576D01*
Y892174D01*
X481038D01*
Y891881D01*
D02*
G37*
G36*
X357695D02*
X358572D01*
Y891589D01*
X359156D01*
Y891297D01*
X359449D01*
Y891005D01*
X359741D01*
Y890712D01*
X360033D01*
Y890420D01*
X360326D01*
Y890128D01*
X360618D01*
Y889251D01*
X360910D01*
Y887497D01*
X360618D01*
Y886620D01*
X360326D01*
Y886328D01*
X360033D01*
Y886036D01*
X359741D01*
Y885743D01*
X359449D01*
Y885451D01*
X358864D01*
Y885159D01*
X357695D01*
Y884867D01*
X355941D01*
Y885159D01*
X355065D01*
Y885451D01*
X354480D01*
Y885743D01*
X353895D01*
Y886036D01*
X353603D01*
Y886328D01*
X353311D01*
Y886913D01*
X353019D01*
Y887497D01*
X352726D01*
Y889543D01*
X353019D01*
Y890128D01*
X353311D01*
Y890712D01*
X353603D01*
Y891005D01*
X353895D01*
Y891297D01*
X354480D01*
Y891589D01*
X355065D01*
Y891881D01*
X355941D01*
Y892174D01*
X357695D01*
Y891881D01*
D02*
G37*
G36*
X484253Y880190D02*
X483960D01*
Y866161D01*
Y865868D01*
Y864115D01*
X483668D01*
Y863822D01*
X476654D01*
Y879606D01*
X476361D01*
Y882528D01*
X476069D01*
Y883113D01*
X476361D01*
Y883405D01*
X478407D01*
Y883113D01*
X482499D01*
Y883405D01*
X484253D01*
Y880190D01*
D02*
G37*
G36*
X360618Y883113D02*
X360910D01*
Y882821D01*
X360618D01*
Y879021D01*
X360326D01*
Y864992D01*
Y864699D01*
Y863822D01*
X353311D01*
Y864115D01*
X353019D01*
Y880775D01*
X352726D01*
Y883405D01*
X355065D01*
Y883113D01*
X358864D01*
Y883405D01*
X360618D01*
Y883113D01*
D02*
G37*
G36*
X569891Y889543D02*
X569599D01*
Y882821D01*
X569307D01*
Y871714D01*
X569599D01*
Y865576D01*
X569891D01*
Y863822D01*
X562876D01*
Y865868D01*
X562292D01*
Y865576D01*
X562000D01*
Y865284D01*
X561415D01*
Y864992D01*
X561123D01*
Y864699D01*
X560538D01*
Y864407D01*
X560246D01*
Y864115D01*
X559369D01*
Y863822D01*
X557908D01*
Y863530D01*
X555569D01*
Y863822D01*
X554108D01*
Y864115D01*
X553231D01*
Y864407D01*
X552647D01*
Y864699D01*
X552062D01*
Y864992D01*
X551478D01*
Y865284D01*
X551185D01*
Y865576D01*
X550893D01*
Y865868D01*
X550601D01*
Y866161D01*
X550308D01*
Y866453D01*
X549724D01*
Y867038D01*
X549431D01*
Y867330D01*
X549139D01*
Y867914D01*
X548847D01*
Y868207D01*
X548555D01*
Y868791D01*
X548262D01*
Y869668D01*
X547970D01*
Y870545D01*
X547678D01*
Y871714D01*
X547385D01*
Y876391D01*
X547678D01*
Y877560D01*
X547970D01*
Y878437D01*
X548262D01*
Y879021D01*
X548555D01*
Y879606D01*
X548847D01*
Y880190D01*
X549139D01*
Y880482D01*
X549431D01*
Y881067D01*
X549724D01*
Y881359D01*
X550016D01*
Y881652D01*
X550308D01*
Y881944D01*
X550601D01*
Y882236D01*
X550893D01*
Y882528D01*
X551185D01*
Y882821D01*
X551770D01*
Y883113D01*
X552354D01*
Y883405D01*
X552647D01*
Y883698D01*
X553523D01*
Y883990D01*
X554400D01*
Y884282D01*
X558784D01*
Y883990D01*
X559661D01*
Y883698D01*
X560246D01*
Y883405D01*
X560830D01*
Y883113D01*
X561123D01*
Y882821D01*
X561415D01*
Y882528D01*
X561707D01*
Y882236D01*
X562292D01*
Y885451D01*
X562000D01*
Y892466D01*
X562292D01*
Y892758D01*
X564922D01*
Y893051D01*
X567553D01*
Y893343D01*
X569891D01*
Y889543D01*
D02*
G37*
G36*
X422874Y893343D02*
X423166D01*
Y891881D01*
X422874D01*
Y887790D01*
X422581D01*
Y878144D01*
Y877852D01*
Y867038D01*
X422874D01*
Y863822D01*
X416151D01*
Y864115D01*
X415859D01*
Y865868D01*
X415275D01*
Y865576D01*
X414982D01*
Y865284D01*
X414690D01*
Y864992D01*
X414398D01*
Y864699D01*
X413813D01*
Y864407D01*
X413228D01*
Y864115D01*
X412352D01*
Y863822D01*
X410890D01*
Y863530D01*
X408844D01*
Y863822D01*
X407091D01*
Y864115D01*
X406214D01*
Y864407D01*
X405629D01*
Y864699D01*
X405045D01*
Y864992D01*
X404752D01*
Y865284D01*
X404168D01*
Y865576D01*
X403876D01*
Y865868D01*
X403583D01*
Y866161D01*
X403291D01*
Y866453D01*
X402999D01*
Y866745D01*
X402706D01*
Y867038D01*
X402414D01*
Y867622D01*
X402122D01*
Y867914D01*
X401829D01*
Y868499D01*
X401537D01*
Y869083D01*
X401245D01*
Y869960D01*
X400953D01*
Y870837D01*
X400660D01*
Y872883D01*
X400368D01*
Y875221D01*
X400660D01*
Y876975D01*
X400953D01*
Y878144D01*
X401245D01*
Y878729D01*
X401537D01*
Y879606D01*
X401829D01*
Y879898D01*
X402122D01*
Y880482D01*
X402414D01*
Y880775D01*
X402706D01*
Y881359D01*
X402999D01*
Y881652D01*
X403291D01*
Y881944D01*
X403583D01*
Y882236D01*
X403876D01*
Y882528D01*
X404460D01*
Y882821D01*
X404752D01*
Y883113D01*
X405337D01*
Y883405D01*
X405922D01*
Y883698D01*
X406506D01*
Y883990D01*
X407675D01*
Y884282D01*
X411767D01*
Y883990D01*
X412644D01*
Y883698D01*
X413228D01*
Y883405D01*
X413813D01*
Y883113D01*
X414105D01*
Y882821D01*
X414398D01*
Y882528D01*
X414690D01*
Y882236D01*
X415275D01*
Y892758D01*
X417905D01*
Y893051D01*
X420828D01*
Y893343D01*
X422581D01*
Y893635D01*
X422874D01*
Y893343D01*
D02*
G37*
G36*
X472854Y892466D02*
X473146D01*
Y886036D01*
X473438D01*
Y881944D01*
X473146D01*
Y881359D01*
X472854D01*
Y880775D01*
X472562D01*
Y879898D01*
X472269D01*
Y879313D01*
X471977D01*
Y878729D01*
X471685D01*
Y878144D01*
X471392D01*
Y877560D01*
X471100D01*
Y876975D01*
X470808D01*
Y876098D01*
X470516D01*
Y875514D01*
X470223D01*
Y874929D01*
X469931D01*
Y874345D01*
X469639D01*
Y873760D01*
X469347D01*
Y873175D01*
X469054D01*
Y872299D01*
X468762D01*
Y871714D01*
X468470D01*
Y871130D01*
X468177D01*
Y870545D01*
X467885D01*
Y869960D01*
X467593D01*
Y869376D01*
X467300D01*
Y868791D01*
X467008D01*
Y868207D01*
X466716D01*
Y867330D01*
X466424D01*
Y866745D01*
X466131D01*
Y866161D01*
X465839D01*
Y865576D01*
X465547D01*
Y864992D01*
X465255D01*
Y864407D01*
X464962D01*
Y863822D01*
X458532D01*
Y864115D01*
X458240D01*
Y864407D01*
X457948D01*
Y864992D01*
X457655D01*
Y865868D01*
X457363D01*
Y866453D01*
X457071D01*
Y867330D01*
X456778D01*
Y867914D01*
X456486D01*
Y868791D01*
X456194D01*
Y869376D01*
X455902D01*
Y870253D01*
X455609D01*
Y870837D01*
X455317D01*
Y871714D01*
X455025D01*
Y872299D01*
X454732D01*
Y872591D01*
X454440D01*
Y872006D01*
X454148D01*
Y871130D01*
X453856D01*
Y870545D01*
X453563D01*
Y869668D01*
X453271D01*
Y869083D01*
X452979D01*
Y868207D01*
X452686D01*
Y867622D01*
X452394D01*
Y866745D01*
X452102D01*
Y866161D01*
X451810D01*
Y865284D01*
X451517D01*
Y864699D01*
X451225D01*
Y864115D01*
X450933D01*
Y863822D01*
X444503D01*
Y864407D01*
X444210D01*
Y864699D01*
X443918D01*
Y865284D01*
X443626D01*
Y866161D01*
X443334D01*
Y866745D01*
X443041D01*
Y867330D01*
X442749D01*
Y867914D01*
X442457D01*
Y868499D01*
X442164D01*
Y869083D01*
X441872D01*
Y869668D01*
X441580D01*
Y870253D01*
X441287D01*
Y870837D01*
X440995D01*
Y871422D01*
X440703D01*
Y872006D01*
X440411D01*
Y872591D01*
X440118D01*
Y873468D01*
X439826D01*
Y874052D01*
X439534D01*
Y874637D01*
X439241D01*
Y875221D01*
X438949D01*
Y875806D01*
X438657D01*
Y876391D01*
X438365D01*
Y876975D01*
X438072D01*
Y877852D01*
X437780D01*
Y878437D01*
X437488D01*
Y879021D01*
X437196D01*
Y879606D01*
X436903D01*
Y880482D01*
X436611D01*
Y881067D01*
X436319D01*
Y892174D01*
X436611D01*
Y892758D01*
X438657D01*
Y892466D01*
X444210D01*
Y892174D01*
X444503D01*
Y889543D01*
X444210D01*
Y881067D01*
X444503D01*
Y880482D01*
X444795D01*
Y879606D01*
X445087D01*
Y879021D01*
X445379D01*
Y878437D01*
X445672D01*
Y877852D01*
X445964D01*
Y876975D01*
X446256D01*
Y876391D01*
X446549D01*
Y875806D01*
X446841D01*
Y875221D01*
X447133D01*
Y874637D01*
X447425D01*
Y874345D01*
X447718D01*
Y873760D01*
X448302D01*
Y874637D01*
X448595D01*
Y875514D01*
X448887D01*
Y876098D01*
X449179D01*
Y876975D01*
X449471D01*
Y877852D01*
X449764D01*
Y878729D01*
X450056D01*
Y879313D01*
Y879606D01*
X450348D01*
Y880775D01*
X450640D01*
Y881944D01*
X450933D01*
Y891297D01*
X450640D01*
Y892174D01*
X450933D01*
Y892466D01*
X458240D01*
Y892174D01*
X458824D01*
Y886328D01*
X458532D01*
Y882528D01*
X458824D01*
Y882236D01*
X458532D01*
Y881944D01*
X458824D01*
Y880775D01*
X459117D01*
Y879898D01*
X459409D01*
Y879021D01*
X459701D01*
Y878144D01*
X459994D01*
Y877267D01*
X460286D01*
Y876683D01*
X460578D01*
Y875806D01*
X460870D01*
Y874929D01*
X461163D01*
Y874345D01*
X461455D01*
Y873760D01*
X461747D01*
Y874052D01*
X462039D01*
Y874637D01*
X462332D01*
Y875221D01*
X462624D01*
Y875806D01*
X462916D01*
Y876391D01*
X463209D01*
Y876975D01*
X463501D01*
Y877852D01*
X463793D01*
Y878437D01*
X464085D01*
Y879021D01*
X464378D01*
Y879898D01*
X464670D01*
Y880482D01*
X464962D01*
Y881359D01*
X465255D01*
Y887497D01*
X464962D01*
Y892466D01*
X471100D01*
Y892758D01*
X472854D01*
Y892466D01*
D02*
G37*
G36*
X349219D02*
X349511D01*
Y888374D01*
X349804D01*
Y881652D01*
X349511D01*
Y881067D01*
X349219D01*
Y880482D01*
X348927D01*
Y879898D01*
X348634D01*
Y879313D01*
X348342D01*
Y878729D01*
X348050D01*
Y877852D01*
X347757D01*
Y877267D01*
X347465D01*
Y876683D01*
X347173D01*
Y876098D01*
X346881D01*
Y875514D01*
X346588D01*
Y874929D01*
X346296D01*
Y874052D01*
X346004D01*
Y873468D01*
X345712D01*
Y872883D01*
X345419D01*
Y872299D01*
X345127D01*
Y871714D01*
X344835D01*
Y871130D01*
X344543D01*
Y870253D01*
X344250D01*
Y869668D01*
X343958D01*
Y869083D01*
X343666D01*
Y868499D01*
X343373D01*
Y867914D01*
X343081D01*
Y867330D01*
X342789D01*
Y866745D01*
X342496D01*
Y866161D01*
X342204D01*
Y865576D01*
X341912D01*
Y864699D01*
X341620D01*
Y864407D01*
X341327D01*
Y863822D01*
X334897D01*
Y864115D01*
X334605D01*
Y864407D01*
X334313D01*
Y865284D01*
X334020D01*
Y865868D01*
X333728D01*
Y866745D01*
X333436D01*
Y867330D01*
X333144D01*
Y868207D01*
X332851D01*
Y868791D01*
X332559D01*
Y869668D01*
X332267D01*
Y870253D01*
X331974D01*
Y871130D01*
X331682D01*
Y871714D01*
X331390D01*
Y872591D01*
X331097D01*
Y872299D01*
X330805D01*
Y871714D01*
X330513D01*
Y871130D01*
X330221D01*
Y870253D01*
X329928D01*
Y869668D01*
X329636D01*
Y868791D01*
X329344D01*
Y868207D01*
X329052D01*
Y867330D01*
X328759D01*
Y866745D01*
X328467D01*
Y865868D01*
X328175D01*
Y865284D01*
X327882D01*
Y864407D01*
X327590D01*
Y864115D01*
X327298D01*
Y863822D01*
X320868D01*
Y864407D01*
X320575D01*
Y864992D01*
X320283D01*
Y865576D01*
X319991D01*
Y866161D01*
X319699D01*
Y866745D01*
X319406D01*
Y867330D01*
X319114D01*
Y867914D01*
X318822D01*
Y868499D01*
X318529D01*
Y869083D01*
X318237D01*
Y869960D01*
X317945D01*
Y870545D01*
X317653D01*
Y871130D01*
X317360D01*
Y871714D01*
X317068D01*
Y872299D01*
X316776D01*
Y872883D01*
X316483D01*
Y873468D01*
X316191D01*
Y874052D01*
X315899D01*
Y874637D01*
X315607D01*
Y875514D01*
X315314D01*
Y876098D01*
X315022D01*
Y876683D01*
X314730D01*
Y877267D01*
X314438D01*
Y877852D01*
X314145D01*
Y878437D01*
X313853D01*
Y879313D01*
X313561D01*
Y879898D01*
X313268D01*
Y880482D01*
X312976D01*
Y881359D01*
X312684D01*
Y888959D01*
X312976D01*
Y892466D01*
X313268D01*
Y892758D01*
X315022D01*
Y892466D01*
X320868D01*
Y887205D01*
X320575D01*
Y881359D01*
X320868D01*
Y880482D01*
X321160D01*
Y879898D01*
X321452D01*
Y879313D01*
X321744D01*
Y878437D01*
X322037D01*
Y877852D01*
X322329D01*
Y877267D01*
X322621D01*
Y876683D01*
X322914D01*
Y876098D01*
X323206D01*
Y875514D01*
X323498D01*
Y874929D01*
X323791D01*
Y874345D01*
X324083D01*
Y873760D01*
X324667D01*
Y874345D01*
X324960D01*
Y875221D01*
X325252D01*
Y876098D01*
X325544D01*
Y876975D01*
X325836D01*
Y877560D01*
X326129D01*
Y878437D01*
X326421D01*
Y879606D01*
X326713D01*
Y880482D01*
X327006D01*
Y881652D01*
X327298D01*
Y892466D01*
X334605D01*
Y892174D01*
X335190D01*
Y881067D01*
X335482D01*
Y880190D01*
X335774D01*
Y879313D01*
X336066D01*
Y878437D01*
X336359D01*
Y877560D01*
X336651D01*
Y876683D01*
X336943D01*
Y876098D01*
X337235D01*
Y875221D01*
X337528D01*
Y874637D01*
X337820D01*
Y873760D01*
X338112D01*
Y874052D01*
X338405D01*
Y874345D01*
X338697D01*
Y874929D01*
X338989D01*
Y875514D01*
X339281D01*
Y876098D01*
X339574D01*
Y876975D01*
X339866D01*
Y877560D01*
X340158D01*
Y878144D01*
X340451D01*
Y879021D01*
X340743D01*
Y879606D01*
X341035D01*
Y880190D01*
X341327D01*
Y881067D01*
X341620D01*
Y890128D01*
X341327D01*
Y892174D01*
X341620D01*
Y892466D01*
X347465D01*
Y892758D01*
X349219D01*
Y892466D01*
D02*
G37*
G36*
X538909Y882821D02*
X539202D01*
Y881652D01*
X539786D01*
Y881944D01*
X540371D01*
Y882236D01*
X540663D01*
Y882528D01*
X541248D01*
Y882821D01*
X541832D01*
Y883113D01*
X542709D01*
Y883405D01*
X543586D01*
Y883698D01*
X545924D01*
Y883113D01*
X546216D01*
Y882821D01*
X545924D01*
Y876098D01*
X545632D01*
Y875806D01*
X540955D01*
Y875514D01*
X540371D01*
Y875221D01*
X540079D01*
Y874637D01*
X539786D01*
Y866453D01*
X540079D01*
Y864115D01*
X539786D01*
Y863822D01*
X532771D01*
Y864115D01*
X532479D01*
Y868791D01*
Y869083D01*
Y878729D01*
X532187D01*
Y880482D01*
X531895D01*
Y881944D01*
X531602D01*
Y882821D01*
X531895D01*
Y883113D01*
X533648D01*
Y883405D01*
X535694D01*
Y883698D01*
X537156D01*
Y883990D01*
X538909D01*
Y882821D01*
D02*
G37*
G36*
X370848Y883405D02*
X371140D01*
Y881652D01*
X371725D01*
Y881944D01*
X372309D01*
Y882236D01*
X372894D01*
Y882528D01*
X373186D01*
Y882821D01*
X374063D01*
Y883113D01*
X374647D01*
Y883405D01*
X375816D01*
Y883698D01*
X377863D01*
Y883405D01*
X378155D01*
Y881944D01*
X377863D01*
Y881652D01*
X378155D01*
Y881359D01*
X377863D01*
Y876098D01*
X377570D01*
Y875806D01*
X372894D01*
Y875514D01*
X372601D01*
Y875221D01*
X372309D01*
Y874929D01*
X372017D01*
Y874052D01*
X371725D01*
Y873175D01*
Y872883D01*
Y867622D01*
X372017D01*
Y863822D01*
X365002D01*
Y864115D01*
X364710D01*
Y864407D01*
X364418D01*
Y874052D01*
X364710D01*
Y874345D01*
X364418D01*
Y879313D01*
X364125D01*
Y881067D01*
X363833D01*
Y882236D01*
X363541D01*
Y882821D01*
X363833D01*
Y883113D01*
X365879D01*
Y883405D01*
X367633D01*
Y883698D01*
X369094D01*
Y883990D01*
X370848D01*
Y883405D01*
D02*
G37*
G36*
X517573Y883990D02*
X518742D01*
Y883698D01*
X519619D01*
Y883405D01*
X520203D01*
Y883113D01*
X520496D01*
Y882821D01*
X520788D01*
Y882528D01*
X521080D01*
Y882236D01*
X521372D01*
Y881944D01*
X521957D01*
Y882528D01*
X522249D01*
Y883405D01*
X522542D01*
Y883698D01*
X522834D01*
Y883990D01*
X523126D01*
Y883698D01*
X525172D01*
Y883405D01*
X526634D01*
Y883113D01*
X527803D01*
Y882821D01*
X528680D01*
Y882528D01*
X528972D01*
Y881944D01*
X528680D01*
Y879898D01*
X528387D01*
Y876391D01*
X528095D01*
Y871130D01*
X528387D01*
Y864115D01*
X528095D01*
Y863822D01*
X525172D01*
Y863530D01*
X521957D01*
Y863822D01*
X521665D01*
Y864407D01*
X521372D01*
Y865868D01*
X520788D01*
Y865576D01*
X520496D01*
Y865284D01*
X520203D01*
Y864992D01*
X519619D01*
Y864699D01*
X519327D01*
Y864407D01*
X518742D01*
Y864115D01*
X518450D01*
Y863822D01*
X517573D01*
Y863530D01*
X516111D01*
Y863238D01*
X515527D01*
Y863530D01*
X513481D01*
Y863822D01*
X512604D01*
Y864115D01*
X512020D01*
Y864407D01*
X511435D01*
Y864699D01*
X510850D01*
Y864992D01*
X510558D01*
Y865284D01*
X510266D01*
Y865576D01*
X509973D01*
Y865868D01*
X509681D01*
Y866161D01*
X509389D01*
Y866453D01*
X509097D01*
Y866745D01*
X508804D01*
Y867330D01*
X508512D01*
Y867622D01*
X508220D01*
Y867914D01*
X507928D01*
Y868499D01*
X507635D01*
Y869376D01*
X507343D01*
Y869960D01*
X507051D01*
Y871130D01*
X506758D01*
Y876098D01*
X507051D01*
Y877560D01*
X507343D01*
Y878437D01*
X507635D01*
Y879021D01*
X507928D01*
Y879606D01*
X508220D01*
Y880190D01*
X508512D01*
Y880482D01*
X508804D01*
Y880775D01*
X509097D01*
Y881359D01*
X509389D01*
Y881652D01*
X509973D01*
Y881944D01*
X510266D01*
Y882236D01*
X510558D01*
Y882528D01*
X510850D01*
Y882821D01*
X511435D01*
Y883113D01*
X512020D01*
Y883405D01*
X512604D01*
Y883698D01*
X513481D01*
Y883990D01*
X515235D01*
Y884282D01*
X517573D01*
Y883990D01*
D02*
G37*
G36*
X490391Y883405D02*
X493606D01*
Y883113D01*
X502374D01*
Y883405D01*
X503836D01*
Y883113D01*
X504420D01*
Y882528D01*
X504712D01*
Y878144D01*
X504420D01*
Y877852D01*
X504128D01*
Y877267D01*
X503836D01*
Y876975D01*
X503543D01*
Y876683D01*
X503251D01*
Y876391D01*
X502959D01*
Y876098D01*
X502667D01*
Y875806D01*
X502374D01*
Y875514D01*
X502082D01*
Y875221D01*
X501790D01*
Y874929D01*
X501497D01*
Y874637D01*
X501205D01*
Y874345D01*
X500913D01*
Y874052D01*
X500620D01*
Y873760D01*
X500328D01*
Y873468D01*
X500036D01*
Y873175D01*
X499744D01*
Y872883D01*
X499451D01*
Y872591D01*
X499159D01*
Y872299D01*
X498867D01*
Y872006D01*
X498575D01*
Y871714D01*
X498282D01*
Y871422D01*
X497990D01*
Y871130D01*
X497698D01*
Y870545D01*
X497113D01*
Y870253D01*
X496821D01*
Y869960D01*
X502959D01*
Y870253D01*
X505589D01*
Y869960D01*
X505297D01*
Y869083D01*
X505005D01*
Y867914D01*
X504712D01*
Y866453D01*
X504420D01*
Y864699D01*
X504128D01*
Y863822D01*
X503836D01*
Y863530D01*
X501790D01*
Y863822D01*
X488929D01*
Y863530D01*
X487760D01*
Y863822D01*
X487468D01*
Y868207D01*
X487176D01*
Y869376D01*
X487468D01*
Y869668D01*
X487760D01*
Y869960D01*
X488052D01*
Y870253D01*
X488345D01*
Y870545D01*
X488637D01*
Y870837D01*
X488929D01*
Y871130D01*
X489222D01*
Y871422D01*
X489514D01*
Y871714D01*
X490098D01*
Y872006D01*
X490391D01*
Y872299D01*
X490683D01*
Y872591D01*
X490975D01*
Y872883D01*
X491268D01*
Y873175D01*
X491560D01*
Y873468D01*
X491852D01*
Y873760D01*
X492144D01*
Y874052D01*
X492437D01*
Y874345D01*
X492729D01*
Y874637D01*
X493021D01*
Y874929D01*
X493313D01*
Y875221D01*
X493606D01*
Y875514D01*
X493898D01*
Y875806D01*
X494190D01*
Y876098D01*
X494483D01*
Y876391D01*
X494775D01*
Y876683D01*
X495067D01*
Y876975D01*
X487468D01*
Y878144D01*
X487760D01*
Y879313D01*
X488052D01*
Y880482D01*
X488345D01*
Y881652D01*
X488637D01*
Y883405D01*
X488929D01*
Y883698D01*
X490391D01*
Y883405D01*
D02*
G37*
G36*
X391892Y884282D02*
X392769D01*
Y883990D01*
X393646D01*
Y883698D01*
X393938D01*
Y883405D01*
X394523D01*
Y883113D01*
X395107D01*
Y882821D01*
X395399D01*
Y882528D01*
X395692D01*
Y882236D01*
X395984D01*
Y881944D01*
X396276D01*
Y881652D01*
X396568D01*
Y881359D01*
X396861D01*
Y881067D01*
X397153D01*
Y880775D01*
X397445D01*
Y880190D01*
X397738D01*
Y879606D01*
X398030D01*
Y879021D01*
X398322D01*
Y878437D01*
X398614D01*
Y877560D01*
X398907D01*
Y875806D01*
X399199D01*
Y874345D01*
X398907D01*
Y873175D01*
X398614D01*
Y872883D01*
X398030D01*
Y872591D01*
X396276D01*
Y872299D01*
X393353D01*
Y872006D01*
X390431D01*
Y871714D01*
X387215D01*
Y871422D01*
X386339D01*
Y871130D01*
X386631D01*
Y870545D01*
X386923D01*
Y870253D01*
X387215D01*
Y869960D01*
X387508D01*
Y869668D01*
X388092D01*
Y869376D01*
X388677D01*
Y869083D01*
X390431D01*
Y868791D01*
X391015D01*
Y869083D01*
X392769D01*
Y869376D01*
X393646D01*
Y869668D01*
X394230D01*
Y869960D01*
X394815D01*
Y870253D01*
X395107D01*
Y870545D01*
X395692D01*
Y870837D01*
X396276D01*
Y870545D01*
X396568D01*
Y869960D01*
X396861D01*
Y869668D01*
X397153D01*
Y869083D01*
X397445D01*
Y868499D01*
X397738D01*
Y867914D01*
X398030D01*
Y867330D01*
X398322D01*
Y865868D01*
X398030D01*
Y865576D01*
X397445D01*
Y865284D01*
X397153D01*
Y864992D01*
X396861D01*
Y864699D01*
X396276D01*
Y864407D01*
X395692D01*
Y864115D01*
X395107D01*
Y863822D01*
X393938D01*
Y863530D01*
X392769D01*
Y863238D01*
X388385D01*
Y863530D01*
X386923D01*
Y863822D01*
X385754D01*
Y864115D01*
X385169D01*
Y864407D01*
X384585D01*
Y864699D01*
X384000D01*
Y864992D01*
X383708D01*
Y865284D01*
X383416D01*
Y865576D01*
X382831D01*
Y865868D01*
X382539D01*
Y866161D01*
X382247D01*
Y866453D01*
X381954D01*
Y866745D01*
X381662D01*
Y867330D01*
X381370D01*
Y867622D01*
X381078D01*
Y867914D01*
X380785D01*
Y868499D01*
X380493D01*
Y869083D01*
X380201D01*
Y869960D01*
X379908D01*
Y870837D01*
X379616D01*
Y872883D01*
X379324D01*
Y874929D01*
X379616D01*
Y876975D01*
X379908D01*
Y877852D01*
X380201D01*
Y878729D01*
X380493D01*
Y879313D01*
X380785D01*
Y879898D01*
X381078D01*
Y880482D01*
X381370D01*
Y880775D01*
X381662D01*
Y881067D01*
X381954D01*
Y881359D01*
X382247D01*
Y881652D01*
X382539D01*
Y881944D01*
X382831D01*
Y882236D01*
X383124D01*
Y882528D01*
X383416D01*
Y882821D01*
X383708D01*
Y883113D01*
X384293D01*
Y883405D01*
X384877D01*
Y883698D01*
X385169D01*
Y883990D01*
X386046D01*
Y884282D01*
X387215D01*
Y884574D01*
X391892D01*
Y884282D01*
D02*
G37*
G36*
X582459Y884867D02*
X582752D01*
Y884574D01*
X583044D01*
Y883990D01*
X583336D01*
Y883698D01*
X583628D01*
Y883113D01*
X583921D01*
Y882528D01*
X584213D01*
Y882236D01*
X584505D01*
Y881652D01*
X584798D01*
Y881067D01*
X585090D01*
Y880190D01*
X584798D01*
Y879898D01*
X582167D01*
Y879606D01*
X581582D01*
Y879313D01*
X581290D01*
Y879021D01*
X580998D01*
Y878729D01*
X580705D01*
Y876975D01*
X580998D01*
Y876683D01*
X581290D01*
Y876098D01*
X581582D01*
Y875806D01*
X581875D01*
Y875514D01*
X582167D01*
Y875221D01*
X582459D01*
Y874929D01*
X582752D01*
Y874637D01*
X583044D01*
Y874345D01*
X583336D01*
Y874052D01*
X583628D01*
Y873468D01*
X583921D01*
Y872883D01*
X584213D01*
Y872299D01*
X584505D01*
Y871130D01*
X584798D01*
Y869668D01*
X584505D01*
Y868499D01*
X584213D01*
Y867622D01*
X583921D01*
Y867038D01*
X583628D01*
Y866745D01*
X583336D01*
Y866453D01*
X583044D01*
Y866161D01*
X582752D01*
Y865868D01*
X582459D01*
Y865576D01*
X582167D01*
Y865284D01*
X581582D01*
Y864992D01*
X581290D01*
Y864699D01*
X580705D01*
Y864407D01*
X580121D01*
Y864115D01*
X579536D01*
Y863822D01*
X578660D01*
Y863530D01*
X577783D01*
Y863238D01*
X576029D01*
Y862946D01*
X575444D01*
Y863238D01*
X575152D01*
Y863530D01*
X574860D01*
Y863822D01*
X574568D01*
Y864115D01*
X574275D01*
Y864699D01*
X573983D01*
Y864992D01*
X573691D01*
Y865576D01*
X573399D01*
Y865868D01*
X573106D01*
Y866453D01*
X572814D01*
Y867038D01*
X572522D01*
Y867622D01*
X572229D01*
Y868207D01*
X573106D01*
Y868499D01*
X574568D01*
Y868791D01*
X575737D01*
Y869083D01*
X576321D01*
Y869376D01*
X576614D01*
Y869668D01*
X576906D01*
Y870253D01*
X577198D01*
Y871130D01*
X576906D01*
Y871714D01*
X576614D01*
Y872299D01*
X576321D01*
Y872591D01*
X576029D01*
Y872883D01*
X575737D01*
Y873175D01*
X575444D01*
Y873760D01*
X575152D01*
Y874052D01*
X574860D01*
Y874345D01*
X574568D01*
Y874637D01*
X574275D01*
Y874929D01*
X573983D01*
Y875514D01*
X573691D01*
Y876098D01*
X573399D01*
Y876975D01*
X573106D01*
Y879021D01*
X573399D01*
Y880190D01*
X573691D01*
Y880482D01*
Y880775D01*
X573983D01*
Y881359D01*
X574275D01*
Y881652D01*
X574568D01*
Y881944D01*
X574860D01*
Y882236D01*
X575152D01*
Y882528D01*
X575444D01*
Y882821D01*
X575737D01*
Y883113D01*
X576029D01*
Y883405D01*
X576614D01*
Y883698D01*
X577198D01*
Y883990D01*
X577783D01*
Y884282D01*
X578367D01*
Y884574D01*
X578952D01*
Y884867D01*
X580121D01*
Y885159D01*
X582459D01*
Y884867D01*
D02*
G37*
G36*
X973053Y639639D02*
X973081Y639611D01*
X973062Y639515D01*
X972910Y639362D01*
X972891Y639286D01*
X972814Y639152D01*
X972738Y639076D01*
X972709Y638971D01*
X972595Y638780D01*
X972547Y638675D01*
X972413Y638427D01*
X972356Y638294D01*
X972280Y638160D01*
X972242Y638122D01*
X972223Y638084D01*
X972146Y637912D01*
X972070Y637779D01*
X972032Y637740D01*
X971975Y637607D01*
X971879Y637435D01*
X971841Y637397D01*
X971784Y637263D01*
X971688Y637091D01*
X971555Y636843D01*
X971459Y636710D01*
X971440Y636634D01*
X971307Y636424D01*
X971249Y636290D01*
X971154Y636118D01*
X971116Y636080D01*
X971097Y636042D01*
X971059Y635947D01*
X971030Y635842D01*
X970982Y635775D01*
X970944Y635737D01*
X970925Y635698D01*
X970887Y635660D01*
X970849Y635565D01*
X970677Y635241D01*
X970543Y635031D01*
X970524Y634954D01*
X970448Y634821D01*
X970391Y634763D01*
X970333Y634630D01*
X970295Y634534D01*
X970200Y634401D01*
X970162Y634305D01*
X969894Y633809D01*
X969818Y633676D01*
X969666Y633389D01*
X969589Y633256D01*
X969494Y633084D01*
X969417Y632950D01*
X969188Y632511D01*
X969150Y632473D01*
X969131Y632435D01*
X969036Y632225D01*
X968959Y632092D01*
X968902Y632034D01*
X968845Y631901D01*
X968807Y631805D01*
X968769Y631767D01*
X968749Y631729D01*
X968711Y631691D01*
X968625Y631452D01*
X968559Y631386D01*
X968406Y631099D01*
X968330Y630985D01*
X968311Y630909D01*
X968187Y630727D01*
X968158Y630699D01*
X968091Y630517D01*
X968024Y630412D01*
X967967Y630317D01*
X967929Y630221D01*
X967833Y630050D01*
X967795Y630012D01*
X967757Y629916D01*
X967710Y629792D01*
X967643Y629706D01*
X967471Y629382D01*
X967318Y629096D01*
X967013Y628504D01*
X966822Y628141D01*
X966689Y627932D01*
X966650Y627836D01*
X966555Y627664D01*
X966421Y627416D01*
X966345Y627340D01*
X966307Y627206D01*
X966259Y627082D01*
X966173Y626996D01*
X966154Y626958D01*
X966002Y626672D01*
X965963Y626634D01*
X965792Y626309D01*
X965734Y626176D01*
X965696Y626080D01*
X965610Y625975D01*
X965582Y625947D01*
X965505Y625813D01*
X965477Y625785D01*
X965439Y625766D01*
X965391Y625718D01*
X965372Y625642D01*
X965334Y625393D01*
X965276Y625336D01*
X965257Y625298D01*
X965181Y625126D01*
X965200Y624840D01*
X965238Y624802D01*
X965257Y624764D01*
X965334Y624687D01*
X965353Y624611D01*
X965400Y624487D01*
X965429Y624458D01*
X965448Y624420D01*
X965505Y624363D01*
X965572Y624182D01*
X965753Y623848D01*
X965849Y623676D01*
X965925Y623561D01*
X965973Y623437D01*
X966068Y623285D01*
X966183Y623056D01*
X966250Y622989D01*
X966269Y622951D01*
X966288Y622893D01*
X966336Y622770D01*
X966412Y622655D01*
X966479Y622531D01*
X966574Y622359D01*
X966612Y622321D01*
X966631Y622283D01*
X966669Y622187D01*
X966765Y622016D01*
X966822Y621958D01*
X966860Y621863D01*
X966889Y621758D01*
X966917Y621729D01*
X966937Y621691D01*
X966994Y621634D01*
X967070Y621443D01*
X967299Y621004D01*
X967337Y620966D01*
X967356Y620928D01*
X967433Y620756D01*
X967490Y620661D01*
X967566Y620546D01*
X967614Y620422D01*
X967690Y620308D01*
X967719Y620279D01*
X967757Y620184D01*
X967776Y620107D01*
X967833Y620012D01*
X967891Y619955D01*
X967910Y619916D01*
X967948Y619821D01*
X967967Y619745D01*
X968053Y619640D01*
X968120Y619535D01*
X968158Y619439D01*
X968177Y619401D01*
X968272Y619268D01*
X968311Y619172D01*
X968406Y619001D01*
X968463Y618943D01*
X968540Y618733D01*
X968625Y618628D01*
X968673Y618523D01*
X968721Y618399D01*
X968788Y618294D01*
X968940Y618008D01*
X968998Y617913D01*
X969074Y617703D01*
X969227Y617550D01*
X969255Y617445D01*
X969293Y617350D01*
X969494Y617016D01*
X969513Y616978D01*
X969608Y616768D01*
X969704Y616596D01*
X969780Y616482D01*
X969894Y616272D01*
X970047Y615985D01*
X970238Y615623D01*
X970295Y615527D01*
X970429Y615279D01*
X970467Y615241D01*
X970505Y615146D01*
X970553Y615022D01*
X970601Y614955D01*
X970639Y614917D01*
X970715Y614745D01*
X970734Y614707D01*
X970830Y614573D01*
X970868Y614478D01*
X970916Y614354D01*
X970992Y614277D01*
X971097Y614268D01*
X971164Y614296D01*
X971192Y614325D01*
X971230Y614421D01*
X971288Y614573D01*
X971421Y614783D01*
X971459Y614879D01*
X971555Y615050D01*
X971669Y615260D01*
X971717Y615308D01*
X971755Y615327D01*
X971784Y615356D01*
X971822Y615489D01*
X971841Y615642D01*
X971936Y615737D01*
X971975Y615833D01*
X972051Y615966D01*
X972127Y616043D01*
X972165Y616138D01*
X972213Y616262D01*
X972242Y616291D01*
X972261Y616329D01*
X972394Y616577D01*
X972471Y616691D01*
X972499Y616796D01*
X972595Y616949D01*
X972643Y616997D01*
X972681Y617092D01*
X972747Y617273D01*
X972814Y617340D01*
X972833Y617378D01*
X972910Y617550D01*
X972986Y617684D01*
X973062Y617798D01*
X973081Y617875D01*
X973158Y618008D01*
X973196Y618046D01*
X973215Y618084D01*
X973463Y618562D01*
X973549Y618666D01*
X973644Y618915D01*
X973711Y618981D01*
X973768Y619115D01*
X973816Y619239D01*
X973864Y619306D01*
X973940Y619382D01*
X974007Y619563D01*
X974055Y619630D01*
X974093Y619668D01*
X974112Y619707D01*
X974169Y619840D01*
X974246Y619974D01*
X974589Y620642D01*
X974627Y620680D01*
X974723Y620890D01*
X974742Y620928D01*
X974875Y621119D01*
X974952Y621291D01*
X974971Y621329D01*
X975047Y621443D01*
X975314Y621958D01*
X975410Y622092D01*
X975448Y622187D01*
X975581Y622435D01*
X975734Y622722D01*
X975810Y622836D01*
X975944Y623084D01*
X976097Y623371D01*
X976288Y623733D01*
X976326Y623771D01*
X976364Y623867D01*
X976459Y624039D01*
X976497Y624077D01*
X976650Y624363D01*
X976746Y624496D01*
X976765Y624573D01*
X976803Y624668D01*
X976879Y624802D01*
X977242Y625489D01*
X977318Y625603D01*
X977432Y625851D01*
X977528Y626023D01*
X977623Y626119D01*
X977662Y626252D01*
X977700Y626348D01*
X977785Y626452D01*
X977814Y626481D01*
X977852Y626577D01*
X977967Y626786D01*
X978043Y626920D01*
X978167Y627101D01*
X978253Y627340D01*
X978301Y627388D01*
X978339Y627407D01*
X978367Y627435D01*
X978406Y627569D01*
X978482Y627702D01*
X978539Y627760D01*
X978616Y627970D01*
X978749Y628161D01*
X978778Y628265D01*
X978892Y628456D01*
X978921Y628485D01*
X978997Y628657D01*
X979188Y629019D01*
X979255Y629067D01*
X979284Y629096D01*
X979303Y629172D01*
X979322Y629305D01*
X979341Y629344D01*
X979474Y629477D01*
X979512Y629630D01*
X979570Y629725D01*
X979646Y629802D01*
X979684Y629897D01*
X979713Y630021D01*
X979761Y630088D01*
X979818Y630145D01*
X979856Y630241D01*
X979904Y630365D01*
X979951Y630431D01*
X979990Y630470D01*
X980085Y630641D01*
X980200Y630756D01*
X980238Y630889D01*
X980257Y630985D01*
X980390Y631118D01*
X980409Y631195D01*
X980428Y631328D01*
X980448Y631367D01*
X980495Y631414D01*
X980534Y631433D01*
X980581Y631481D01*
X980600Y631557D01*
X980610Y631605D01*
X980600Y631615D01*
X980619Y631672D01*
X980639Y631748D01*
X980686Y631796D01*
X980724Y631815D01*
X980772Y631863D01*
X980801Y631968D01*
X980839Y632063D01*
X980887Y632111D01*
X980906Y632149D01*
X980982Y632282D01*
X981068Y632368D01*
X981106Y632388D01*
X981135Y632473D01*
X981163Y632636D01*
X981182Y632674D01*
X981220Y632693D01*
X981306Y632779D01*
X981326Y632855D01*
X981345Y632989D01*
X981392Y633055D01*
X981430Y633074D01*
X981478Y633122D01*
X981516Y633256D01*
X981545Y633361D01*
X981650Y633466D01*
X981669Y633504D01*
X981755Y633628D01*
X981793Y633647D01*
X981860Y633714D01*
X981879Y633790D01*
X981898Y633962D01*
X981927Y633991D01*
X982022Y634048D01*
X982051Y634134D01*
X982070Y634305D01*
X982117Y634353D01*
X982156Y634372D01*
X982222Y634439D01*
X982242Y634477D01*
X982289Y634544D01*
X982365Y634563D01*
X985419Y634544D01*
X985467Y634515D01*
X985486Y634439D01*
X985467Y634401D01*
X985390Y634324D01*
X985371Y634286D01*
X985257Y634076D01*
X985104Y633790D01*
X985047Y633733D01*
X985028Y633695D01*
X984970Y633561D01*
X984856Y633351D01*
X984780Y633237D01*
X984751Y633132D01*
X984589Y632836D01*
X984512Y632702D01*
X984360Y632416D01*
X984322Y632378D01*
X984303Y632340D01*
X984245Y632206D01*
X984150Y632034D01*
X984112Y631996D01*
X984073Y631901D01*
X983978Y631729D01*
X983921Y631634D01*
X983902Y631557D01*
X983806Y631386D01*
X983749Y631328D01*
X983692Y631195D01*
X983615Y631061D01*
X983577Y631023D01*
X983558Y630985D01*
X983444Y630775D01*
X983329Y630660D01*
X983272Y630565D01*
X983167Y630498D01*
X983138Y630470D01*
X983119Y630221D01*
X983091Y630193D01*
X983053Y630174D01*
X982967Y630107D01*
X982948Y629973D01*
X982928Y629802D01*
X982814Y629592D01*
X982719Y629439D01*
X982700Y629401D01*
X982585Y629153D01*
X982356Y628714D01*
X982318Y628676D01*
X982299Y628638D01*
X982261Y628599D01*
X982222Y628504D01*
X982108Y628294D01*
X981955Y628008D01*
X981879Y627893D01*
X981764Y627683D01*
X981612Y627397D01*
X981554Y627340D01*
X981488Y627159D01*
X981421Y627035D01*
X981402Y626958D01*
X981421Y626901D01*
X981469Y626777D01*
X981507Y626682D01*
X981602Y626529D01*
X981669Y626405D01*
X981764Y626233D01*
X981860Y626023D01*
X981936Y625890D01*
X981974Y625851D01*
X981993Y625813D01*
X982032Y625718D01*
X982079Y625594D01*
X982127Y625527D01*
X982184Y625470D01*
X982242Y625336D01*
X982280Y625241D01*
X982308Y625193D01*
X982346Y625174D01*
X982432Y625031D01*
X982470Y624935D01*
X982566Y624802D01*
X982633Y624621D01*
X982728Y624468D01*
X982871Y624191D01*
X983024Y623924D01*
X983100Y623810D01*
X983158Y623676D01*
X983234Y623542D01*
X983272Y623504D01*
X983367Y623294D01*
X983463Y623122D01*
X983615Y622836D01*
X983654Y622798D01*
X983692Y622703D01*
X983739Y622579D01*
X983768Y622512D01*
X983845Y622397D01*
X983940Y622226D01*
X984035Y622016D01*
X984112Y621882D01*
X984188Y621806D01*
X984245Y621672D01*
X984303Y621577D01*
X984341Y621539D01*
X984360Y621500D01*
X984417Y621367D01*
X984512Y621195D01*
X984570Y621100D01*
X984722Y620813D01*
X984932Y620413D01*
X985085Y620126D01*
X985123Y620088D01*
X985142Y620050D01*
X985409Y619535D01*
X985457Y619487D01*
X985553Y619468D01*
X985657Y619554D01*
X985676Y619592D01*
X985925Y620069D01*
X986020Y620203D01*
X986068Y620327D01*
X986182Y620518D01*
X986230Y620623D01*
X986268Y620718D01*
X986344Y620852D01*
X986421Y620966D01*
X986612Y621329D01*
X986745Y621577D01*
X986802Y621672D01*
X986917Y621882D01*
X987146Y622321D01*
X987270Y622502D01*
X987375Y622741D01*
X987470Y622913D01*
X987547Y623027D01*
X987814Y623542D01*
X987890Y623657D01*
X988195Y624229D01*
X988253Y624287D01*
X988310Y624420D01*
X988358Y624544D01*
X988405Y624592D01*
X988425Y624630D01*
X988482Y624725D01*
X988711Y625164D01*
X988787Y625279D01*
X989111Y625909D01*
X989188Y625985D01*
X989226Y626119D01*
X989302Y626252D01*
X989360Y626309D01*
X989379Y626348D01*
X989417Y626443D01*
X989531Y626653D01*
X989799Y627168D01*
X989894Y627321D01*
X989913Y627397D01*
X990008Y627531D01*
X990085Y627607D01*
X990123Y627760D01*
X990199Y627893D01*
X990257Y627951D01*
X990295Y628046D01*
X990314Y628122D01*
X990371Y628218D01*
X990409Y628256D01*
X990428Y628294D01*
X990466Y628332D01*
X990543Y628542D01*
X990638Y628676D01*
X990686Y628800D01*
X990762Y628876D01*
X990800Y628895D01*
X990848Y629000D01*
X990877Y629124D01*
X990905Y629153D01*
X990924Y629191D01*
X990982Y629229D01*
X991001Y629267D01*
X991039Y629363D01*
X991068Y629468D01*
X991163Y629582D01*
X991192Y629611D01*
X991230Y629706D01*
X991258Y629811D01*
X991287Y629878D01*
X991344Y629935D01*
X991363Y629973D01*
X991402Y630012D01*
X991459Y630241D01*
X991545Y630346D01*
X991640Y630498D01*
X991678Y630517D01*
X991745Y630584D01*
X991764Y630660D01*
X991783Y630813D01*
X991850Y630880D01*
X991888Y630899D01*
X991917Y630928D01*
X991955Y631023D01*
X991974Y631157D01*
X992108Y631290D01*
X992146Y631386D01*
X992165Y631500D01*
X992251Y631605D01*
X992298Y631653D01*
X992356Y631882D01*
X992432Y631958D01*
X992451Y631996D01*
X992527Y632130D01*
X992575Y632178D01*
X992661Y632225D01*
X992680Y632302D01*
X992699Y632473D01*
X992766Y632540D01*
X992804Y632559D01*
X992852Y632607D01*
X992871Y632683D01*
X992890Y632836D01*
X992938Y632884D01*
X992976Y632903D01*
X993024Y632950D01*
X993043Y633027D01*
X993081Y633199D01*
X993148Y633265D01*
X993176Y633275D01*
X993195Y633313D01*
X993291Y633447D01*
X993386Y633504D01*
X993405Y633580D01*
X993424Y633771D01*
X993453Y633800D01*
X993491Y633819D01*
X993577Y633885D01*
X993596Y633962D01*
X993615Y634134D01*
X993644Y634162D01*
X993682Y634181D01*
X993749Y634229D01*
X993787Y634324D01*
X993806Y634496D01*
X993835Y634525D01*
X993968Y634563D01*
X997060Y634544D01*
X997107Y634496D01*
X997088Y634382D01*
X997002Y634277D01*
X996898Y634172D01*
X996859Y634019D01*
X996802Y633924D01*
X996726Y633847D01*
X996668Y633657D01*
X996592Y633523D01*
X996535Y633466D01*
X996468Y633284D01*
X996420Y633237D01*
X996401Y633199D01*
X996363Y633160D01*
X996335Y633055D01*
X996316Y632979D01*
X996249Y632874D01*
X996210Y632836D01*
X996191Y632798D01*
X996058Y632550D01*
X996020Y632511D01*
X995962Y632378D01*
X995943Y632340D01*
X995819Y632159D01*
X995772Y632034D01*
X995676Y631863D01*
X995619Y631767D01*
X995524Y631595D01*
X995447Y631481D01*
X995419Y631376D01*
X995380Y631281D01*
X995352Y631252D01*
X995333Y631214D01*
X995275Y631157D01*
X995218Y631023D01*
X995085Y630775D01*
X995008Y630660D01*
X994779Y630221D01*
X994722Y630126D01*
X994655Y629945D01*
X994627Y629916D01*
X994607Y629878D01*
X994550Y629821D01*
X994512Y629725D01*
X994436Y629592D01*
X994398Y629554D01*
X994379Y629515D01*
X994302Y629344D01*
X994226Y629210D01*
X994169Y629115D01*
X994130Y629019D01*
X994054Y628886D01*
X993997Y628828D01*
X993949Y628704D01*
X993854Y628552D01*
X993806Y628447D01*
X993691Y628237D01*
X993653Y628199D01*
X993577Y628027D01*
X993482Y627855D01*
X993386Y627722D01*
X993358Y627559D01*
X993291Y627473D01*
X993281Y627464D01*
X993214Y627340D01*
X993119Y627168D01*
X993062Y627111D01*
X993024Y627015D01*
X992775Y626538D01*
X992604Y626214D01*
X992527Y626100D01*
X992508Y626023D01*
X992461Y625899D01*
X992432Y625871D01*
X992413Y625832D01*
X992337Y625756D01*
X992270Y625575D01*
X992203Y625470D01*
X992165Y625432D01*
X992127Y625336D01*
X992012Y625126D01*
X991936Y625012D01*
X991898Y624916D01*
X991879Y624878D01*
X991783Y624745D01*
X991716Y624563D01*
X991650Y624458D01*
X991516Y624210D01*
X991478Y624172D01*
X991459Y624134D01*
X991402Y624000D01*
X991382Y623924D01*
X991230Y623695D01*
X991182Y623571D01*
X991039Y623371D01*
X991010Y623266D01*
X990963Y623199D01*
X990905Y623142D01*
X990848Y623008D01*
X990800Y622884D01*
X990724Y622770D01*
X990676Y622664D01*
X990581Y622493D01*
X990543Y622455D01*
X990505Y622359D01*
X990457Y622235D01*
X990428Y622206D01*
X990409Y622168D01*
X990352Y622111D01*
X990333Y622073D01*
X990314Y622016D01*
X990266Y621892D01*
X990190Y621777D01*
X990123Y621710D01*
X990094Y621586D01*
X990075Y621510D01*
X989970Y621405D01*
X989913Y621271D01*
X989894Y621195D01*
X989722Y620947D01*
X989627Y620775D01*
X989436Y620413D01*
X989302Y620165D01*
X989264Y620126D01*
X989245Y620088D01*
X989169Y619916D01*
X989092Y619783D01*
X988959Y619535D01*
X988883Y619420D01*
X988844Y619325D01*
X988749Y619153D01*
X988673Y619039D01*
X988653Y618962D01*
X988520Y618714D01*
X988444Y618600D01*
X988425Y618562D01*
X988195Y618123D01*
X988157Y618084D01*
X988119Y617989D01*
X988024Y617817D01*
X987928Y617684D01*
X987861Y617502D01*
X987814Y617436D01*
X987757Y617378D01*
X987690Y617197D01*
X987623Y617092D01*
X987566Y616997D01*
X987518Y616873D01*
X987451Y616768D01*
X987356Y616634D01*
X987108Y616157D01*
X987031Y616043D01*
X986898Y615794D01*
X986860Y615756D01*
X986841Y615718D01*
X986717Y615594D01*
X986583Y615556D01*
X986249Y615565D01*
X986030Y615556D01*
X985972Y615575D01*
X985381Y615556D01*
X985323Y615575D01*
X984837Y615565D01*
X984636Y615575D01*
X984579Y615556D01*
X984369Y615575D01*
X984150Y615737D01*
X984131Y615775D01*
X984073Y615909D01*
X983959Y616119D01*
X983921Y616157D01*
X983883Y616253D01*
X983825Y616405D01*
X983739Y616510D01*
X983654Y616653D01*
X983558Y616825D01*
X983501Y616959D01*
X983425Y617092D01*
X983367Y617149D01*
X983348Y617188D01*
X983291Y617321D01*
X983081Y617722D01*
X983043Y617760D01*
X983024Y617798D01*
X982852Y618123D01*
X982700Y618409D01*
X982566Y618657D01*
X982490Y618791D01*
X982318Y619115D01*
X982242Y619230D01*
X982222Y619306D01*
X982070Y619554D01*
X982003Y619735D01*
X981974Y619764D01*
X981955Y619802D01*
X981898Y619859D01*
X981860Y619955D01*
X981812Y620079D01*
X981726Y620165D01*
X981688Y620260D01*
X981659Y620384D01*
X981593Y620489D01*
X981535Y620546D01*
X981516Y620584D01*
X981459Y620718D01*
X981383Y620852D01*
X981326Y620947D01*
X981230Y621119D01*
X981192Y621157D01*
X981173Y621195D01*
X981116Y621329D01*
X980887Y621749D01*
X980848Y621787D01*
X980677Y622111D01*
X980639Y622149D01*
X980591Y622273D01*
X980534Y622426D01*
X980457Y622541D01*
X980295Y622836D01*
X980238Y622932D01*
X980171Y623113D01*
X980123Y623180D01*
X980066Y623237D01*
X980018Y623361D01*
X979951Y623466D01*
X979913Y623504D01*
X979894Y623542D01*
X979856Y623638D01*
X979808Y623762D01*
X979770Y623800D01*
X979675Y623781D01*
X979627Y623733D01*
X979608Y623695D01*
X979512Y623542D01*
X979465Y623418D01*
X979389Y623304D01*
X979360Y623275D01*
X979341Y623237D01*
X979226Y623027D01*
X979169Y622970D01*
X979093Y622760D01*
X979007Y622655D01*
X978959Y622550D01*
X978768Y622187D01*
X978692Y622054D01*
X978539Y621729D01*
X978463Y621596D01*
X978367Y621462D01*
X978339Y621357D01*
X978263Y621243D01*
X978215Y621195D01*
X978139Y621023D01*
X978120Y620985D01*
X978024Y620832D01*
X977890Y620584D01*
X977833Y620451D01*
X977719Y620241D01*
X977623Y620088D01*
X977223Y619325D01*
X977127Y619153D01*
X977032Y619001D01*
X977013Y618962D01*
X976841Y618638D01*
X976803Y618600D01*
X976746Y618466D01*
X976698Y618342D01*
X976650Y618294D01*
X976631Y618256D01*
X976478Y617970D01*
X976421Y617913D01*
X976383Y617817D01*
X976288Y617646D01*
X976249Y617607D01*
X976230Y617569D01*
X976173Y617436D01*
X975906Y616920D01*
X975601Y616348D01*
X975505Y616214D01*
X975467Y616119D01*
X975352Y615909D01*
X975295Y615814D01*
X975247Y615690D01*
X975171Y615575D01*
X975123Y615489D01*
X975085Y615394D01*
X975028Y615298D01*
X974971Y615241D01*
X974913Y615107D01*
X974866Y614983D01*
X974761Y614879D01*
X974723Y614783D01*
X974675Y614659D01*
X974579Y614544D01*
X974532Y614421D01*
X974503Y614315D01*
X974455Y614268D01*
X974436Y614230D01*
X974398Y614192D01*
X974351Y614067D01*
X974303Y614001D01*
X974246Y613943D01*
X974226Y613905D01*
X974169Y613772D01*
X974093Y613638D01*
X973921Y613314D01*
X973845Y613199D01*
X973797Y613075D01*
X973740Y612961D01*
X973673Y612875D01*
X973654Y612836D01*
X973616Y612741D01*
X973597Y612665D01*
X973540Y612569D01*
X973501Y612531D01*
X973482Y612493D01*
X973406Y612321D01*
X973387Y612283D01*
X973291Y612150D01*
X973158Y611902D01*
X973081Y611787D01*
X973062Y611711D01*
X972938Y611529D01*
X972891Y611405D01*
X972871Y611329D01*
X972795Y611195D01*
X972738Y611138D01*
X972681Y611004D01*
X972604Y610871D01*
X972566Y610833D01*
X972394Y610508D01*
X972328Y610423D01*
X972232Y610384D01*
X971851Y610403D01*
X971793Y610384D01*
X971068Y610403D01*
X971011Y610384D01*
X969809Y610403D01*
X969704Y610508D01*
X969341Y611195D01*
X969265Y611310D01*
X969236Y611415D01*
X969208Y611482D01*
X969122Y611587D01*
X969026Y611835D01*
X968902Y611959D01*
X968883Y612035D01*
X968864Y612150D01*
X968778Y612254D01*
X968740Y612274D01*
X968654Y612417D01*
X968635Y612474D01*
X968559Y612589D01*
X968511Y612713D01*
X968416Y612865D01*
X968368Y612951D01*
X968301Y613132D01*
X968225Y613247D01*
X968091Y613514D01*
X967986Y613657D01*
X967958Y613781D01*
X967891Y613886D01*
X967814Y613963D01*
X967795Y614001D01*
X967700Y614172D01*
X967509Y614535D01*
X967433Y614707D01*
X967356Y614840D01*
X967280Y614917D01*
X967242Y615012D01*
X967213Y615117D01*
X967118Y615270D01*
X967070Y615375D01*
X967003Y615556D01*
X966956Y615604D01*
X966937Y615642D01*
X966898Y615680D01*
X966860Y615775D01*
X966784Y615909D01*
X966689Y616004D01*
X966631Y616138D01*
X966612Y616176D01*
X966536Y616310D01*
X966402Y616558D01*
X966307Y616768D01*
X966211Y616940D01*
X966087Y617178D01*
X966049Y617197D01*
X966002Y617245D01*
X965963Y617378D01*
X965944Y617493D01*
X965906Y617531D01*
X965887Y617569D01*
X965858Y617598D01*
X965830Y617607D01*
X965811Y617646D01*
X965772Y617741D01*
X965753Y617836D01*
X965667Y617941D01*
X965601Y618008D01*
X965524Y618180D01*
X965353Y618504D01*
X965267Y618609D01*
X965219Y618733D01*
X965124Y618905D01*
X965086Y618943D01*
X964990Y619210D01*
X964904Y619315D01*
X964771Y619582D01*
X964685Y619668D01*
X964647Y619764D01*
X964599Y619888D01*
X964570Y619916D01*
X964551Y619955D01*
X964513Y619993D01*
X964341Y620355D01*
X964036Y620928D01*
X963960Y621042D01*
X963941Y621119D01*
X963864Y621252D01*
X963826Y621291D01*
X963807Y621329D01*
X963750Y621462D01*
X963702Y621586D01*
X963616Y621672D01*
X963597Y621710D01*
X963444Y621997D01*
X963349Y622149D01*
X963301Y622273D01*
X963273Y622302D01*
X963139Y622550D01*
X963063Y622664D01*
X962996Y622846D01*
X962919Y622960D01*
X962853Y623027D01*
X962824Y623132D01*
X962786Y623228D01*
X962738Y623294D01*
X962681Y623352D01*
X962643Y623447D01*
X962576Y623628D01*
X962528Y623695D01*
X962490Y623733D01*
X962471Y623771D01*
X962395Y623943D01*
X962376Y623981D01*
X962280Y624115D01*
X962233Y624239D01*
X962156Y624353D01*
X962128Y624382D01*
X961803Y625012D01*
X961670Y625260D01*
X961555Y625432D01*
X961517Y625527D01*
X961402Y625737D01*
X961269Y625985D01*
X961231Y626023D01*
X961192Y626119D01*
X961145Y626243D01*
X961049Y626395D01*
X960734Y626996D01*
X960677Y627054D01*
X960639Y627149D01*
X960591Y627273D01*
X960544Y627340D01*
X960467Y627454D01*
X960420Y627579D01*
X960324Y627731D01*
X960162Y628027D01*
X960124Y628065D01*
X960067Y628199D01*
X959971Y628370D01*
X959933Y628409D01*
X959885Y628533D01*
X959609Y629038D01*
X959418Y629401D01*
X959341Y629515D01*
X959246Y629687D01*
X959170Y629821D01*
X959017Y630107D01*
X958750Y630603D01*
X958673Y630718D01*
X958607Y630899D01*
X958578Y630928D01*
X958559Y630966D01*
X958483Y631042D01*
X958464Y631080D01*
X958273Y631443D01*
X958196Y631615D01*
X958149Y631739D01*
X958101Y631805D01*
X958025Y631920D01*
X957929Y632092D01*
X957796Y632340D01*
X957719Y632473D01*
X957586Y632721D01*
X957548Y632760D01*
X957490Y632893D01*
X957376Y633103D01*
X957299Y633218D01*
X956994Y633809D01*
X956861Y634057D01*
X956784Y634191D01*
X956574Y634592D01*
X956479Y634725D01*
X956422Y634821D01*
X956374Y634945D01*
X956307Y635050D01*
X956250Y635145D01*
X956164Y635384D01*
X956116Y635431D01*
X956097Y635470D01*
X956059Y635508D01*
X956021Y635603D01*
X955945Y635737D01*
X955906Y635775D01*
X955887Y635813D01*
X955830Y635947D01*
X955735Y636118D01*
X955639Y636271D01*
X955525Y636519D01*
X955410Y636729D01*
X955315Y636863D01*
X955267Y636987D01*
X955229Y637082D01*
X955200Y637111D01*
X955181Y637149D01*
X955143Y637187D01*
X955086Y637321D01*
X955010Y637454D01*
X954933Y637569D01*
X954628Y638160D01*
X954475Y638447D01*
X954418Y638504D01*
X954380Y638599D01*
X954265Y638809D01*
X954189Y638981D01*
X954132Y639076D01*
X954074Y639133D01*
X954055Y639172D01*
X953941Y639382D01*
X953884Y639439D01*
X953865Y639477D01*
X953845Y639534D01*
X953865Y639649D01*
X953988Y639696D01*
X954189Y639687D01*
X972957Y639696D01*
X973053Y639639D01*
D02*
G37*
G36*
X941832Y634372D02*
X944514Y634382D01*
X944704Y634363D01*
X944800Y634324D01*
X944857Y634267D01*
X945124Y633752D01*
X945220Y633599D01*
X945487Y633103D01*
X945525Y633065D01*
X945544Y633027D01*
X945620Y632855D01*
X945716Y632683D01*
X946021Y632111D01*
X946117Y631977D01*
X946136Y631901D01*
X946222Y631796D01*
X946308Y631653D01*
X946336Y631548D01*
X946412Y631433D01*
X946517Y631195D01*
X946575Y631099D01*
X946670Y630966D01*
X946708Y630870D01*
X946756Y630746D01*
X946804Y630680D01*
X946842Y630641D01*
X946880Y630546D01*
X946928Y630422D01*
X946975Y630355D01*
X947052Y630279D01*
X947071Y630202D01*
X947147Y630069D01*
X947491Y629420D01*
X947529Y629382D01*
X947548Y629344D01*
X947624Y629172D01*
X947701Y629038D01*
X947739Y629000D01*
X947777Y628905D01*
X947844Y628723D01*
X947872Y628695D01*
X947891Y628657D01*
X947930Y628619D01*
X947949Y628580D01*
X948082Y628332D01*
X948120Y628294D01*
X948158Y628199D01*
X948254Y628027D01*
X948292Y627989D01*
X948349Y627855D01*
X948369Y627779D01*
X948464Y627645D01*
X948502Y627607D01*
X948616Y627397D01*
X948655Y627359D01*
X948741Y627121D01*
X948788Y627073D01*
X948807Y627035D01*
X948846Y626996D01*
X948931Y626758D01*
X949008Y626643D01*
X949036Y626615D01*
X949074Y626519D01*
X949151Y626386D01*
X949208Y626329D01*
X949265Y626195D01*
X949313Y626071D01*
X949361Y626004D01*
X949437Y625890D01*
X949466Y625785D01*
X949542Y625670D01*
X949609Y625546D01*
X949657Y625422D01*
X949733Y625308D01*
X949819Y625164D01*
X949838Y625126D01*
X949971Y624916D01*
X950000Y624811D01*
X950096Y624659D01*
X950124Y624630D01*
X950162Y624535D01*
X950353Y624172D01*
X950430Y624039D01*
X950506Y623924D01*
X950544Y623829D01*
X950592Y623704D01*
X950620Y623676D01*
X950639Y623638D01*
X950677Y623600D01*
X950697Y623561D01*
X950735Y623466D01*
X950782Y623342D01*
X950830Y623294D01*
X950849Y623256D01*
X950888Y623218D01*
X950926Y623122D01*
X950983Y623027D01*
X951021Y622989D01*
X951040Y622951D01*
X951097Y622817D01*
X951174Y622684D01*
X951231Y622588D01*
X951269Y622493D01*
X951346Y622359D01*
X951441Y622226D01*
X951469Y622121D01*
X951536Y622016D01*
X951594Y621958D01*
X951651Y621825D01*
X951679Y621720D01*
X951708Y621691D01*
X951727Y621653D01*
X951784Y621596D01*
X951823Y621500D01*
X951870Y621376D01*
X951966Y621224D01*
X952013Y621119D01*
X952090Y620985D01*
X952166Y620871D01*
X952300Y620623D01*
X952815Y619649D01*
X952872Y619592D01*
X952929Y619459D01*
X953025Y619287D01*
X953063Y619249D01*
X953120Y619115D01*
X953216Y618943D01*
X953292Y618772D01*
X953368Y618638D01*
X953426Y618581D01*
X953464Y618485D01*
X953492Y618380D01*
X953569Y618266D01*
X953655Y618123D01*
X953845Y617760D01*
X953979Y617550D01*
X954170Y617188D01*
X954284Y616978D01*
X954361Y616863D01*
X954399Y616768D01*
X954513Y616558D01*
X954666Y616272D01*
X954800Y616023D01*
X954895Y615890D01*
X954962Y615709D01*
X955057Y615556D01*
X955143Y615413D01*
X955238Y615241D01*
X955277Y615203D01*
X955334Y615069D01*
X955429Y614898D01*
X955563Y614650D01*
X955716Y614363D01*
X955782Y614296D01*
X955859Y614277D01*
X955935Y614296D01*
X955983Y614344D01*
X956021Y614497D01*
X956116Y614669D01*
X956174Y614726D01*
X956231Y614859D01*
X956307Y614993D01*
X956441Y615241D01*
X956536Y615375D01*
X956574Y615470D01*
X956651Y615604D01*
X956689Y615642D01*
X956727Y615737D01*
X956794Y615919D01*
X956822Y615947D01*
X956842Y615985D01*
X956918Y616100D01*
X957051Y616348D01*
X957204Y616634D01*
X957242Y616672D01*
X957319Y616844D01*
X957414Y617016D01*
X957452Y617111D01*
X957529Y617245D01*
X957567Y617283D01*
X957586Y617321D01*
X957624Y617417D01*
X957672Y617541D01*
X957748Y617655D01*
X957815Y617722D01*
X957862Y617846D01*
X957881Y617922D01*
X957977Y618075D01*
X958006Y618104D01*
X958025Y618142D01*
X958139Y618352D01*
X958215Y618466D01*
X958235Y618543D01*
X958320Y618647D01*
X958368Y618695D01*
X958406Y618829D01*
X958454Y618953D01*
X958540Y619039D01*
X958626Y619277D01*
X958731Y619382D01*
X958769Y619478D01*
X958817Y619602D01*
X958864Y619668D01*
X958941Y619783D01*
X958988Y619907D01*
X959065Y620021D01*
X959112Y620107D01*
X959179Y620289D01*
X959208Y620317D01*
X959227Y620355D01*
X959284Y620413D01*
X959322Y620508D01*
X959341Y620584D01*
X959465Y620766D01*
X959532Y620890D01*
X959551Y620928D01*
X959647Y621081D01*
X959694Y621205D01*
X959790Y621357D01*
X959818Y621386D01*
X959857Y621481D01*
X959876Y621558D01*
X959971Y621691D01*
X960048Y621806D01*
X960067Y621901D01*
X960143Y622035D01*
X960172Y622063D01*
X960248Y622082D01*
X960381Y622006D01*
X960410Y621978D01*
X960639Y621539D01*
X960677Y621500D01*
X960696Y621462D01*
X960754Y621329D01*
X960801Y621205D01*
X960830Y621176D01*
X960849Y621138D01*
X960887Y621100D01*
X960906Y621062D01*
X960944Y621023D01*
X961154Y620623D01*
X961269Y620413D01*
X961364Y620203D01*
X961441Y620069D01*
X961498Y620012D01*
X961555Y619878D01*
X961670Y619668D01*
X961803Y619420D01*
X961860Y619325D01*
X961880Y619249D01*
X961889Y619163D01*
X961870Y619086D01*
X961841Y619058D01*
X961832Y619029D01*
X961794Y619010D01*
X961708Y618924D01*
X961679Y618743D01*
X961631Y618676D01*
X961555Y618600D01*
X961498Y618504D01*
X961431Y618438D01*
X961393Y618418D01*
X961364Y618390D01*
X961345Y618313D01*
X961326Y618142D01*
X961278Y618094D01*
X961240Y618075D01*
X961192Y618046D01*
X961154Y617913D01*
X961135Y617779D01*
X961087Y617731D01*
X961049Y617712D01*
X960983Y617646D01*
X960964Y617436D01*
X960897Y617369D01*
X960859Y617350D01*
X960811Y617302D01*
X960792Y617169D01*
X960773Y617073D01*
X960706Y617006D01*
X960668Y616987D01*
X960639Y616959D01*
X960601Y616863D01*
X960582Y616711D01*
X960448Y616577D01*
X960429Y616501D01*
X960400Y616376D01*
X960372Y616348D01*
X960353Y616310D01*
X960315Y616291D01*
X960296Y616253D01*
X960238Y616119D01*
X960219Y616023D01*
X960133Y615919D01*
X960086Y615871D01*
X960019Y615690D01*
X959971Y615623D01*
X959914Y615565D01*
X959857Y615432D01*
X959828Y615327D01*
X959761Y615222D01*
X959723Y615184D01*
X959704Y615146D01*
X959666Y615107D01*
X959618Y614983D01*
X959513Y614764D01*
X959456Y614669D01*
X959389Y614602D01*
X959351Y614583D01*
X959303Y614459D01*
X959284Y614306D01*
X959236Y614258D01*
X959198Y614239D01*
X959170Y614211D01*
X959131Y614115D01*
X959103Y614010D01*
X959007Y613896D01*
X958922Y613695D01*
X958864Y613600D01*
X958788Y613485D01*
X958750Y613390D01*
X958654Y613218D01*
X958559Y613066D01*
X958540Y612989D01*
X958445Y612817D01*
X958368Y612703D01*
X958330Y612607D01*
X958196Y612360D01*
X957987Y611959D01*
X957891Y611825D01*
X957824Y611644D01*
X957729Y611491D01*
X957633Y611281D01*
X957605Y611253D01*
X957586Y611214D01*
X957548Y611176D01*
X957529Y611100D01*
X957452Y610966D01*
X957357Y610871D01*
X957319Y610775D01*
X957299Y610699D01*
X957204Y610527D01*
X957118Y610423D01*
X957023Y610384D01*
X954914Y610394D01*
X954656Y610384D01*
X954532Y610470D01*
X954513Y610508D01*
X954456Y610566D01*
X954399Y610699D01*
X954351Y610823D01*
X954246Y610966D01*
X954218Y611071D01*
X954122Y611224D01*
X954074Y611272D01*
X954055Y611310D01*
X954017Y611405D01*
X953922Y611577D01*
X953884Y611615D01*
X953826Y611749D01*
X953693Y611997D01*
X953597Y612169D01*
X953521Y612283D01*
X953483Y612379D01*
X953387Y612550D01*
X953196Y612913D01*
X953139Y613008D01*
X953006Y613256D01*
X952853Y613543D01*
X952815Y613581D01*
X952796Y613619D01*
X952700Y613829D01*
X952586Y614020D01*
X952548Y614115D01*
X952471Y614249D01*
X952433Y614287D01*
X952414Y614325D01*
X952357Y614459D01*
X952281Y614592D01*
X952090Y614936D01*
X951956Y615184D01*
X951861Y615317D01*
X951794Y615499D01*
X951746Y615565D01*
X951689Y615623D01*
X951651Y615718D01*
X951632Y615794D01*
X951574Y615890D01*
X951479Y616023D01*
X951431Y616147D01*
X951365Y616253D01*
X951193Y616577D01*
X951155Y616615D01*
X951135Y616653D01*
X950907Y617130D01*
X950811Y617302D01*
X950754Y617359D01*
X950687Y617541D01*
X950658Y617569D01*
X950639Y617607D01*
X950582Y617665D01*
X950544Y617760D01*
X950496Y617884D01*
X950410Y617970D01*
X950391Y618008D01*
X950353Y618104D01*
X950286Y618285D01*
X950239Y618333D01*
X950219Y618371D01*
X950086Y618619D01*
X950048Y618657D01*
X949895Y618943D01*
X949723Y619268D01*
X949647Y619382D01*
X949628Y619459D01*
X949504Y619640D01*
X949399Y619878D01*
X949304Y620050D01*
X949189Y620260D01*
X949113Y620374D01*
X949055Y620508D01*
X948884Y620832D01*
X948788Y620966D01*
X948750Y621062D01*
X948702Y621185D01*
X948626Y621300D01*
X948597Y621329D01*
X948559Y621424D01*
X948483Y621558D01*
X948407Y621634D01*
X948369Y621768D01*
X948349Y621882D01*
X948216Y622016D01*
X948178Y622149D01*
X948158Y622245D01*
X948006Y622397D01*
X947701Y622989D01*
X947662Y623027D01*
X947624Y623122D01*
X947510Y623332D01*
X947433Y623447D01*
X947300Y623695D01*
X947262Y623733D01*
X947252Y623762D01*
X947214Y623781D01*
X947157Y623800D01*
X947090Y623752D01*
X946956Y623504D01*
X946880Y623390D01*
X946851Y623285D01*
X946756Y623132D01*
X946708Y623027D01*
X946632Y622893D01*
X946603Y622865D01*
X946565Y622846D01*
X946536Y622817D01*
X946498Y622722D01*
X946479Y622569D01*
X946384Y622435D01*
X946212Y622111D01*
X946174Y622073D01*
X946040Y621825D01*
X945964Y621710D01*
X945945Y621634D01*
X945869Y621500D01*
X945792Y621386D01*
X945764Y621281D01*
X945725Y621185D01*
X945659Y621119D01*
X945639Y621081D01*
X945582Y620947D01*
X945506Y620813D01*
X945449Y620756D01*
X945411Y620661D01*
X945296Y620451D01*
X945239Y620355D01*
X945191Y620231D01*
X945143Y620165D01*
X945086Y620107D01*
X945029Y619974D01*
X945010Y619897D01*
X944924Y619792D01*
X944857Y619668D01*
X944819Y619573D01*
X944800Y619535D01*
X944666Y619344D01*
X944647Y619268D01*
X944552Y619096D01*
X944399Y618810D01*
X944361Y618772D01*
X944323Y618676D01*
X944275Y618552D01*
X944227Y618485D01*
X944151Y618409D01*
X944132Y618333D01*
X944075Y618180D01*
X943979Y618084D01*
X943941Y617989D01*
X943893Y617865D01*
X943827Y617798D01*
X943808Y617760D01*
X943731Y617588D01*
X943655Y617455D01*
X943598Y617359D01*
X943559Y617264D01*
X943502Y617169D01*
X943445Y617111D01*
X943388Y616978D01*
X943340Y616854D01*
X943292Y616787D01*
X943140Y616501D01*
X943063Y616424D01*
X943044Y616386D01*
X943006Y616291D01*
X942987Y616214D01*
X942901Y616109D01*
X942834Y615947D01*
X942815Y615871D01*
X942758Y615775D01*
X942663Y615680D01*
X942605Y615585D01*
X942577Y615556D01*
X942500Y615537D01*
X942424Y615556D01*
X942290Y615575D01*
X941470Y615556D01*
X940172Y615575D01*
X940144Y615604D01*
X940124Y615680D01*
X940105Y615794D01*
X940039Y615880D01*
X940000Y615899D01*
X939914Y615985D01*
X939857Y616081D01*
X939781Y616157D01*
X939743Y616291D01*
X939724Y616386D01*
X939638Y616472D01*
X939600Y616491D01*
X939571Y616577D01*
X939552Y616730D01*
X939504Y616796D01*
X939466Y616815D01*
X939399Y616863D01*
X939380Y616940D01*
X939361Y617111D01*
X939313Y617159D01*
X939218Y617216D01*
X939132Y617378D01*
X939094Y617417D01*
X939075Y617455D01*
X939018Y617588D01*
X938989Y617693D01*
X938884Y617798D01*
X938846Y617894D01*
X938817Y618018D01*
X938770Y618084D01*
X938674Y618180D01*
X938560Y618390D01*
X938407Y618676D01*
X938369Y618714D01*
X938350Y618752D01*
X938311Y618848D01*
X938283Y618953D01*
X938187Y619105D01*
X938159Y619134D01*
X938140Y619172D01*
X938102Y619268D01*
X938006Y619439D01*
X937949Y619497D01*
X937663Y620050D01*
X937567Y620184D01*
X937453Y620394D01*
X937395Y620527D01*
X937357Y620623D01*
X937271Y620728D01*
X937224Y620775D01*
X937186Y620871D01*
X937138Y620995D01*
X937061Y621109D01*
X936957Y621348D01*
X936861Y621520D01*
X936728Y621768D01*
X936651Y621882D01*
X936594Y622016D01*
X936575Y622054D01*
X936479Y622187D01*
X936327Y622474D01*
X936155Y622798D01*
X936098Y622855D01*
X936041Y622989D01*
X936012Y623094D01*
X935936Y623208D01*
X935888Y623294D01*
X935773Y623504D01*
X935735Y623542D01*
X935697Y623638D01*
X935649Y623762D01*
X935621Y623790D01*
X935602Y623829D01*
X935564Y623867D01*
X935544Y623905D01*
X935277Y624420D01*
X935182Y624554D01*
X935115Y624735D01*
X935067Y624802D01*
X934991Y624916D01*
X934857Y625164D01*
X934705Y625451D01*
X934628Y625565D01*
X934590Y625661D01*
X934542Y625785D01*
X934399Y626023D01*
X934361Y626119D01*
X934266Y626252D01*
X934209Y626386D01*
X934113Y626558D01*
X933999Y626767D01*
X933960Y626806D01*
X933941Y626844D01*
X933884Y626977D01*
X933789Y627149D01*
X933712Y627225D01*
X933693Y627302D01*
X933646Y627426D01*
X933617Y627454D01*
X933598Y627493D01*
X933560Y627531D01*
X933474Y627769D01*
X933426Y627817D01*
X933407Y627855D01*
X933350Y627951D01*
X933235Y628161D01*
X933197Y628199D01*
X933140Y628332D01*
X933064Y628466D01*
X932987Y628542D01*
X932949Y628676D01*
X932911Y628771D01*
X932815Y628905D01*
X932749Y629086D01*
X932720Y629115D01*
X932701Y629153D01*
X932644Y629210D01*
X932606Y629305D01*
X932558Y629430D01*
X932510Y629496D01*
X932434Y629611D01*
X932386Y629735D01*
X932291Y629888D01*
X932129Y630183D01*
X931919Y630584D01*
X931747Y630909D01*
X931613Y631157D01*
X931518Y631290D01*
X931470Y631414D01*
X931441Y631481D01*
X931346Y631615D01*
X931298Y631739D01*
X931270Y631805D01*
X931193Y631882D01*
X931174Y631920D01*
X931136Y632015D01*
X931088Y632139D01*
X930984Y632244D01*
X930964Y632321D01*
X930907Y632473D01*
X930821Y632578D01*
X930793Y632607D01*
X930754Y632702D01*
X930659Y632874D01*
X930583Y632989D01*
X930554Y633094D01*
X930487Y633199D01*
X930430Y633256D01*
X930354Y633466D01*
X930268Y633571D01*
X930239Y633599D01*
X930182Y633733D01*
X930106Y633866D01*
X930048Y633962D01*
X930001Y634086D01*
X929896Y634191D01*
X929877Y634267D01*
X929896Y634324D01*
X929924Y634353D01*
X930058Y634372D01*
X930879D01*
X933006Y634382D01*
X933102Y634363D01*
X933168Y634315D01*
X933216Y634267D01*
X933235Y634229D01*
X933312Y634114D01*
X933359Y633991D01*
X933426Y633885D01*
X933503Y633771D01*
X933550Y633647D01*
X933617Y633542D01*
X933712Y633332D01*
X933732Y633294D01*
X933817Y633189D01*
X933865Y633084D01*
X933932Y632903D01*
X933999Y632836D01*
X934018Y632798D01*
X934151Y632550D01*
X934209Y632492D01*
X934285Y632302D01*
X934304Y632263D01*
X934399Y632130D01*
X934485Y631891D01*
X934533Y631824D01*
X934571Y631786D01*
X934705Y631538D01*
X934743Y631500D01*
X934819Y631309D01*
X934838Y631271D01*
X934915Y631157D01*
X934934Y631118D01*
X935048Y630909D01*
X935125Y630794D01*
X935296Y630470D01*
X935449Y630183D01*
X935525Y630069D01*
X935697Y629744D01*
X935850Y629477D01*
X935907Y629344D01*
X936002Y629172D01*
X936155Y628886D01*
X936212Y628828D01*
X936279Y628647D01*
X936346Y628542D01*
X936499Y628256D01*
X936575Y628141D01*
X936603Y628036D01*
X936670Y627932D01*
X936728Y627874D01*
X936766Y627779D01*
X936785Y627702D01*
X936833Y627579D01*
X936899Y627512D01*
X936918Y627473D01*
X936976Y627416D01*
X937014Y627321D01*
X937243Y626882D01*
X937281Y626844D01*
X937625Y626195D01*
X937682Y626138D01*
X937720Y626042D01*
X937768Y625918D01*
X937815Y625851D01*
X937987Y625527D01*
X938083Y625374D01*
X938311Y624935D01*
X938388Y624821D01*
X938407Y624783D01*
X938464Y624649D01*
X938483Y624573D01*
X938569Y624468D01*
X938598Y624439D01*
X938655Y624306D01*
X938750Y624134D01*
X938884Y623886D01*
X938960Y623771D01*
X939008Y623647D01*
X939103Y623495D01*
X939151Y623447D01*
X939208Y623313D01*
X939275Y623132D01*
X939342Y623065D01*
X939361Y623027D01*
X939514Y622741D01*
X939647Y622493D01*
X939819Y622168D01*
X939895Y622054D01*
X939934Y621958D01*
X940029Y621787D01*
X940182Y621500D01*
X940239Y621443D01*
X940325Y621205D01*
X940353Y621176D01*
X940372Y621138D01*
X940411Y621119D01*
X940430Y621081D01*
X940487Y620947D01*
X940563Y620813D01*
X940640Y620699D01*
X940687Y620575D01*
X940754Y620470D01*
X940926Y620145D01*
X940983Y620088D01*
X941059Y619878D01*
X941145Y619773D01*
X941298Y619468D01*
X941374Y619449D01*
X941498Y619535D01*
X941517Y619573D01*
X941594Y619745D01*
X941613Y619783D01*
X941708Y619936D01*
X941880Y620260D01*
X942090Y620661D01*
X942185Y620832D01*
X942281Y620966D01*
X942328Y621090D01*
X942367Y621185D01*
X942443Y621300D01*
X942491Y621405D01*
X942567Y621539D01*
X942624Y621596D01*
X942701Y621787D01*
X942787Y621892D01*
X942901Y622121D01*
X942977Y622235D01*
X943016Y622331D01*
X943130Y622521D01*
X943264Y622789D01*
X943311Y622855D01*
X943388Y623027D01*
X943502Y623237D01*
X943598Y623447D01*
X943674Y623581D01*
X943808Y623829D01*
X943893Y623934D01*
X943941Y624039D01*
X943998Y624191D01*
X944084Y624296D01*
X944113Y624325D01*
X944208Y624496D01*
X944246Y624535D01*
X944285Y624668D01*
X944332Y624792D01*
X944380Y624840D01*
X944399Y624878D01*
X944552Y625164D01*
X944628Y625241D01*
X944704Y625432D01*
X944724Y625470D01*
X944781Y625527D01*
X944800Y625565D01*
X944876Y625737D01*
X944933Y625832D01*
X944991Y625890D01*
X945029Y625985D01*
X945048Y626061D01*
X945096Y626185D01*
X945182Y626271D01*
X945201Y626309D01*
X945277Y626443D01*
X945325Y626491D01*
X945363Y626510D01*
X945411Y626558D01*
X945449Y626710D01*
X945458Y627006D01*
X945439Y627216D01*
X945420Y627330D01*
X945372Y627397D01*
X945267Y627464D01*
X945239Y627493D01*
X945220Y627741D01*
X945191Y627769D01*
X945096Y627827D01*
X945048Y627874D01*
X945029Y628103D01*
X944981Y628151D01*
X944943Y628170D01*
X944895Y628199D01*
X944876Y628237D01*
X944781Y628370D01*
X944724Y628428D01*
X944704Y628504D01*
X944666Y628676D01*
X944619Y628723D01*
X944580Y628743D01*
X944533Y628790D01*
X944514Y628867D01*
X944494Y629000D01*
X944428Y629086D01*
X944390Y629105D01*
X944323Y629172D01*
X944285Y629267D01*
X944189Y629401D01*
X944151Y629496D01*
X944132Y629573D01*
X944046Y629678D01*
X944017Y629706D01*
X943979Y629802D01*
X943960Y629878D01*
X943922Y629973D01*
X943874Y630040D01*
X943836Y630059D01*
X943750Y630202D01*
X943655Y630374D01*
X943369Y630928D01*
X943311Y630985D01*
X943292Y631023D01*
X943216Y631195D01*
X943140Y631328D01*
X943025Y631500D01*
X942987Y631595D01*
X942758Y632034D01*
X942682Y632149D01*
X942548Y632397D01*
X942376Y632721D01*
X942300Y632836D01*
X942281Y632912D01*
X942205Y633046D01*
X942128Y633160D01*
X942109Y633237D01*
X941985Y633418D01*
X941956Y633447D01*
X941880Y633657D01*
X941785Y633790D01*
X941718Y633971D01*
X941651Y634076D01*
X941575Y634153D01*
X941537Y634248D01*
X941556Y634324D01*
X941603Y634372D01*
X941775Y634391D01*
X941832Y634372D01*
D02*
G37*
G36*
X344687Y592990D02*
X344719Y592958D01*
X344762Y592809D01*
X344740Y590076D01*
X344666Y590001D01*
X344378Y590012D01*
X331343Y590001D01*
X331322D01*
X330255Y589980D01*
X330105Y589873D01*
X330030Y589798D01*
X329988Y589692D01*
X329966Y589478D01*
X329988Y583799D01*
X330073Y583650D01*
X330404Y583511D01*
X344559Y583532D01*
X344602Y583554D01*
X344708Y583489D01*
X344740Y583457D01*
X344762Y583415D01*
X344804Y583308D01*
X344783Y580618D01*
X344751Y580586D01*
X344602Y580543D01*
X344324Y580564D01*
X329593Y580586D01*
X329529Y580607D01*
X329304Y580661D01*
X329198Y580703D01*
X329102Y580735D01*
X328803Y580778D01*
X328664Y580831D01*
X328536Y580917D01*
X328418Y580949D01*
X328333Y580970D01*
X328184Y581056D01*
X328141Y581098D01*
X328098Y581120D01*
X327863Y581248D01*
X327714Y581397D01*
X327671Y581418D01*
X327383Y581707D01*
X327255Y581942D01*
X327212Y581984D01*
X327191Y582027D01*
X327127Y582176D01*
X327095Y582294D01*
X327020Y582411D01*
X326956Y582561D01*
X326935Y582710D01*
X326903Y582977D01*
X326860Y583212D01*
X326838Y583319D01*
X326817Y583489D01*
X326806Y590097D01*
X326828Y590161D01*
X326881Y590492D01*
X326913Y590610D01*
X326935Y590695D01*
X326956Y590994D01*
X327041Y591143D01*
X327084Y591186D01*
X327127Y591293D01*
X327159Y591474D01*
X327212Y591549D01*
X327266Y591602D01*
X327298Y591613D01*
X327319Y591656D01*
X327426Y591848D01*
X327490Y591912D01*
X327511Y591955D01*
X327629Y592072D01*
X327671Y592094D01*
X327778Y592200D01*
X327927Y592286D01*
X327981Y592339D01*
X327991Y592371D01*
X328034Y592392D01*
X328269Y592520D01*
X328312Y592563D01*
X328525Y592627D01*
X328728Y592702D01*
X328952Y592798D01*
X329102Y592819D01*
X329315Y592841D01*
X329763Y592905D01*
X329870Y592948D01*
X329956Y592969D01*
X330169Y592948D01*
X330255Y592969D01*
X330617Y593012D01*
X344687Y592990D01*
D02*
G37*
G36*
X377780Y596812D02*
X377908Y596726D01*
X377993Y596705D01*
X378132Y596673D01*
X378239Y596630D01*
X378292Y596577D01*
X378335Y596556D01*
X378441Y596513D01*
X378527Y596492D01*
X378666Y596438D01*
X378698Y596406D01*
X378890Y596321D01*
X379093Y596246D01*
X379189Y596150D01*
X379231Y596129D01*
X379338Y596086D01*
X379455Y596054D01*
X379530Y596001D01*
X379637Y595894D01*
X379776Y595840D01*
X379808Y595808D01*
X379851Y595787D01*
X379925Y595712D01*
X379936Y595702D01*
X380075Y595648D01*
X380107Y595616D01*
X380139Y595606D01*
X380160Y595563D01*
X380192Y595531D01*
X380235Y595509D01*
X380384Y595403D01*
X380491Y595296D01*
X380534Y595275D01*
X380630Y595200D01*
X380651Y595157D01*
X380726Y595083D01*
X380769Y595061D01*
X380875Y594954D01*
X380918Y594933D01*
X381206Y594645D01*
X381228Y594602D01*
X381398Y594431D01*
X381420Y594389D01*
X381462Y594346D01*
X381484Y594303D01*
X381516Y594271D01*
X381548Y594260D01*
X381569Y594218D01*
X381612Y594175D01*
X381687Y594036D01*
X381729Y594015D01*
X381804Y593940D01*
X381911Y593748D01*
X381975Y593684D01*
X382039Y593535D01*
X382060Y593492D01*
X382156Y593374D01*
X382210Y593321D01*
X382263Y593182D01*
X382370Y593012D01*
X382402Y592980D01*
X382434Y592862D01*
X382455Y592777D01*
X382498Y592670D01*
X382530Y592638D01*
X382551Y592595D01*
X382615Y592446D01*
X382637Y592360D01*
X382690Y592222D01*
X382808Y591997D01*
X382829Y591912D01*
X382861Y591666D01*
X382925Y591496D01*
X383000Y591314D01*
X383021Y591165D01*
X383042Y590951D01*
X383064Y590546D01*
X383085Y590482D01*
X383096Y589873D01*
X383053Y589830D01*
X382968Y589809D01*
X382178Y589830D01*
X382124Y589884D01*
X382103Y589969D01*
X382082Y590780D01*
X382060Y590844D01*
X382028Y590983D01*
X381996Y591101D01*
X381954Y591208D01*
X381911Y591378D01*
X381889Y591528D01*
X381815Y591730D01*
X381761Y591848D01*
X381719Y591955D01*
X381687Y592094D01*
X381665Y592200D01*
X381590Y592318D01*
X381548Y592360D01*
X381505Y592467D01*
X381484Y592552D01*
X381398Y592702D01*
X381292Y592809D01*
X381260Y592926D01*
X381228Y593001D01*
X381132Y593118D01*
X381100Y593150D01*
X380993Y593343D01*
X380886Y593449D01*
X380801Y593599D01*
X380672Y593727D01*
X380608Y593834D01*
X380534Y593908D01*
X380491Y593930D01*
X380406Y594058D01*
X380288Y594154D01*
X380224Y594218D01*
X380203Y594260D01*
X380171Y594292D01*
X380128Y594314D01*
X380032Y594389D01*
X380011Y594431D01*
X379957Y594485D01*
X379851Y594549D01*
X379701Y594698D01*
X379552Y594784D01*
X379466Y594869D01*
X379423Y594890D01*
X379274Y594976D01*
X379146Y595104D01*
X378943Y595179D01*
X378847Y595275D01*
X378804Y595296D01*
X378698Y595339D01*
X378580Y595371D01*
X378505Y595424D01*
X378463Y595467D01*
X378420Y595488D01*
X378313Y595531D01*
X378228Y595552D01*
X378121Y595595D01*
X378057Y595659D01*
X378014Y595680D01*
X377865Y595744D01*
X377694Y595766D01*
X377587Y595808D01*
X377395Y595915D01*
X377321Y595969D01*
X377299Y596033D01*
X377363Y596182D01*
X377406Y596353D01*
X377459Y596492D01*
X377513Y596588D01*
X377555Y596694D01*
X377619Y596801D01*
X377651Y596833D01*
X377780Y596812D01*
D02*
G37*
G36*
X377224Y595253D02*
X377246D01*
X377363Y595221D01*
X377609Y595104D01*
X377844Y595040D01*
X378036Y594933D01*
X378271Y594826D01*
X378313Y594805D01*
X378377Y594741D01*
X378420Y594720D01*
X378698Y594570D01*
X378783Y594485D01*
X379018Y594357D01*
X379061Y594314D01*
X379103Y594292D01*
X379189Y594207D01*
X379231Y594186D01*
X379253Y594143D01*
X379295Y594122D01*
X379359Y594058D01*
X379402Y594036D01*
X379520Y593940D01*
X379616Y593844D01*
X379658Y593823D01*
X379776Y593705D01*
X379797Y593663D01*
X380011Y593449D01*
X380032Y593406D01*
X380160Y593278D01*
X380181Y593236D01*
X380331Y593044D01*
X380438Y592851D01*
X380544Y592745D01*
X380566Y592702D01*
X380608Y592595D01*
X380630Y592552D01*
X380726Y592435D01*
X380758Y592403D01*
X380801Y592254D01*
X380854Y592115D01*
X380907Y592040D01*
X380993Y591848D01*
X381025Y591709D01*
X381089Y591538D01*
X381163Y591400D01*
X381185Y591314D01*
X381206Y591165D01*
X381228Y590951D01*
X381270Y590844D01*
X381334Y590695D01*
X381356Y590332D01*
X381377Y590268D01*
X381398Y589905D01*
X381324Y589830D01*
X381238Y589809D01*
X379829Y589830D01*
X379754Y589905D01*
X379733Y590012D01*
X379754Y590076D01*
X379722Y590364D01*
X379669Y590546D01*
X379648Y590695D01*
X379626Y590909D01*
X379573Y591047D01*
X379488Y591175D01*
X379434Y591314D01*
X379402Y591474D01*
X379327Y591592D01*
X379263Y591656D01*
X379189Y591859D01*
X379114Y591976D01*
X379050Y592040D01*
X378943Y592232D01*
X378836Y592339D01*
X378815Y592382D01*
X378772Y592424D01*
X378762Y592456D01*
X378719Y592478D01*
X378623Y592574D01*
X378601Y592617D01*
X378356Y592862D01*
X378313Y592883D01*
X378217Y592958D01*
X378196Y593001D01*
X378143Y593054D01*
X377993Y593140D01*
X377886Y593246D01*
X377780Y593289D01*
X377673Y593353D01*
X377587Y593438D01*
X377545Y593460D01*
X377438Y593503D01*
X377321Y593535D01*
X377289Y593567D01*
X377246Y593588D01*
X377182Y593652D01*
X377032Y593695D01*
X376894Y593727D01*
X376787Y593769D01*
X376605Y593866D01*
X376552Y594004D01*
X376573Y594068D01*
X376595Y594111D01*
X376701Y594260D01*
X376744Y594410D01*
X376765Y594495D01*
X376808Y594688D01*
X376936Y594965D01*
X376958Y595051D01*
X376990Y595168D01*
X377022Y595243D01*
X377054Y595275D01*
X377224Y595253D01*
D02*
G37*
G36*
X365354Y592755D02*
X365407Y592702D01*
X365450Y592446D01*
X365429Y592104D01*
X365439Y591517D01*
X365429Y580639D01*
X365450Y580575D01*
X365429Y580426D01*
X365354Y580351D01*
X361255Y580372D01*
X361191Y580394D01*
X360998Y580415D01*
X360764Y580522D01*
X360593Y580564D01*
X360401Y580586D01*
X360187Y580735D01*
X360048Y580767D01*
X359963Y580789D01*
X359846Y580863D01*
X359803Y580906D01*
X359653Y580970D01*
X359611Y580992D01*
X359461Y581141D01*
X359269Y581248D01*
X359141Y581376D01*
X359098Y581397D01*
X358949Y581547D01*
X358906Y581568D01*
X358533Y581942D01*
X358511Y581984D01*
X358404Y582134D01*
X358276Y582262D01*
X358255Y582304D01*
X358084Y582475D01*
X358063Y582518D01*
X357892Y582689D01*
X357871Y582732D01*
X357796Y582828D01*
X357753Y582849D01*
X357700Y582902D01*
X357679Y582945D01*
X357636Y582988D01*
X357615Y583030D01*
X357583Y583063D01*
X357540Y583084D01*
X357508Y583116D01*
X357486Y583158D01*
X357390Y583276D01*
X357294Y583372D01*
X357273Y583415D01*
X357177Y583532D01*
X357102Y583607D01*
X357017Y583756D01*
X356942Y583831D01*
X356899Y583852D01*
X356814Y583980D01*
X356654Y584141D01*
X356632Y584183D01*
X356440Y584375D01*
X356419Y584418D01*
X356248Y584589D01*
X356227Y584632D01*
X356056Y584803D01*
X356035Y584845D01*
X355938Y584963D01*
X355864Y585037D01*
X355842Y585080D01*
X355746Y585197D01*
X355650Y585294D01*
X355576Y585432D01*
X355533Y585454D01*
X355415Y585571D01*
X355394Y585614D01*
X355223Y585785D01*
X355202Y585827D01*
X355031Y585998D01*
X355010Y586041D01*
X354967Y586083D01*
X354946Y586126D01*
X354914Y586158D01*
X354882Y586169D01*
X354860Y586212D01*
X354818Y586254D01*
X354796Y586297D01*
X354754Y586340D01*
X354732Y586382D01*
X354583Y586532D01*
X354561Y586575D01*
X354433Y586703D01*
X354412Y586745D01*
X354316Y586863D01*
X354220Y586959D01*
X354198Y587001D01*
X354102Y587119D01*
X354060Y587140D01*
X354006Y587194D01*
X353985Y587236D01*
X353942Y587279D01*
X353921Y587322D01*
X353846Y587375D01*
X353814Y587407D01*
X353793Y587450D01*
X353750Y587493D01*
X353729Y587535D01*
X353601Y587663D01*
X353579Y587706D01*
X353483Y587823D01*
X353409Y587898D01*
X353387Y587941D01*
X353344Y587984D01*
X353323Y588026D01*
X353131Y588218D01*
X353110Y588261D01*
X352982Y588389D01*
X352896Y588539D01*
X352821Y588592D01*
X352768Y588646D01*
X352747Y588688D01*
X352651Y588784D01*
X352608Y588806D01*
X352576Y588838D01*
X352555Y588880D01*
X352458Y588998D01*
X352288Y589169D01*
X352245Y589190D01*
X352074Y589361D01*
X351882Y589468D01*
X351818Y589532D01*
X351711Y589574D01*
X351626Y589595D01*
X351476Y589681D01*
X351284Y589766D01*
X351007Y589788D01*
X350857Y589809D01*
X350793Y589788D01*
X350751Y589766D01*
X350697Y589713D01*
X350676Y589542D01*
X350697Y589478D01*
X350676Y580404D01*
X350644Y580372D01*
X350558Y580351D01*
X347719Y580372D01*
X347665Y580426D01*
X347644Y580511D01*
X347665Y580981D01*
X347644Y586425D01*
X347612Y586479D01*
X347505Y586521D01*
X346054Y586500D01*
X346021Y586468D01*
X346000Y586382D01*
X345979Y584034D01*
X345925Y583980D01*
X345840Y584002D01*
X345808Y584034D01*
X345787Y584119D01*
X345797Y586414D01*
X345765Y586489D01*
X345733Y586521D01*
X345605Y586543D01*
X345456Y586457D01*
X345413Y586414D01*
X345370Y586393D01*
X345178Y586308D01*
X345029Y586222D01*
X344901Y586137D01*
X344783Y586105D01*
X344676Y586062D01*
X344644Y586030D01*
X344602Y586009D01*
X344559Y585966D01*
X344452Y585923D01*
X344335Y585891D01*
X344217Y585817D01*
X344196Y585795D01*
X344185Y585785D01*
X344089Y585731D01*
X343940Y585689D01*
X343790Y585603D01*
X343726Y585539D01*
X343641Y585518D01*
X343438Y585443D01*
X343363Y585368D01*
X343321Y585347D01*
X343214Y585304D01*
X343075Y585251D01*
X342915Y585133D01*
X342766Y585091D01*
X342616Y585005D01*
X342573Y584963D01*
X342531Y584941D01*
X342424Y584899D01*
X342307Y584866D01*
X342232Y584813D01*
X342189Y584771D01*
X342146Y584749D01*
X341997Y584685D01*
X341880Y584653D01*
X341805Y584600D01*
X341741Y584536D01*
X341634Y584493D01*
X341549Y584472D01*
X341357Y584365D01*
X341314Y584322D01*
X341228Y584301D01*
X341090Y584247D01*
X340865Y584130D01*
X340791Y584183D01*
X340801Y584429D01*
X340791Y586212D01*
X340812Y586276D01*
X340791Y586425D01*
X340716Y586500D01*
X340567Y586521D01*
X338944Y586500D01*
X338891Y586446D01*
X338869Y586361D01*
X338891Y585955D01*
X338869Y585785D01*
X338837Y585731D01*
X338730Y585689D01*
X331002Y585710D01*
X330906Y585785D01*
X330884Y585870D01*
X330906Y587706D01*
X330980Y587781D01*
X331151Y587823D01*
X331557Y587802D01*
X338741Y587813D01*
X338816Y587760D01*
X338869Y587706D01*
X338891Y587557D01*
X338912Y586831D01*
X338944Y586777D01*
X339051Y586735D01*
X340716Y586756D01*
X340791Y586831D01*
X340801Y588806D01*
X340791Y589072D01*
X340844Y589126D01*
X340929Y589147D01*
X341090Y589115D01*
X341207Y589040D01*
X341292Y588955D01*
X341442Y588912D01*
X341559Y588880D01*
X341677Y588763D01*
X341783Y588720D01*
X341954Y588656D01*
X342104Y588549D01*
X342275Y588507D01*
X342381Y588464D01*
X342509Y588336D01*
X342659Y588293D01*
X342744Y588272D01*
X342787Y588251D01*
X342915Y588122D01*
X343000Y588101D01*
X343139Y588069D01*
X343246Y588005D01*
X343267Y587962D01*
X343363Y587909D01*
X343449Y587887D01*
X343609Y587855D01*
X343748Y587717D01*
X343897Y587674D01*
X343983Y587653D01*
X344100Y587557D01*
X344153Y587503D01*
X344292Y587471D01*
X344378Y587450D01*
X344409Y587418D01*
X344452Y587397D01*
X344538Y587311D01*
X344687Y587268D01*
X344815Y587247D01*
X344965Y587098D01*
X345050Y587076D01*
X345189Y587044D01*
X345263Y586991D01*
X345296Y586959D01*
X345306Y586927D01*
X345349Y586906D01*
X345456Y586863D01*
X345541Y586841D01*
X345690Y586777D01*
X345755Y586799D01*
X345787Y586895D01*
X345808Y589137D01*
X345861Y589190D01*
X345947Y589169D01*
X345979Y589137D01*
X346000Y589051D01*
X346021Y586788D01*
X346139Y586735D01*
X347281Y586745D01*
X347388Y586724D01*
X347527Y586713D01*
X347623Y586788D01*
X347644Y586873D01*
X347665Y587023D01*
X347655Y592563D01*
X347676Y592649D01*
X347761Y592755D01*
X347911Y592777D01*
X351220Y592755D01*
X351284Y592734D01*
X351370Y592713D01*
X351669Y592691D01*
X351733Y592670D01*
X351818Y592649D01*
X352095Y592627D01*
X352298Y592595D01*
X352405Y592552D01*
X352533Y592467D01*
X352651Y592435D01*
X352811Y592403D01*
X352886Y592371D01*
X352992Y592264D01*
X353142Y592222D01*
X353227Y592200D01*
X353344Y592104D01*
X353419Y592029D01*
X353505Y592008D01*
X353547Y591965D01*
X353590Y591944D01*
X353697Y591837D01*
X353846Y591752D01*
X353974Y591624D01*
X354017Y591602D01*
X354230Y591389D01*
X354273Y591368D01*
X354369Y591272D01*
X354391Y591229D01*
X354604Y591015D01*
X354626Y590973D01*
X354796Y590802D01*
X354818Y590759D01*
X354860Y590716D01*
X354882Y590674D01*
X355010Y590546D01*
X355074Y590439D01*
X355149Y590386D01*
X355181Y590354D01*
X355266Y590204D01*
X355341Y590151D01*
X355415Y590076D01*
X355437Y590033D01*
X355629Y589841D01*
X355650Y589798D01*
X355704Y589745D01*
X355746Y589724D01*
X355800Y589670D01*
X355821Y589628D01*
X355917Y589510D01*
X356013Y589414D01*
X356035Y589371D01*
X356131Y589254D01*
X356205Y589179D01*
X356227Y589137D01*
X356323Y589019D01*
X356440Y588902D01*
X356462Y588859D01*
X356632Y588688D01*
X356654Y588646D01*
X356729Y588549D01*
X356771Y588528D01*
X356803Y588496D01*
X356825Y588453D01*
X356921Y588336D01*
X356963Y588315D01*
X357038Y588240D01*
X357059Y588197D01*
X357230Y588026D01*
X357252Y587984D01*
X357348Y587866D01*
X357422Y587791D01*
X357444Y587749D01*
X357486Y587706D01*
X357508Y587663D01*
X357679Y587493D01*
X357700Y587450D01*
X357849Y587300D01*
X357871Y587258D01*
X357967Y587140D01*
X358063Y587044D01*
X358127Y586937D01*
X358180Y586884D01*
X358223Y586863D01*
X358276Y586809D01*
X358298Y586767D01*
X358351Y586692D01*
X358394Y586671D01*
X358469Y586596D01*
X358490Y586553D01*
X358586Y586436D01*
X358853Y586169D01*
X358874Y586126D01*
X358917Y586083D01*
X358938Y586041D01*
X359066Y585913D01*
X359088Y585870D01*
X359194Y585720D01*
X359226Y585689D01*
X359269Y585667D01*
X359355Y585539D01*
X359515Y585379D01*
X359579Y585272D01*
X359611Y585240D01*
X359653Y585219D01*
X359707Y585165D01*
X359728Y585123D01*
X359920Y584931D01*
X359942Y584888D01*
X360038Y584792D01*
X360070Y584781D01*
X360091Y584738D01*
X360241Y584546D01*
X360305Y584482D01*
X360326Y584440D01*
X360422Y584301D01*
X360465Y584279D01*
X360796Y583949D01*
X360817Y583906D01*
X360945Y583820D01*
X361020Y583767D01*
X361105Y583682D01*
X361148Y583660D01*
X361297Y583575D01*
X361404Y583468D01*
X361511Y583425D01*
X361756Y583372D01*
X361863Y583329D01*
X362002Y583276D01*
X362087Y583255D01*
X362237Y583233D01*
X362343Y583276D01*
X362376Y583308D01*
X362397Y583393D01*
X362418Y592659D01*
X362493Y592755D01*
X362578Y592777D01*
X365354Y592755D01*
D02*
G37*
G36*
X403698D02*
X403752Y592702D01*
X403773Y592617D01*
X403752Y589841D01*
X403720Y589809D01*
X403634Y589788D01*
X398083D01*
X389266Y589766D01*
X389148Y589670D01*
X389042Y589563D01*
X388999Y589457D01*
X388978Y589265D01*
X388999Y589201D01*
X388978Y589115D01*
X388999Y588966D01*
X388978Y588688D01*
X388988Y583874D01*
X388978Y583735D01*
X388999Y583671D01*
X389020Y583521D01*
X389116Y583404D01*
X389223Y583361D01*
X389351Y583276D01*
X389501Y583255D01*
X403688Y583265D01*
X403720Y583233D01*
X403752Y583223D01*
X403795Y583116D01*
X403773Y580404D01*
X403720Y580351D01*
X403581Y580340D01*
X388828Y580362D01*
X388369Y580394D01*
X388305Y580415D01*
X388188Y580447D01*
X387963Y580543D01*
X387814Y580564D01*
X387654Y580597D01*
X387526Y580682D01*
X387408Y580735D01*
X387206Y580810D01*
X387109Y580906D01*
X386960Y580970D01*
X386853Y581034D01*
X386704Y581184D01*
X386661Y581205D01*
X386586Y581280D01*
X386565Y581322D01*
X386394Y581493D01*
X386373Y581536D01*
X386234Y581739D01*
X386202Y581771D01*
X386106Y582038D01*
X386074Y582070D01*
X386053Y582112D01*
X385989Y582262D01*
X385967Y582475D01*
X385946Y582561D01*
X385914Y582806D01*
X385892Y582934D01*
X385871Y583020D01*
X385839Y583137D01*
X385829Y589873D01*
X385903Y590119D01*
X385925Y590375D01*
X385946Y590439D01*
X385967Y590652D01*
X385989Y590823D01*
X386074Y590973D01*
X386138Y591122D01*
X386159Y591208D01*
X386245Y591357D01*
X386277Y591389D01*
X386320Y591410D01*
X386448Y591624D01*
X386565Y591741D01*
X386586Y591784D01*
X386661Y591859D01*
X386704Y591880D01*
X386757Y591933D01*
X386768Y591965D01*
X386811Y591987D01*
X387013Y592126D01*
X387088Y592200D01*
X387291Y592275D01*
X387366Y592328D01*
X387408Y592371D01*
X387515Y592414D01*
X387729Y592435D01*
X387835Y592499D01*
X387963Y592584D01*
X388188Y592617D01*
X388572Y592659D01*
X388679Y592681D01*
X388967Y592713D01*
X389202Y592734D01*
X389266Y592755D01*
X389351Y592777D01*
X403624Y592787D01*
X403698Y592755D01*
D02*
G37*
G36*
X376605Y593225D02*
X376819Y593076D01*
X376979Y593044D01*
X377086Y593001D01*
X377224Y592862D01*
X377342Y592830D01*
X377417Y592798D01*
X377534Y592702D01*
X377587Y592649D01*
X377694Y592584D01*
X377769Y592510D01*
X377790Y592467D01*
X377982Y592339D01*
X378004Y592296D01*
X378057Y592243D01*
X378100Y592222D01*
X378228Y592029D01*
X378271Y592008D01*
X378367Y591912D01*
X378452Y591763D01*
X378537Y591677D01*
X378612Y591474D01*
X378666Y591400D01*
X378708Y591357D01*
X378730Y591314D01*
X378772Y591208D01*
X378804Y591047D01*
X378911Y590877D01*
X378965Y590738D01*
X378986Y590460D01*
X379018Y590279D01*
X379039Y590172D01*
X379071Y589948D01*
X379007Y589841D01*
X378975Y589809D01*
X378890Y589788D01*
X378100Y589766D01*
X378025Y589692D01*
X378004Y589606D01*
X378025Y589457D01*
X378004Y580063D01*
X377950Y579988D01*
X377801Y579945D01*
X377459Y579967D01*
X375314Y579956D01*
X375218Y579967D01*
X375154Y579945D01*
X374983Y579967D01*
X374908Y580041D01*
X374887Y589329D01*
X374833Y589403D01*
X374748Y589425D01*
X367820Y589414D01*
X367734Y589457D01*
X367692Y589563D01*
X367681Y589830D01*
X367702Y592307D01*
X367745Y592392D01*
X367831Y592414D01*
X375218D01*
X375901Y592435D01*
X376018Y592531D01*
X376082Y592638D01*
X376125Y592809D01*
X376157Y592969D01*
X376178Y593054D01*
X376264Y593204D01*
X376370Y593246D01*
X376605Y593225D01*
D02*
G37*
G36*
X330351Y577458D02*
X330393Y577415D01*
X330415Y577266D01*
X330393Y577180D01*
X330372Y576134D01*
X330383Y575782D01*
X330351Y575707D01*
X330319Y575675D01*
X330233Y575654D01*
X329998Y575675D01*
X329849Y575761D01*
X329795Y575771D01*
X329689Y575729D01*
X329550Y575675D01*
X329400Y575654D01*
X329230Y575675D01*
X329208D01*
X327426Y575665D01*
X327319Y575686D01*
X327201Y575761D01*
X327148Y575814D01*
X327127Y575857D01*
X327084Y575900D01*
X327041Y576006D01*
X327020Y576092D01*
X326999Y576305D01*
X327020Y576369D01*
X327009Y577127D01*
X327041Y577202D01*
X327127Y577287D01*
X327148Y577330D01*
X327266Y577447D01*
X327415Y577469D01*
X329614Y577447D01*
X329763Y577383D01*
X329870Y577405D01*
X330020Y577469D01*
X330233Y577490D01*
X330351Y577458D01*
D02*
G37*
G36*
X399695Y577479D02*
X399802Y577437D01*
X399823Y577394D01*
Y577373D01*
X399770Y577277D01*
X399599Y577234D01*
X399343Y577255D01*
X399290Y577309D01*
X399279Y577405D01*
X399332Y577479D01*
X399450Y577511D01*
X399695Y577479D01*
D02*
G37*
G36*
X391614Y577490D02*
X391689Y577415D01*
X391668Y577287D01*
X391636Y577255D01*
X391550Y577234D01*
X391251Y577255D01*
X391155Y577309D01*
X391134Y577394D01*
X391209Y577469D01*
X391358Y577490D01*
X391465Y577511D01*
X391486D01*
X391614Y577490D01*
D02*
G37*
G36*
X341164D02*
X341378Y577469D01*
X341431Y577415D01*
X341410Y577309D01*
X341378Y577277D01*
X341292Y577255D01*
X341260Y577245D01*
X341250Y577234D01*
X340951Y577255D01*
X340897Y577287D01*
X340876Y577373D01*
X340897Y577437D01*
X340951Y577490D01*
X341100Y577511D01*
X341164Y577490D01*
D02*
G37*
G36*
X378505D02*
X378601Y577415D01*
X378580Y577309D01*
X378548Y577277D01*
X378537Y577266D01*
X378399Y577213D01*
X378249Y577234D01*
X378153Y577309D01*
X378132Y577394D01*
X378153Y577437D01*
X378185Y577469D01*
X378356Y577511D01*
X378505Y577490D01*
D02*
G37*
G36*
X372997D02*
X373115Y577458D01*
X373157Y577415D01*
X373136Y577309D01*
X373104Y577277D01*
X372986Y577245D01*
X372880Y577223D01*
X372784Y577213D01*
X372698Y577255D01*
X372688Y577266D01*
X372645Y577309D01*
X372666Y577458D01*
X372698Y577490D01*
X372848Y577511D01*
X372997Y577490D01*
D02*
G37*
G36*
X354508Y577447D02*
X354561Y577415D01*
X354604Y577266D01*
X354583Y577159D01*
X354551Y577106D01*
X354465Y577085D01*
X354327Y577074D01*
X353996Y577085D01*
X353932Y577063D01*
X353846Y577085D01*
X353590Y577063D01*
X353473Y576967D01*
X353494Y576433D01*
X353473Y575750D01*
X353419Y575697D01*
X353248Y575654D01*
X353035Y575675D01*
X353003Y575707D01*
X352960Y575857D01*
Y576775D01*
Y576796D01*
X352982Y576860D01*
X352960Y577010D01*
X352907Y577063D01*
X352757Y577085D01*
X352523Y577063D01*
X352458Y577085D01*
X352042Y577074D01*
X351957Y577095D01*
X351893Y577138D01*
X351850Y577245D01*
X351871Y577351D01*
X351946Y577447D01*
X352095Y577469D01*
X354508Y577447D01*
D02*
G37*
G36*
X368065Y576999D02*
X368097Y576967D01*
X368119Y576924D01*
X368172Y576871D01*
X368215Y576850D01*
X368268Y576818D01*
X368289Y576775D01*
X368311Y576711D01*
X368289Y575729D01*
X368236Y575675D01*
X368151Y575654D01*
X367959D01*
X367831Y575697D01*
X367777Y575750D01*
X367756Y575835D01*
X367734Y576604D01*
X367702Y576636D01*
X367553Y576679D01*
X367382Y576657D01*
X367329Y576604D01*
X367307Y576519D01*
X367329Y576241D01*
X367307Y575729D01*
X367254Y575675D01*
X367169Y575654D01*
X366912Y575675D01*
X366816Y575750D01*
X366795Y575900D01*
X366806Y576572D01*
X366742Y576636D01*
X366485Y576679D01*
X366357Y576657D01*
X366283Y576583D01*
X366304Y575985D01*
X366283Y575729D01*
X366229Y575675D01*
X366058Y575633D01*
X365920Y575686D01*
X365877Y575793D01*
X365856Y576839D01*
X365834Y576903D01*
X365856Y576988D01*
X365909Y577042D01*
X365994Y577063D01*
X366678Y577042D01*
X366742Y577063D01*
X367649Y577052D01*
X367959Y577063D01*
X368065Y576999D01*
D02*
G37*
G36*
X365290Y577042D02*
X365397Y576978D01*
X365450Y576924D01*
X365471Y576882D01*
X365546Y576828D01*
X365599Y576775D01*
X365621Y576689D01*
X365631Y576401D01*
X365621Y575942D01*
X365642Y575878D01*
X365621Y575793D01*
X365599Y575729D01*
X365546Y575675D01*
X365461Y575654D01*
X365162Y575675D01*
X365087Y575729D01*
X365066Y575878D01*
X365044Y576604D01*
X364991Y576657D01*
X364841Y576679D01*
X364713Y576657D01*
X364639Y576583D01*
X364617Y576497D01*
X364639Y576220D01*
X364617Y575729D01*
X364564Y575675D01*
X364478Y575654D01*
X364180Y575675D01*
X364105Y575729D01*
X364062Y575878D01*
X364073Y576572D01*
X364009Y576636D01*
X363859Y576679D01*
X363689Y576657D01*
X363614Y576583D01*
X363592Y575729D01*
X363539Y575675D01*
X363454Y575654D01*
X363219Y575675D01*
X363123Y575750D01*
X363144Y576070D01*
X363166Y576134D01*
X363144Y576732D01*
X363123Y576796D01*
X363144Y576988D01*
X363198Y577042D01*
X363347Y577063D01*
X363539D01*
X363753Y577042D01*
X364414Y577063D01*
X364959Y577052D01*
X365226Y577063D01*
X365290Y577042D01*
D02*
G37*
G36*
X339414D02*
X340342Y577052D01*
X340417Y577020D01*
X340545Y576892D01*
X340588Y576871D01*
X340641Y576754D01*
X340620Y575707D01*
X340567Y575654D01*
X340449Y575643D01*
X340321Y575665D01*
X340214Y575707D01*
X340150Y575771D01*
X340140Y575889D01*
X340150Y576241D01*
X340129Y576305D01*
X340150Y576391D01*
X340129Y576583D01*
X340075Y576636D01*
X339990Y576657D01*
X339841Y576679D01*
X339627Y576657D01*
X339328Y576636D01*
X339275Y576583D01*
X339254Y576497D01*
X339286Y576316D01*
X339296Y576284D01*
X339275Y576220D01*
X339254Y575750D01*
X339179Y575675D01*
X339008Y575633D01*
X338923Y575654D01*
X338880Y575675D01*
X338826Y575729D01*
Y575878D01*
Y575900D01*
X338848Y576092D01*
X338826Y576156D01*
X338848Y576220D01*
X338826Y576284D01*
X338848Y576561D01*
X338826Y576625D01*
X338848Y577010D01*
X338901Y577063D01*
X339254Y577052D01*
X339350Y577063D01*
X339414Y577042D01*
D02*
G37*
G36*
X403763Y576978D02*
X403805Y576935D01*
X403848Y576914D01*
X403891Y576871D01*
X403933Y576850D01*
X403987Y576732D01*
Y576134D01*
Y576113D01*
X403965Y575537D01*
X403848Y575419D01*
X403805Y575398D01*
X403773Y575366D01*
X403752Y575323D01*
X403698Y575270D01*
X403613Y575248D01*
X402300Y575238D01*
X402215Y575259D01*
X402151Y575323D01*
X402129Y575472D01*
X402183Y575590D01*
X402289Y575633D01*
X402631Y575611D01*
X403335Y575633D01*
X403389Y575665D01*
X403410Y575750D01*
X403389Y575835D01*
X403271Y575889D01*
X402247Y575910D01*
X402193Y575942D01*
X402108Y576134D01*
X402086Y576220D01*
X402097Y576529D01*
X402076Y576636D01*
X402065Y576754D01*
X402215Y576946D01*
X402289Y577020D01*
X402460Y577063D01*
X402994Y577042D01*
X403613Y577063D01*
X403763Y576978D01*
D02*
G37*
G36*
X397614D02*
X397624Y576967D01*
X397710Y576818D01*
X397795Y576732D01*
X397817Y576647D01*
X397646Y576326D01*
X397550Y576273D01*
X396567Y576252D01*
X396461Y576209D01*
X396429Y576177D01*
X396450Y576092D01*
X396482Y576060D01*
X396567Y576038D01*
X397592Y576017D01*
X397688Y575942D01*
X397710Y575857D01*
X397688Y575771D01*
X397592Y575675D01*
X397443Y575654D01*
X397229Y575675D01*
X396279Y575665D01*
X396173Y575707D01*
X396044Y575835D01*
X396002Y575942D01*
X395980Y576156D01*
X396012Y576807D01*
X396044Y576882D01*
X396119Y576978D01*
X396162Y576999D01*
X396269Y577042D01*
X396354Y577063D01*
X396824Y577042D01*
X397507Y577063D01*
X397614Y576978D01*
D02*
G37*
G36*
X395521Y577042D02*
X395639Y576946D01*
X395703Y576882D01*
X395746Y576775D01*
X395767Y576625D01*
X395735Y576423D01*
X395681Y576348D01*
X395649Y576316D01*
X395500Y576273D01*
X394646Y576252D01*
X394529Y576220D01*
X394486Y576177D01*
X394507Y576092D01*
X394539Y576060D01*
X394625Y576038D01*
X394774Y576017D01*
X394988Y576038D01*
X395649Y576017D01*
X395703Y575985D01*
X395746Y575857D01*
X395724Y575793D01*
X395703Y575750D01*
X395649Y575697D01*
X395564Y575675D01*
X395372Y575654D01*
X395308Y575675D01*
X394272Y575665D01*
X394198Y575697D01*
X394112Y575782D01*
X394070Y575803D01*
X394027Y575846D01*
X394016Y575857D01*
X393974Y575900D01*
X393952Y576049D01*
X393974Y576796D01*
X394070Y576914D01*
X394176Y577020D01*
X394326Y577063D01*
X394795Y577042D01*
X395148Y577052D01*
X395180Y577042D01*
X395244Y577063D01*
X395521Y577042D01*
D02*
G37*
G36*
X393472D02*
X393515Y576999D01*
X393557Y576978D01*
X393717Y576818D01*
X393739Y576604D01*
X393749Y575761D01*
X393685Y575675D01*
X393600Y575654D01*
X393365Y575675D01*
X393269Y575750D01*
X393248Y575900D01*
X393269Y575964D01*
X393248Y576284D01*
Y576305D01*
X393269Y576391D01*
X393248Y576583D01*
X393194Y576636D01*
X393045Y576657D01*
X392959Y576679D01*
X392767Y576657D01*
X392703Y576679D01*
X392447Y576636D01*
X392372Y576561D01*
X392362Y576487D01*
X392383Y576380D01*
X392394Y575814D01*
X392319Y575697D01*
X392169Y575654D01*
X392063Y575633D01*
X391956Y575697D01*
X391924Y575729D01*
X391903Y575921D01*
X391924Y575985D01*
X391913Y576935D01*
X391945Y577010D01*
X391999Y577063D01*
X393216Y577042D01*
X393280Y577063D01*
X393472Y577042D01*
D02*
G37*
G36*
X382477D02*
X382626Y576956D01*
X382679Y576882D01*
X382808Y576754D01*
X382829Y576668D01*
X382850Y576604D01*
Y576583D01*
X382840Y576145D01*
X382850Y575814D01*
X382786Y575707D01*
X382754Y575675D01*
X382541Y575654D01*
X382348Y575675D01*
X382295Y575729D01*
X382274Y575878D01*
X382284Y576529D01*
X382252Y576604D01*
X382199Y576657D01*
X382050Y576679D01*
X381772Y576657D01*
X381687Y576679D01*
X381494Y576657D01*
X381441Y576604D01*
X381420Y576519D01*
X381398Y575729D01*
X381345Y575675D01*
X381196Y575654D01*
X380982Y575675D01*
X380907Y575750D01*
X380886Y575900D01*
X380865Y576028D01*
X380811Y576081D01*
X380769Y576060D01*
X380672Y575964D01*
X380651Y575921D01*
X380502Y575729D01*
X380384Y575675D01*
X380235Y575654D01*
X380021Y575675D01*
X379178Y575665D01*
X379071Y575707D01*
X379007Y575771D01*
X378986Y575814D01*
X378858Y575900D01*
X378815Y576006D01*
X378836Y576775D01*
X378932Y576871D01*
X378975Y576892D01*
X379007Y576924D01*
X379029Y576967D01*
X379082Y577020D01*
X379231Y577063D01*
X379893Y577042D01*
X380342Y577063D01*
X380406Y577042D01*
X380512Y576978D01*
X380587Y576903D01*
X380608Y576860D01*
X380747Y576657D01*
X380811Y576636D01*
X380854Y576657D01*
X380875Y576743D01*
X380897Y576935D01*
X380982Y577042D01*
X381132Y577063D01*
X381986Y577042D01*
X382412Y577063D01*
X382477Y577042D01*
D02*
G37*
G36*
X372164D02*
X372207Y576999D01*
X372250Y576978D01*
X372389Y576839D01*
X372410Y576689D01*
Y576369D01*
Y576348D01*
X372389Y575707D01*
X372335Y575654D01*
X372218Y575643D01*
X372090Y575665D01*
X371972Y575739D01*
X371940Y575835D01*
X371930Y576316D01*
X371951Y576508D01*
X371919Y576583D01*
X371866Y576636D01*
X371609Y576679D01*
X371460Y576657D01*
X371396Y576679D01*
X371140Y576636D01*
X371065Y576583D01*
X371044Y576497D01*
X371065Y576220D01*
X371044Y575750D01*
X370969Y575675D01*
X370820Y575654D01*
X370649Y575675D01*
X370595Y575729D01*
X370617Y577010D01*
X370649Y577042D01*
X370734Y577063D01*
X371887Y577042D01*
X371951Y577063D01*
X372164Y577042D01*
D02*
G37*
G36*
X362621D02*
X362728Y576978D01*
X362781Y576903D01*
X362973Y576711D01*
X362995Y576625D01*
X362973Y576006D01*
X362920Y575932D01*
X362877Y575910D01*
X362738Y575771D01*
X362717Y575729D01*
X362685Y575697D01*
X362589Y575665D01*
X362578Y575654D01*
X361852Y575675D01*
X361415Y575665D01*
X361308Y575686D01*
X361233Y575739D01*
X361148Y575868D01*
X361009Y576006D01*
X361031Y576732D01*
X361180Y576882D01*
X361201Y576924D01*
X361276Y577020D01*
X361447Y577063D01*
X362045Y577042D01*
X362557Y577063D01*
X362621Y577042D01*
D02*
G37*
G36*
X360828Y577020D02*
X360881Y576967D01*
X360924Y576818D01*
X360913Y576743D01*
X360806Y576700D01*
X360550Y576657D01*
X360305Y576668D01*
X360038Y576657D01*
X359974Y576679D01*
X359781Y576657D01*
X359707Y576583D01*
X359728Y576113D01*
X359781Y576060D01*
X359867Y576038D01*
X360155Y576049D01*
X360465Y576038D01*
X360529Y576060D01*
X360753Y576028D01*
X360838Y576006D01*
X360913Y575974D01*
X360945Y575942D01*
X360924Y575857D01*
X360838Y575707D01*
X360742Y575675D01*
X360550Y575654D01*
X360486Y575675D01*
X359579Y575665D01*
X359472Y575686D01*
X359397Y575739D01*
X359344Y575793D01*
X359323Y575835D01*
X359216Y575942D01*
X359194Y575985D01*
X359173Y576049D01*
X359152Y576455D01*
X359120Y576508D01*
X359077Y576487D01*
X359002Y576433D01*
X358981Y576391D01*
X358906Y576316D01*
X358799Y576273D01*
X357945Y576252D01*
X357817Y576231D01*
X357743Y576177D01*
X357764Y576092D01*
X357796Y576060D01*
X357881Y576038D01*
X358138Y576017D01*
X358202Y576038D01*
X358372D01*
X358885Y576017D01*
X359002Y575921D01*
X359024Y575857D01*
X359002Y575771D01*
X358949Y575697D01*
X358863Y575675D01*
X358671Y575654D01*
X358607Y575675D01*
X357572Y575665D01*
X357465Y575707D01*
X357433Y575739D01*
X357390Y575761D01*
X357316Y575835D01*
X357273Y575985D01*
X357294Y576839D01*
X357390Y576956D01*
X357454Y577020D01*
X357625Y577063D01*
X358095Y577042D01*
X358778Y577063D01*
X358895Y576988D01*
X358917Y576946D01*
X359013Y576828D01*
X359098Y576743D01*
X359162Y576721D01*
X359258Y576796D01*
X359280Y576839D01*
X359323Y576882D01*
X359344Y576924D01*
X359440Y577020D01*
X359611Y577063D01*
X360209Y577042D01*
X360700Y577063D01*
X360828Y577020D01*
D02*
G37*
G36*
X356131Y577042D02*
X356205Y576967D01*
X356312Y576775D01*
X356376Y576711D01*
X356398Y576625D01*
X356312Y576497D01*
X356205Y576305D01*
X356109Y576273D01*
X355255Y576252D01*
X355063Y576231D01*
X355010Y576177D01*
X355031Y576070D01*
X355170Y576017D01*
X355576Y576038D01*
X356195Y576017D01*
X356269Y575942D01*
X356280Y575846D01*
X356237Y575739D01*
X356173Y575675D01*
X356088Y575654D01*
X355746Y575675D01*
X354882Y575665D01*
X354775Y575707D01*
X354700Y575761D01*
X354604Y575857D01*
X354572Y575974D01*
X354551Y576166D01*
X354540Y576391D01*
X354561Y576455D01*
X354540Y576732D01*
X354679Y576935D01*
X354743Y576999D01*
X354850Y577042D01*
X354935Y577063D01*
X355405Y577042D01*
X355757Y577052D01*
X355768Y577063D01*
X356131Y577042D01*
D02*
G37*
G36*
X350473Y577469D02*
X350569Y577394D01*
X350548Y576796D01*
X350569Y576305D01*
Y576284D01*
X350548Y576092D01*
X350505Y575985D01*
X350484Y575900D01*
X350387Y575782D01*
X350345Y575761D01*
X350281Y575697D01*
X350174Y575654D01*
X349640Y575675D01*
X349011Y575665D01*
X348904Y575707D01*
X348872Y575739D01*
X348829Y575761D01*
X348712Y575878D01*
X348669Y576028D01*
X348690Y576497D01*
X348669Y576583D01*
X348690Y576818D01*
X348829Y576956D01*
X348872Y576978D01*
X348936Y577042D01*
X349149Y577063D01*
X349363Y577042D01*
X349961Y577063D01*
X350035Y577117D01*
X350057Y577202D01*
X350035Y577351D01*
X350057Y577415D01*
X350089Y577447D01*
X350238Y577490D01*
X350473Y577469D01*
D02*
G37*
G36*
X338303Y577042D02*
X338421Y576946D01*
X338570Y576796D01*
X338592Y576647D01*
X338570Y575921D01*
X338453Y575803D01*
X338410Y575782D01*
X338303Y575675D01*
X338111Y575654D01*
X338047Y575675D01*
X337097Y575665D01*
X337012Y575686D01*
X336894Y575761D01*
X336873Y575782D01*
X336852D01*
X336777Y575857D01*
X336734Y575964D01*
X336713Y576177D01*
X336734Y576647D01*
X336756Y576711D01*
X336809Y576850D01*
X336884Y576967D01*
X336916Y576999D01*
X337022Y577042D01*
X337236Y577063D01*
X337300Y577042D01*
X337994Y577052D01*
X338005Y577042D01*
X338069Y577063D01*
X338303Y577042D01*
D02*
G37*
G36*
X334823Y577447D02*
X334941Y577415D01*
X335005Y577351D01*
X335026Y577180D01*
X335080Y577106D01*
X335122Y577085D01*
X335272Y576978D01*
X335357Y576850D01*
X335443Y576828D01*
X335539Y576882D01*
X335560Y576924D01*
X335656Y577042D01*
X335806Y577063D01*
X336254Y577042D01*
X336318Y577063D01*
X336489Y577042D01*
X336542Y576988D01*
X336563Y576903D01*
X336542Y576732D01*
X336489Y576679D01*
X336403Y576657D01*
X336062Y576679D01*
X335912Y576593D01*
X335880Y576497D01*
X335902Y576156D01*
X335880Y575750D01*
X335827Y575697D01*
X335677Y575654D01*
X335443Y575675D01*
X335389Y575729D01*
X335368Y575814D01*
X335346Y576625D01*
X335293Y576679D01*
X335208Y576700D01*
X335101Y576657D01*
X335026Y576583D01*
X335005Y576497D01*
X335026Y576284D01*
X335005Y575729D01*
X334973Y575697D01*
X334802Y575654D01*
X334589Y575675D01*
X334557Y575707D01*
X334535Y575857D01*
X334514Y576348D01*
X334535Y576412D01*
X334514Y576583D01*
X334482Y576636D01*
X334375Y576679D01*
X334226Y576700D01*
X334023Y576668D01*
X333777Y576657D01*
X333713Y576679D01*
X333628Y576657D01*
X333190Y576668D01*
X333115Y576636D01*
X333062Y576583D01*
X333083Y576113D01*
X333137Y576060D01*
X333222Y576038D01*
X333510Y576049D01*
X334183Y576017D01*
X334226Y575974D01*
X334236Y575964D01*
X334258Y575878D01*
X334236Y575750D01*
X334183Y575697D01*
X334098Y575675D01*
X333905Y575654D01*
X333841Y575675D01*
X332934Y575665D01*
X332827Y575686D01*
X332752Y575739D01*
X332699Y575793D01*
X332678Y575835D01*
X332582Y575953D01*
X332528Y576092D01*
X332550Y576391D01*
X332507Y576519D01*
X332475Y576529D01*
X332357Y576433D01*
X332261Y576316D01*
X332219Y576295D01*
X332155Y576273D01*
X331301Y576252D01*
X331141Y576220D01*
X331098Y576177D01*
X331087Y576124D01*
X331109Y576081D01*
X331215Y576038D01*
X331503Y576028D01*
X332155Y576038D01*
X332219Y576017D01*
X332357Y575942D01*
X332379Y575857D01*
X332293Y575707D01*
X332197Y575675D01*
X332112Y575654D01*
X331770Y575675D01*
X330948Y575665D01*
X330863Y575686D01*
X330735Y575771D01*
X330671Y575835D01*
X330628Y575985D01*
X330649Y576839D01*
X330692Y576882D01*
X330714Y576924D01*
X330788Y576999D01*
X330895Y577042D01*
X330980Y577063D01*
X331450Y577042D01*
X332144Y577052D01*
X332251Y576988D01*
X332272Y576946D01*
X332368Y576828D01*
X332475Y576721D01*
X332539Y576700D01*
X332614Y576775D01*
X332635Y576818D01*
X332785Y577010D01*
X332881Y577042D01*
X332966Y577063D01*
X333564Y577042D01*
X334023Y577052D01*
X334108Y577031D01*
X334226Y576999D01*
X334343Y577031D01*
X334450Y577074D01*
X334514Y577138D01*
X334535Y577287D01*
X334557Y577394D01*
X334610Y577447D01*
X334759Y577469D01*
X334823Y577447D01*
D02*
G37*
G36*
X400902Y577042D02*
X401467Y577052D01*
X401553Y577031D01*
X401670Y576956D01*
X401702Y576924D01*
X401724Y576882D01*
X401766Y576839D01*
X401788Y576796D01*
X401830Y576754D01*
X401852Y576711D01*
X401894Y576604D01*
X401873Y575771D01*
X401798Y575697D01*
X401628Y575654D01*
X401393Y575675D01*
X401361Y575707D01*
X401318Y575857D01*
X401329Y576551D01*
X401297Y576625D01*
X401264Y576657D01*
X401115Y576679D01*
X400838Y576657D01*
X400752Y576679D01*
X400560Y576657D01*
X400485Y576604D01*
X400464Y576519D01*
X400475Y576231D01*
X400453Y575761D01*
X400389Y575675D01*
X400240Y575654D01*
X400069Y575675D01*
X399962Y575739D01*
X399855Y575846D01*
X399813Y575825D01*
X399781Y575793D01*
X399759Y575750D01*
X399727Y575718D01*
X399685Y575697D01*
X399578Y575654D01*
X399364Y575675D01*
X399311Y575729D01*
X399290Y575814D01*
X399268Y576711D01*
X399194Y576828D01*
X399162Y576818D01*
X399140Y576775D01*
X399087Y576721D01*
X399044Y576700D01*
X398980Y576679D01*
X398969Y576668D01*
X398767Y576657D01*
X398703Y576679D01*
X398510Y576657D01*
X398478Y576625D01*
X398436Y576519D01*
X398457Y576113D01*
X398436Y575729D01*
X398382Y575675D01*
X398297Y575654D01*
X398062Y575675D01*
X397966Y575771D01*
X397945Y575857D01*
X397966Y576625D01*
X397987Y576689D01*
X398019Y576807D01*
X398094Y576924D01*
X398190Y577020D01*
X398446Y577063D01*
X398724Y577042D01*
X398873Y577063D01*
X399023Y577042D01*
X399119Y576967D01*
X399140Y576924D01*
X399194Y576871D01*
X399247Y576924D01*
X399268Y576967D01*
X399343Y577042D01*
X399492Y577063D01*
X399685Y577042D01*
X399749Y576978D01*
X399781Y576967D01*
X399802Y576924D01*
X399855Y576914D01*
X399898Y576956D01*
X399941Y576978D01*
X400090Y577042D01*
X400304Y577063D01*
X400902Y577042D01*
D02*
G37*
G36*
X377673Y577447D02*
X377726Y577394D01*
X377747Y577245D01*
X377769Y577138D01*
X377822Y577063D01*
X377972Y576978D01*
X378057Y576892D01*
X378100Y576914D01*
X378132Y576946D01*
X378153Y576988D01*
X378207Y577042D01*
X378313Y577085D01*
X378505Y577063D01*
X378580Y577010D01*
X378601Y576924D01*
X378559Y576561D01*
X378580Y575878D01*
X378601Y575814D01*
X378580Y575729D01*
X378527Y575675D01*
X378441Y575654D01*
X378228Y575675D01*
X378175Y575707D01*
X378132Y575814D01*
X378143Y576572D01*
X378121Y576700D01*
X378089Y576775D01*
X378057Y576786D01*
X377908Y576679D01*
X377844Y576657D01*
X377769Y576604D01*
X377747Y576519D01*
X377726Y575707D01*
X377694Y575675D01*
X377609Y575654D01*
X377555Y575643D01*
X377427Y575665D01*
X377321Y575707D01*
X377257Y575857D01*
X377278Y576006D01*
X377267Y576316D01*
X377289Y576423D01*
X377299Y576540D01*
X377203Y576657D01*
X377160Y576679D01*
X377054Y576721D01*
X377011Y576700D01*
X376958Y576647D01*
X376936Y576497D01*
X376915Y575878D01*
X376755Y575718D01*
X376712Y575697D01*
X376605Y575654D01*
X376136Y575675D01*
X375399Y575665D01*
X375335Y575707D01*
X375250Y575857D01*
X375196Y575910D01*
X375089Y575889D01*
X374983Y575718D01*
X374940Y575675D01*
X374876D01*
X374684Y575654D01*
X374620Y575675D01*
X373734Y575665D01*
X373627Y575686D01*
X373499Y575793D01*
X373456Y575835D01*
X373435Y575878D01*
X373371Y575942D01*
X373349Y575985D01*
X373328Y576049D01*
X373307Y576134D01*
X373328Y576689D01*
X373552Y576999D01*
X373595Y577020D01*
X373659Y577042D01*
X373808Y577063D01*
X374214Y577042D01*
X374801Y577052D01*
X374908Y577031D01*
X375089Y576956D01*
X375196Y576978D01*
X375346Y577042D01*
X375431Y577063D01*
X375901Y577042D01*
X376637Y577052D01*
X376755Y576978D01*
X376797Y576935D01*
X376883Y576914D01*
X376990Y576935D01*
X377054Y576999D01*
X377096Y577020D01*
X377278Y577159D01*
X377299Y577309D01*
X377321Y577373D01*
X377374Y577426D01*
X377545Y577469D01*
X377673Y577447D01*
D02*
G37*
G36*
X391572Y577063D02*
X391646Y576988D01*
X391668Y576839D01*
X391646Y575729D01*
X391572Y575654D01*
X391315Y575675D01*
X391273Y575718D01*
X391230Y575739D01*
X391123Y575846D01*
X390963Y575537D01*
X390867Y575419D01*
X390814Y575344D01*
X390760Y575291D01*
X390654Y575248D01*
X389244Y575270D01*
X389212Y575302D01*
X389191Y575344D01*
X389170Y575409D01*
X389191Y575558D01*
X389223Y575590D01*
X389394Y575633D01*
X389672Y575611D01*
X390397Y575633D01*
X390472Y575707D01*
X390451Y575835D01*
X390419Y575868D01*
X390333Y575889D01*
X389341Y575878D01*
X389266Y575932D01*
X389234Y575964D01*
X389212Y576006D01*
X389138Y576081D01*
X389031Y576124D01*
X388988Y576102D01*
X388956Y576070D01*
X388935Y575771D01*
X388860Y575697D01*
X388689Y575654D01*
X388476Y575675D01*
X388444Y575707D01*
X388423Y575793D01*
X388401Y576604D01*
X388348Y576657D01*
X388198Y576679D01*
X387921Y576657D01*
X387835Y576679D01*
X387643Y576657D01*
X387547Y576583D01*
X387526Y576455D01*
X387547Y576391D01*
X387526Y575750D01*
X387451Y575675D01*
X387302Y575654D01*
X387109Y575675D01*
X386992Y575771D01*
X386949Y575878D01*
X386981Y575996D01*
X387003Y576102D01*
X387024Y576978D01*
X387045Y577020D01*
X387131Y577042D01*
X387280Y577063D01*
X388262Y577042D01*
X388412Y577063D01*
X388625Y577042D01*
X388743Y576946D01*
X388807Y576882D01*
X388849Y576775D01*
X388924Y576636D01*
X388988Y576615D01*
X388999Y576625D01*
X389084Y576775D01*
X389255Y576946D01*
X389277Y576988D01*
X389330Y577042D01*
X389479Y577063D01*
X390141Y577042D01*
X390654Y577063D01*
X390718Y577042D01*
X390760Y577020D01*
X390835Y576946D01*
X390856Y576903D01*
X390931Y576828D01*
X391038Y576786D01*
X391102Y576764D01*
X391134Y576796D01*
X391155Y576882D01*
X391198Y576988D01*
X391251Y577042D01*
X391401Y577063D01*
X391486Y577085D01*
X391572Y577063D01*
D02*
G37*
G36*
X342275Y577042D02*
X343118Y577052D01*
X343203Y577031D01*
X343289Y576967D01*
X343310Y576882D01*
X343289Y576732D01*
X343257Y576700D01*
X343171Y576679D01*
X343022Y576657D01*
X342979D01*
X342734Y576668D01*
X342403Y576657D01*
X342339Y576679D01*
X342168Y576657D01*
X342093Y576583D01*
X342114Y576092D01*
X342146Y576060D01*
X342296Y576038D01*
X342520Y576049D01*
X343225Y576028D01*
X343289Y575985D01*
X343310Y575900D01*
X343289Y575750D01*
X343235Y575697D01*
X343150Y575675D01*
X343022Y575654D01*
X342958Y575675D01*
X342008Y575665D01*
X341901Y575686D01*
X341826Y575718D01*
X341730Y575814D01*
X341709Y575857D01*
X341645Y576006D01*
X341623Y576092D01*
X341645Y576754D01*
X341730Y576903D01*
X341805Y576999D01*
X341912Y577042D01*
X342125Y577063D01*
X342275Y577042D01*
D02*
G37*
G36*
X386768Y577447D02*
X386864Y577373D01*
X386885Y577287D01*
X386864Y577180D01*
X386789Y577106D01*
X386640Y577085D01*
X384761Y577063D01*
X384686Y576988D01*
X384708Y576839D01*
X384761Y576786D01*
X384846Y576764D01*
X385156Y576775D01*
X386469Y576764D01*
X386533Y576786D01*
X386704Y576764D01*
X386736Y576732D01*
X386757Y576647D01*
X386779Y576540D01*
X386757Y576476D01*
X386736Y576391D01*
X386683Y576316D01*
X386597Y576295D01*
X386384Y576337D01*
X386320Y576316D01*
X384793Y576326D01*
X384718Y576273D01*
X384686Y576177D01*
X384740Y576081D01*
X384804Y576060D01*
X384814Y576049D01*
X384953Y576038D01*
X385017Y576060D01*
X386629Y576070D01*
X386736Y576028D01*
X386811Y575974D01*
X386864Y575921D01*
X386843Y575793D01*
X386725Y575675D01*
X386576Y575654D01*
X386362Y575675D01*
X384515Y575665D01*
X384430Y575686D01*
X384249Y575868D01*
X384206Y575889D01*
X384174Y575921D01*
X384131Y576028D01*
X384142Y576444D01*
X384131Y576775D01*
X384152Y576839D01*
X384131Y577159D01*
X384185Y577255D01*
X384227Y577277D01*
X384377Y577426D01*
X384483Y577469D01*
X386768Y577447D01*
D02*
G37*
G36*
X370264Y577020D02*
X370318Y576967D01*
X370339Y576882D01*
X370350Y576807D01*
X370360Y576796D01*
X370339Y575964D01*
X370243Y575846D01*
X370200Y575803D01*
X370168Y575793D01*
X370147Y575750D01*
X370072Y575675D01*
X369923Y575654D01*
X369389Y575675D01*
X368887Y575665D01*
X368781Y575686D01*
X368663Y575761D01*
X368588Y575835D01*
X368546Y575942D01*
X368535Y576956D01*
X368599Y577020D01*
X368685Y577042D01*
X368877Y577020D01*
X368930Y576967D01*
X368951Y576818D01*
X368973Y576134D01*
X369047Y576060D01*
X369325Y576038D01*
X369709Y576060D01*
X369784Y576113D01*
X369805Y576198D01*
X369795Y576444D01*
X369805Y576625D01*
X369784Y576689D01*
X369805Y576839D01*
X369827Y576946D01*
X369880Y576999D01*
X369966Y577020D01*
X370115Y577042D01*
X370264Y577020D01*
D02*
G37*
G36*
X372976Y577063D02*
X373040Y577042D01*
X373050Y577031D01*
X373125Y576978D01*
X373157Y576860D01*
X373136Y576391D01*
X373147Y575803D01*
X373115Y575729D01*
X373083Y575697D01*
X372933Y575654D01*
X372720Y575675D01*
X372666Y575729D01*
X372645Y575878D01*
X372666Y576988D01*
X372698Y577042D01*
X372805Y577085D01*
X372976Y577063D01*
D02*
G37*
G36*
X356953Y577479D02*
X357027Y577426D01*
X357059Y577330D01*
X357038Y576988D01*
X357017Y576455D01*
X357027Y575782D01*
X356995Y575707D01*
X356963Y575675D01*
X356878Y575654D01*
X356643Y575675D01*
X356547Y575750D01*
X356526Y575835D01*
X356515Y577383D01*
X356579Y577447D01*
X356664Y577469D01*
X356814Y577490D01*
X356942D01*
X356953Y577479D01*
D02*
G37*
G36*
X347505Y577042D02*
X348092Y577052D01*
X348146Y577042D01*
X348157Y577031D01*
X348189Y576999D01*
X348220Y576988D01*
X348242Y576946D01*
X348295Y576892D01*
X348338Y576871D01*
X348413Y576796D01*
X348434Y576647D01*
X348413Y575707D01*
X348359Y575654D01*
X348018Y575675D01*
X347900Y575771D01*
X347879Y576583D01*
X347804Y576657D01*
X347591Y576679D01*
X347441Y576657D01*
X347121Y576679D01*
X347025Y576604D01*
X347004Y576519D01*
X347014Y575825D01*
X346993Y575718D01*
X346929Y575654D01*
X346779Y575633D01*
X346715Y575654D01*
X346598Y575707D01*
X346577Y575793D01*
X346598Y576134D01*
X346577Y576839D01*
X346555Y576903D01*
X346577Y576988D01*
X346630Y577042D01*
X346715Y577063D01*
X347505Y577042D01*
D02*
G37*
G36*
X344901D02*
X346064Y577052D01*
X346139Y576999D01*
X346288Y576850D01*
X346331Y576828D01*
X346363Y576796D01*
X346384Y576711D01*
X346395Y575996D01*
X346352Y575889D01*
X346310Y575868D01*
X346192Y575771D01*
X346096Y575675D01*
X346011Y575654D01*
X345669Y575675D01*
X344826Y575665D01*
X344783Y575686D01*
X344772Y575697D01*
X344730Y575718D01*
X344687Y575761D01*
X344644Y575782D01*
X344570Y575921D01*
X344591Y576348D01*
X344666Y576423D01*
X344879Y576444D01*
X345669Y576465D01*
X345776Y576487D01*
X345829Y576540D01*
X345808Y576625D01*
X345755Y576679D01*
X345541Y576700D01*
X345477Y576679D01*
X344623Y576700D01*
X344570Y576754D01*
X344548Y576882D01*
X344634Y577031D01*
X344719Y577052D01*
X344837Y577063D01*
X344901Y577042D01*
D02*
G37*
G36*
X341335D02*
X341389Y576988D01*
X341431Y576818D01*
X341410Y575771D01*
X341357Y575697D01*
X341186Y575654D01*
X340972Y575675D01*
X340919Y575729D01*
X340897Y575878D01*
X340919Y577010D01*
X340951Y577042D01*
X341015Y577063D01*
X341036D01*
X341335Y577042D01*
D02*
G37*
%LPC*%
G36*
X559661Y878144D02*
X557323D01*
Y877852D01*
X556739D01*
Y877560D01*
X556154D01*
Y877267D01*
X555862D01*
Y876975D01*
X555569D01*
Y876391D01*
X555277D01*
Y875806D01*
X554985D01*
Y874929D01*
X554692D01*
Y873175D01*
X554985D01*
Y872299D01*
X555277D01*
Y871714D01*
X555569D01*
Y871422D01*
X555862D01*
Y871130D01*
X556154D01*
Y870837D01*
X556446D01*
Y870545D01*
X556739D01*
Y870253D01*
X557615D01*
Y869960D01*
X559369D01*
Y870253D01*
X560246D01*
Y870545D01*
X560538D01*
Y870837D01*
X561123D01*
Y871130D01*
X561415D01*
Y871714D01*
X561707D01*
Y872299D01*
X562000D01*
Y872883D01*
X562292D01*
Y875221D01*
X562000D01*
Y876098D01*
X561707D01*
Y876391D01*
X561415D01*
Y876975D01*
X561123D01*
Y877267D01*
X560538D01*
Y877560D01*
X560246D01*
Y877852D01*
X559661D01*
Y878144D01*
D02*
G37*
G36*
X412644D02*
X410598D01*
Y877852D01*
X409721D01*
Y877560D01*
X409429D01*
Y877267D01*
X409137D01*
Y876975D01*
X408844D01*
Y876683D01*
X408552D01*
Y876391D01*
X408260D01*
Y875514D01*
X407967D01*
Y872591D01*
X408260D01*
Y872006D01*
X408552D01*
Y871422D01*
X408844D01*
Y871130D01*
X409137D01*
Y870837D01*
X409429D01*
Y870545D01*
X410013D01*
Y870253D01*
X410598D01*
Y869960D01*
X412644D01*
Y870253D01*
X413228D01*
Y870545D01*
X413813D01*
Y870837D01*
X414105D01*
Y871130D01*
X414398D01*
Y871422D01*
X414690D01*
Y872006D01*
X414982D01*
Y872591D01*
X415275D01*
Y875514D01*
X414982D01*
Y876098D01*
X414690D01*
Y876683D01*
X414398D01*
Y876975D01*
X414105D01*
Y877267D01*
X413813D01*
Y877560D01*
X413228D01*
Y877852D01*
X412644D01*
Y878144D01*
D02*
G37*
G36*
X519034Y877852D02*
X516111D01*
Y877560D01*
X515527D01*
Y877267D01*
X514942D01*
Y876975D01*
X514650D01*
Y876683D01*
X514358D01*
Y876098D01*
X514066D01*
Y875514D01*
X513773D01*
Y872591D01*
X514066D01*
Y872006D01*
X514358D01*
Y871422D01*
X514650D01*
Y871130D01*
X514942D01*
Y870837D01*
X515235D01*
Y870545D01*
X515819D01*
Y870253D01*
X516404D01*
Y869960D01*
X518742D01*
Y870253D01*
X519619D01*
Y870545D01*
X519911D01*
Y870837D01*
X520203D01*
Y871130D01*
X520496D01*
Y871422D01*
X520788D01*
Y871714D01*
X521080D01*
Y872299D01*
X521372D01*
Y873468D01*
X521665D01*
Y874345D01*
X521372D01*
Y875514D01*
X521080D01*
Y876098D01*
X520788D01*
Y876683D01*
X520496D01*
Y876975D01*
X520203D01*
Y877267D01*
X519619D01*
Y877560D01*
X519034D01*
Y877852D01*
D02*
G37*
G36*
X390138Y879313D02*
X387800D01*
Y879021D01*
X387215D01*
Y878729D01*
X386923D01*
Y878437D01*
X386631D01*
Y877852D01*
X386339D01*
Y877267D01*
X386046D01*
Y875514D01*
X389554D01*
Y875806D01*
X391307D01*
Y876098D01*
X391892D01*
Y876391D01*
Y876683D01*
Y877267D01*
X391600D01*
Y877852D01*
X391307D01*
Y878437D01*
X391015D01*
Y878729D01*
X390723D01*
Y879021D01*
X390138D01*
Y879313D01*
D02*
G37*
G36*
X968110Y637158D02*
X967795Y637149D01*
X967652Y637158D01*
X967595Y637139D01*
X965820Y637158D01*
X965763Y637139D01*
X965114Y637158D01*
X965057Y637139D01*
X964007Y637158D01*
X961517Y637149D01*
X959904Y637158D01*
X959847Y637139D01*
X959542Y637158D01*
X958893Y637139D01*
X958836Y637158D01*
X958626Y637139D01*
X958559Y637072D01*
X958578Y636958D01*
X958673Y636824D01*
X958693Y636786D01*
X958864Y636462D01*
X958941Y636385D01*
X958979Y636252D01*
X958998Y636175D01*
X959084Y636071D01*
X959112Y636042D01*
X959151Y635947D01*
X959198Y635822D01*
X959227Y635794D01*
X959246Y635756D01*
X959303Y635698D01*
X959341Y635603D01*
X959418Y635470D01*
X959494Y635355D01*
X959513Y635279D01*
X959637Y635097D01*
X959666Y635069D01*
X959685Y634992D01*
X959723Y634897D01*
X959742Y634859D01*
X959828Y634754D01*
X959857Y634725D01*
X959923Y634544D01*
X960048Y634305D01*
X960124Y634172D01*
X960219Y634038D01*
X960238Y633962D01*
X960334Y633790D01*
X960410Y633676D01*
X960467Y633542D01*
X960620Y633256D01*
X960696Y633122D01*
X960773Y633008D01*
X960820Y632884D01*
X960878Y632769D01*
X960964Y632626D01*
X961078Y632416D01*
X961154Y632302D01*
X961422Y631786D01*
X961460Y631748D01*
X961498Y631653D01*
X961574Y631443D01*
X961650Y631367D01*
X961670Y631328D01*
X961803Y631080D01*
X961841Y631042D01*
X961899Y630909D01*
X961994Y630737D01*
X962032Y630699D01*
X962070Y630603D01*
X962089Y630527D01*
X962166Y630393D01*
X962204Y630355D01*
X962261Y630221D01*
X962337Y630088D01*
X962414Y629973D01*
X962452Y629878D01*
X962471Y629840D01*
X962567Y629706D01*
X962586Y629668D01*
X962643Y629534D01*
X962719Y629401D01*
X962757Y629363D01*
X962795Y629267D01*
X962910Y629057D01*
X962948Y629019D01*
X963034Y628781D01*
X963082Y628714D01*
X963120Y628676D01*
X963139Y628638D01*
X963273Y628390D01*
X963368Y628218D01*
X963416Y628151D01*
X963511Y628170D01*
X963606Y628361D01*
X963635Y628390D01*
X963654Y628428D01*
X963692Y628466D01*
X963750Y628599D01*
X964150Y629363D01*
X964208Y629420D01*
X964227Y629458D01*
X964398Y629783D01*
X964551Y630069D01*
X964628Y630183D01*
X964656Y630288D01*
X964704Y630355D01*
X964780Y630431D01*
X964818Y630584D01*
X964856Y630680D01*
X964952Y630813D01*
X965028Y630985D01*
X965047Y631023D01*
X965143Y631157D01*
X965238Y631328D01*
X965324Y631433D01*
X965372Y631557D01*
X965400Y631662D01*
X965448Y631729D01*
X965524Y631844D01*
X965553Y631949D01*
X965582Y632015D01*
X965715Y632206D01*
X965753Y632302D01*
X965772Y632340D01*
X965868Y632473D01*
X966021Y632760D01*
X966059Y632798D01*
X966097Y632893D01*
X966145Y633017D01*
X966211Y633122D01*
X966364Y633409D01*
X966440Y633523D01*
X966488Y633647D01*
X966603Y633838D01*
X966650Y633943D01*
X966698Y634067D01*
X966774Y634181D01*
X966803Y634210D01*
X966860Y634343D01*
X966956Y634515D01*
X966994Y634553D01*
X967051Y634687D01*
X967070Y634725D01*
X967108Y634763D01*
X967127Y634801D01*
X967166Y634840D01*
X967185Y634916D01*
X967232Y635021D01*
X967242Y635031D01*
X967261Y635069D01*
X967356Y635202D01*
X967375Y635279D01*
X967471Y635450D01*
X967528Y635508D01*
X967566Y635603D01*
X967662Y635775D01*
X967719Y635832D01*
X967757Y635928D01*
X967814Y636080D01*
X967910Y636214D01*
X967977Y636395D01*
X968024Y636462D01*
X968101Y636576D01*
X968120Y636653D01*
X968196Y636786D01*
X968234Y636824D01*
X968253Y636863D01*
X968311Y636996D01*
X968291Y637091D01*
X968244Y637139D01*
X968110Y637158D01*
D02*
G37*
G36*
X329806Y577149D02*
X329721Y577127D01*
X329465Y577085D01*
X328717D01*
X327586Y577063D01*
X327554Y577031D01*
X327532Y576946D01*
X327554Y576839D01*
X327607Y576786D01*
X327692Y576764D01*
X327959Y576775D01*
X329294Y576764D01*
X329358Y576786D01*
X329550Y576764D01*
X329667Y576647D01*
X329689Y576519D01*
X329582Y576369D01*
X329465Y576316D01*
X327639Y576326D01*
X327564Y576273D01*
X327532Y576177D01*
X327596Y576070D01*
X327692Y576038D01*
X327970Y576060D01*
X329614Y576038D01*
X329678Y576017D01*
X329763Y575996D01*
X329838Y576006D01*
X329860Y576092D01*
X329838Y577117D01*
X329806Y577149D01*
D02*
G37*
G36*
X403186Y576679D02*
X403165D01*
X403079Y576657D01*
X402684Y576668D01*
X402610Y576636D01*
X402556Y576583D01*
X402535Y576497D01*
X402556Y576326D01*
X402610Y576273D01*
X402695Y576252D01*
X403335Y576273D01*
X403410Y576326D01*
X403432Y576412D01*
X403453Y576476D01*
X403368Y576625D01*
X403271Y576657D01*
X403186Y576679D01*
D02*
G37*
G36*
X397016Y576700D02*
X396866Y576679D01*
X396503Y576657D01*
X396450Y576625D01*
X396461Y576508D01*
X396567Y576465D01*
X397069Y576455D01*
X397155Y576476D01*
X397219Y576519D01*
Y576604D01*
Y576625D01*
X397165Y576679D01*
X397016Y576700D01*
D02*
G37*
G36*
X395009D02*
X394795Y576679D01*
X394710Y576700D01*
X394539Y576657D01*
X394486Y576604D01*
X394507Y576519D01*
X394539Y576487D01*
X394625Y576465D01*
X395137Y576487D01*
X395190Y576519D01*
X395201Y576593D01*
X395169Y576647D01*
X395158Y576657D01*
X395094Y576679D01*
X395009Y576700D01*
D02*
G37*
G36*
X380000Y576679D02*
X379722Y576657D01*
X379637Y576679D01*
X379445Y576657D01*
X379381Y576615D01*
X379370Y576604D01*
X379327Y576497D01*
X379349Y576348D01*
X379370Y576113D01*
X379402Y576081D01*
X379509Y576038D01*
X379883Y576049D01*
X380107Y576038D01*
X380203Y576113D01*
X380224Y576198D01*
X380203Y576604D01*
X380149Y576657D01*
X380000Y576679D01*
D02*
G37*
G36*
X362173D02*
X361895Y576657D01*
X361810Y576679D01*
X361618Y576657D01*
X361607Y576647D01*
X361564Y576604D01*
X361543Y576519D01*
X361564Y576113D01*
X361618Y576060D01*
X361703Y576038D01*
X362055Y576049D01*
X362280Y576038D01*
X362397Y576134D01*
X362408Y576252D01*
X362397Y576412D01*
X362418Y576476D01*
X362386Y576593D01*
X362322Y576657D01*
X362173Y576679D01*
D02*
G37*
G36*
X358287Y576700D02*
X358202Y576679D01*
X357796Y576657D01*
X357764Y576625D01*
X357753Y576615D01*
X357743Y576540D01*
X357796Y576487D01*
X357945Y576465D01*
X358340Y576455D01*
X358426Y576476D01*
X358490Y576519D01*
X358511Y576604D01*
X358437Y576679D01*
X358287Y576700D01*
D02*
G37*
G36*
X355618D02*
X355469Y576679D01*
X355063Y576657D01*
X355052Y576647D01*
X355042Y576636D01*
X355010Y576540D01*
X355063Y576487D01*
X355149Y576465D01*
X355693Y576455D01*
X355800Y576497D01*
X355821Y576561D01*
X355800Y576647D01*
X355768Y576679D01*
X355618Y576700D01*
D02*
G37*
G36*
X349373Y576668D02*
X349288Y576647D01*
X349181Y576583D01*
X349160Y576497D01*
X349171Y576316D01*
X349160Y576177D01*
X349235Y576081D01*
X349405Y576038D01*
X349790D01*
X349961Y576081D01*
X350035Y576134D01*
X350057Y576263D01*
X350035Y576326D01*
X350057Y576476D01*
X350035Y576604D01*
X349918Y576657D01*
X349373Y576668D01*
D02*
G37*
G36*
X337834Y576679D02*
X337492Y576657D01*
X337428Y576679D01*
X337236Y576657D01*
X337183Y576604D01*
X337161Y576455D01*
X337183Y576326D01*
X337161Y576263D01*
X337183Y576113D01*
X337236Y576060D01*
X337321Y576038D01*
X337642Y576060D01*
X337652Y576049D01*
X337898Y576038D01*
X338037Y576113D01*
X338079Y576220D01*
X338058Y576369D01*
X338079Y576519D01*
X338015Y576625D01*
X337919Y576657D01*
X337834Y576679D01*
D02*
G37*
G36*
X331621Y576700D02*
X331557Y576679D01*
X331151Y576657D01*
X331098Y576604D01*
X331087Y576551D01*
X331109Y576508D01*
X331258Y576465D01*
X331696Y576455D01*
X331781Y576476D01*
X331856Y576529D01*
X331866Y576540D01*
X331845Y576625D01*
X331792Y576679D01*
X331621Y576700D01*
D02*
G37*
G36*
X399834Y576529D02*
X399823Y576497D01*
X399834Y576487D01*
X399845Y576519D01*
X399834Y576529D01*
D02*
G37*
G36*
Y576252D02*
X399823Y576241D01*
Y576220D01*
X399834Y576188D01*
X399845Y576241D01*
X399834Y576252D01*
D02*
G37*
G36*
Y575996D02*
X399823Y575985D01*
X399834Y575974D01*
X399845Y575985D01*
X399834Y575996D01*
D02*
G37*
G36*
X375132Y576764D02*
X375047Y576743D01*
X374897Y576679D01*
X374620Y576657D01*
X374470Y576679D01*
X374385Y576657D01*
X373969Y576668D01*
X373894Y576636D01*
X373862Y576604D01*
X373840Y576519D01*
X373862Y576113D01*
X373915Y576060D01*
X374065Y576038D01*
X374289Y576049D01*
X374598Y576038D01*
X374662Y576060D01*
X374887Y576028D01*
X374972Y576006D01*
X375047Y575996D01*
X375068Y576017D01*
X375089D01*
X375121Y576049D01*
X375164Y576198D01*
X375196Y576316D01*
X375228Y576348D01*
X375239Y576380D01*
X375282Y576401D01*
X375388Y576444D01*
X376360Y576476D01*
X376435Y576508D01*
X376466Y576540D01*
X376445Y576625D01*
X376413Y576657D01*
X376264Y576679D01*
X375282Y576700D01*
X375132Y576764D01*
D02*
G37*
G36*
X376306Y576252D02*
X375751Y576231D01*
X375698Y576177D01*
X375719Y576070D01*
X375751Y576038D01*
X375901Y576017D01*
X376178Y576038D01*
X376435Y576060D01*
X376445Y576070D01*
X376456Y576081D01*
X376488Y576156D01*
X376456Y576209D01*
X376306Y576252D01*
D02*
G37*
G36*
X390248Y576679D02*
X390205D01*
X390141Y576657D01*
X389768Y576668D01*
X389661Y576625D01*
X389618Y576583D01*
X389597Y576497D01*
X389618Y576348D01*
X389693Y576273D01*
X389778Y576252D01*
X390397Y576273D01*
X390472Y576348D01*
X390451Y576604D01*
X390397Y576657D01*
X390248Y576679D01*
D02*
G37*
G36*
X388988Y576401D02*
X388967Y576359D01*
X388956Y576348D01*
X388967Y576295D01*
X388999Y576326D01*
X388988Y576401D01*
D02*
G37*
G36*
X391123Y576572D02*
X391091Y576561D01*
X391081Y576487D01*
X391102Y575932D01*
X391145Y575953D01*
X391155Y576006D01*
Y576028D01*
X391134Y576113D01*
X391155Y576198D01*
X391145Y576359D01*
X391155Y576540D01*
X391123Y576572D01*
D02*
G37*
G36*
X345690Y576252D02*
X345392D01*
X345178Y576231D01*
X345125Y576177D01*
X345146Y576070D01*
X345242Y576038D01*
X345328Y576017D01*
X345509Y576028D01*
X345669Y576017D01*
X345733Y576038D01*
X345829Y576092D01*
X345808Y576198D01*
X345776Y576231D01*
X345690Y576252D01*
D02*
G37*
%LPD*%
D10*
X576710Y610870D02*
G03*
X576710Y610870I-1250J0D01*
G01*
X899140Y571330D02*
G03*
X899140Y571330I-1250J0D01*
G01*
X411030Y655540D02*
G03*
X411030Y655540I-1250J0D01*
G01*
X720470Y631210D02*
G03*
X720470Y631210I-1250J0D01*
G01*
X660630Y792480D02*
G03*
X660630Y792480I-1250J0D01*
G01*
X621410Y632480D02*
G03*
X621410Y632480I-1250J0D01*
G01*
X273280Y754380D02*
G03*
X273280Y754380I-1250J0D01*
G01*
D11*
X616940Y825500D02*
G03*
X616940Y825500I-17500J0D01*
G01*
X630440Y813100D02*
Y837900D01*
X574640Y856500D02*
X624240D01*
X574640Y794500D02*
X624240D01*
X568440Y813100D02*
Y837900D01*
X799390Y673735D02*
Y746125D01*
X450290Y673735D02*
Y746125D01*
D12*
X790940Y760930D02*
G03*
X790940Y760930I-1000J0D01*
G01*
X779380Y807480D02*
G03*
X771130Y815730I-8250J0D01*
G01*
X771130Y769230D02*
G03*
X779380Y777480I0J8250D01*
G01*
X665880Y777480D02*
G03*
X674130Y769230I8250J0D01*
G01*
Y815730D02*
G03*
X665880Y807480I0J-8250D01*
G01*
X416560Y579120D02*
Y642620D01*
X568960Y579120D02*
Y642620D01*
X416560D02*
X568960D01*
X416560Y579120D02*
X568960D01*
X807290Y575580D02*
Y635080D01*
X912290D01*
Y575580D02*
Y635080D01*
X807290Y575580D02*
X912290D01*
X937250Y771290D02*
Y821290D01*
X375280Y649040D02*
Y753040D01*
X370280Y649040D02*
X416280D01*
Y649040D02*
Y753040D01*
X370280D02*
X416280D01*
X370280Y649040D02*
Y753040D01*
X471570Y778780D02*
X521570D01*
X354730Y777510D02*
X404730D01*
X345450Y637940D02*
Y687940D01*
X1001760Y673500D02*
Y723500D01*
X773180Y839670D02*
Y864670D01*
X710180D02*
X773180D01*
X710180Y839670D02*
Y864670D01*
Y839670D02*
X773180D01*
X781720Y576210D02*
Y625210D01*
X706720Y576210D02*
X781720D01*
X706720Y625210D02*
X781720D01*
X706720Y576210D02*
Y625210D01*
X665880Y777480D02*
X665880Y777480D01*
Y807480D01*
X779380Y777480D02*
Y807480D01*
X674130Y815730D02*
X771130D01*
X674130Y769230D02*
X771130D01*
X682660Y577480D02*
Y626480D01*
X607660Y577480D02*
X682660D01*
X607660Y626480D02*
X682660D01*
X607660Y577480D02*
Y626480D01*
X894090Y674770D02*
Y724770D01*
X897620Y773830D02*
Y823830D01*
X276430Y721630D02*
Y781130D01*
Y721630D02*
X330630D01*
Y781130D01*
X276430D02*
X330630D01*
D13*
X1012500Y796290D02*
G03*
X1012500Y796290I-42500J0D01*
G01*
X539070Y811530D02*
G03*
X539070Y811530I-42500J0D01*
G01*
X422230Y810260D02*
G03*
X422230Y810260I-42500J0D01*
G01*
X355200Y662940D02*
G03*
X355200Y662940I-42500J0D01*
G01*
X1011510Y698500D02*
G03*
X1011510Y698500I-42500J0D01*
G01*
X903840Y699770D02*
G03*
X903840Y699770I-42500J0D01*
G01*
X907370Y798830D02*
G03*
X907370Y798830I-42500J0D01*
G01*
D14*
X419104Y726438D02*
Y716281D01*
X424183Y711202D01*
X429261Y716281D01*
Y726438D01*
X434339Y711202D02*
Y726438D01*
X441957D01*
X444496Y723898D01*
Y718820D01*
X441957Y716281D01*
X434339D01*
X439417D02*
X444496Y711202D01*
X582937Y770892D02*
Y786127D01*
X590554D01*
X593093Y783588D01*
Y778510D01*
X590554Y775971D01*
X582937D01*
X588015D02*
X593093Y770892D01*
X608328Y783588D02*
X605789Y786127D01*
X600711D01*
X598172Y783588D01*
Y781049D01*
X600711Y778510D01*
X605789D01*
X608328Y775971D01*
Y773432D01*
X605789Y770892D01*
X600711D01*
X598172Y773432D01*
X613407Y786127D02*
X623563D01*
X618485D01*
Y770892D01*
X675767Y840105D02*
X660532D01*
Y847722D01*
X663071Y850262D01*
X668149D01*
X670689Y847722D01*
Y840105D01*
Y845183D02*
X675767Y850262D01*
Y855340D02*
Y860418D01*
Y857879D01*
X660532D01*
X663071Y855340D01*
X350518Y709941D02*
X335283D01*
Y717559D01*
X337822Y720098D01*
X342900D01*
X345439Y717559D01*
Y709941D01*
X350518Y727715D02*
Y732794D01*
X347978Y735333D01*
X342900D01*
X340361Y732794D01*
Y727715D01*
X342900Y725176D01*
X347978D01*
X350518Y727715D01*
X340361Y740411D02*
X347978D01*
X350518Y742950D01*
X347978Y745490D01*
X350518Y748029D01*
X347978Y750568D01*
X340361D01*
X350518Y763264D02*
Y758186D01*
X347978Y755646D01*
X342900D01*
X340361Y758186D01*
Y763264D01*
X342900Y765803D01*
X345439D01*
Y755646D01*
X340361Y770881D02*
X350518D01*
X345439D01*
X342900Y773421D01*
X340361Y775960D01*
Y778499D01*
X628256Y648968D02*
X633335D01*
X630795D01*
Y633732D01*
X628256D01*
X633335D01*
X640952D02*
Y648968D01*
X648570D01*
X651109Y646428D01*
Y641350D01*
X648570Y638811D01*
X640952D01*
X646030D02*
X651109Y633732D01*
X666344D02*
X656187D01*
X666344Y643889D01*
Y646428D01*
X663805Y648968D01*
X658726D01*
X656187Y646428D01*
X731125Y645157D02*
X736204D01*
X733664D01*
Y629922D01*
X731125D01*
X736204D01*
X743821D02*
Y645157D01*
X751439D01*
X753978Y642618D01*
Y637540D01*
X751439Y635001D01*
X743821D01*
X748900D02*
X753978Y629922D01*
X759056D02*
X764135D01*
X761596D01*
Y645157D01*
X759056Y642618D01*
X810276Y652777D02*
Y637542D01*
X817893D01*
X820432Y640081D01*
Y650238D01*
X817893Y652777D01*
X810276D01*
X825511Y637542D02*
X830589D01*
X828050D01*
Y647698D01*
X825511D01*
X838207Y637542D02*
X845824D01*
X848363Y640081D01*
X845824Y642620D01*
X840746D01*
X838207Y645159D01*
X840746Y647698D01*
X848363D01*
X853442Y632463D02*
Y647698D01*
X861059D01*
X863598Y645159D01*
Y640081D01*
X861059Y637542D01*
X853442D01*
X868677D02*
X873755D01*
X871216D01*
Y652777D01*
X868677D01*
X883912Y647698D02*
X888990D01*
X891529Y645159D01*
Y637542D01*
X883912D01*
X881373Y640081D01*
X883912Y642620D01*
X891529D01*
X896608Y647698D02*
Y640081D01*
X899147Y637542D01*
X906764D01*
Y635003D01*
X904225Y632463D01*
X901686D01*
X906764Y637542D02*
Y647698D01*
X712473Y829308D02*
X709934Y831848D01*
X704856D01*
X702317Y829308D01*
Y819152D01*
X704856Y816612D01*
X709934D01*
X712473Y819152D01*
X717552Y831848D02*
Y816612D01*
X727708D01*
X732787Y831848D02*
Y816612D01*
Y821691D01*
X742943Y831848D01*
X735326Y824230D01*
X742943Y816612D01*
X433072Y812801D02*
X430532Y810262D01*
Y805183D01*
X433072Y802644D01*
X443228D01*
X445768Y805183D01*
Y810262D01*
X443228Y812801D01*
X430532Y817879D02*
Y828036D01*
X433072D01*
X443228Y817879D01*
X445768D01*
X314962Y808991D02*
X312423Y806452D01*
Y801373D01*
X314962Y798834D01*
X325118D01*
X327658Y801373D01*
Y806452D01*
X325118Y808991D01*
X312423Y824226D02*
X314962Y819147D01*
X320040Y814069D01*
X325118D01*
X327658Y816608D01*
Y821687D01*
X325118Y824226D01*
X322579D01*
X320040Y821687D01*
Y814069D01*
X350521Y629918D02*
X347982Y632458D01*
X342903D01*
X340364Y629918D01*
Y619762D01*
X342903Y617223D01*
X347982D01*
X350521Y619762D01*
X365756Y632458D02*
X355599D01*
Y624840D01*
X360677Y627379D01*
X363217D01*
X365756Y624840D01*
Y619762D01*
X363217Y617223D01*
X358138D01*
X355599Y619762D01*
X967741Y822958D02*
X965202Y825498D01*
X960123D01*
X957584Y822958D01*
Y812802D01*
X960123Y810263D01*
X965202D01*
X967741Y812802D01*
X980437Y810263D02*
Y825498D01*
X972819Y817880D01*
X982976D01*
X966471Y723898D02*
X963932Y726438D01*
X958853D01*
X956314Y723898D01*
Y713742D01*
X958853Y711202D01*
X963932D01*
X966471Y713742D01*
X971549Y723898D02*
X974088Y726438D01*
X979167D01*
X981706Y723898D01*
Y721359D01*
X979167Y718820D01*
X976628D01*
X979167D01*
X981706Y716281D01*
Y713742D01*
X979167Y711202D01*
X974088D01*
X971549Y713742D01*
X863601Y825498D02*
X861062Y828037D01*
X855983D01*
X853444Y825498D01*
Y815342D01*
X855983Y812803D01*
X861062D01*
X863601Y815342D01*
X878836Y812803D02*
X868679D01*
X878836Y822959D01*
Y825498D01*
X876297Y828037D01*
X871218D01*
X868679Y825498D01*
X861060Y726438D02*
X858521Y728978D01*
X853443D01*
X850903Y726438D01*
Y716282D01*
X853443Y713743D01*
X858521D01*
X861060Y716282D01*
X866138Y713743D02*
X871217D01*
X868678D01*
Y728978D01*
X866138Y726438D01*
X384814Y628647D02*
Y613413D01*
X392432D01*
X394971Y615952D01*
Y618491D01*
X392432Y621030D01*
X384814D01*
X392432D01*
X394971Y623569D01*
Y626108D01*
X392432Y628647D01*
X384814D01*
X400049D02*
X410206D01*
X405127D01*
Y613413D01*
X538506Y702312D02*
Y712469D01*
X543585Y717548D01*
X548663Y712469D01*
Y702312D01*
Y709930D01*
X538506D01*
X553741Y717548D02*
X563898D01*
X558820D01*
Y702312D01*
X568976D02*
Y717548D01*
X574055Y712469D01*
X579133Y717548D01*
Y702312D01*
X594368Y717548D02*
X584212D01*
Y702312D01*
X594368D01*
X584212Y709930D02*
X589290D01*
X609603Y715008D02*
X607064Y717548D01*
X601986D01*
X599447Y715008D01*
Y704852D01*
X601986Y702312D01*
X607064D01*
X609603Y704852D01*
Y709930D01*
X604525D01*
X614682Y702312D02*
Y712469D01*
X619760Y717548D01*
X624838Y712469D01*
Y702312D01*
Y709930D01*
X614682D01*
X629917Y715008D02*
X632456Y717548D01*
X637534D01*
X640073Y715008D01*
Y712469D01*
X637534Y709930D01*
X634995D01*
X637534D01*
X640073Y707391D01*
Y704852D01*
X637534Y702312D01*
X632456D01*
X629917Y704852D01*
X655309Y702312D02*
X645152D01*
X655309Y712469D01*
Y715008D01*
X652769Y717548D01*
X647691D01*
X645152Y715008D01*
X660387D02*
X662926Y717548D01*
X668004D01*
X670544Y715008D01*
Y712469D01*
X668004Y709930D01*
X670544Y707391D01*
Y704852D01*
X668004Y702312D01*
X662926D01*
X660387Y704852D01*
Y707391D01*
X662926Y709930D01*
X660387Y712469D01*
Y715008D01*
X662926Y709930D02*
X668004D01*
X675622Y702312D02*
Y717548D01*
X683240D01*
X685779Y715008D01*
Y709930D01*
X683240Y707391D01*
X675622D01*
X690857Y717548D02*
Y704852D01*
X693396Y702312D01*
X698475D01*
X701014Y704852D01*
Y717548D01*
M02*
